M48
; DRILL file {KiCad (5.1.5)-3} date 13.11.2020 11:58:31
; FORMAT={-:-/ absolute / inch / decimal}
; #@! TF.CreationDate,2020-11-13T11:58:31+01:00
; #@! TF.GenerationSoftware,Kicad,Pcbnew,(5.1.5)-3
; #@! TF.FileFunction,Plated,1,6,PTH
FMAT,2
INCH
T1C0.0079
T2C0.0098
T3C0.0197
T4C0.0236
T5C0.0315
T6C0.0335
T7C0.0354
T8C0.0362
T9C0.0394
T10C0.0531
T11C0.0598
T12C0.0618
T13C0.0906
T14C0.1063
%
G90
G05
T1
X2.3965Y-4.6465
X2.3965Y-4.6988
X2.3965Y-4.7512
X2.3965Y-4.8035
X2.4488Y-4.6465
X2.4488Y-4.6988
X2.4488Y-4.7512
X2.4488Y-4.8035
X2.5012Y-4.6465
X2.5012Y-4.6988
X2.5012Y-4.7512
X2.5012Y-4.8035
X2.5535Y-4.6465
X2.5535Y-4.6988
X2.5535Y-4.7512
X2.5535Y-4.8035
X2.3965Y-3.8215
X2.3965Y-3.8738
X2.3965Y-3.9262
X2.3965Y-3.9785
X2.4488Y-3.8215
X2.4488Y-3.8738
X2.4488Y-3.9262
X2.4488Y-3.9785
X2.5012Y-3.8215
X2.5012Y-3.8738
X2.5012Y-3.9262
X2.5012Y-3.9785
X2.5535Y-3.8215
X2.5535Y-3.8738
X2.5535Y-3.9262
X2.5535Y-3.9785
X2.3965Y-2.9965
X2.3965Y-3.0488
X2.3965Y-3.1012
X2.3965Y-3.1535
X2.4488Y-2.9965
X2.4488Y-3.0488
X2.4488Y-3.1012
X2.4488Y-3.1535
X2.5012Y-2.9965
X2.5012Y-3.0488
X2.5012Y-3.1012
X2.5012Y-3.1535
X2.5535Y-2.9965
X2.5535Y-3.0488
X2.5535Y-3.1012
X2.5535Y-3.1535
T2
X1.15Y-2.5
X1.15Y-2.6
X1.15Y-2.65
X1.15Y-2.85
X1.15Y-2.9
X1.15Y-2.95
X1.15Y-3.0
X1.15Y-3.05
X1.15Y-3.1
X1.15Y-3.15
X1.15Y-3.2
X1.15Y-3.25
X1.15Y-3.3
X1.15Y-3.5
X1.15Y-3.65
X1.15Y-3.7
X1.15Y-3.75
X1.15Y-3.8
X1.15Y-3.85
X1.15Y-3.9
X1.15Y-3.95
X1.15Y-4.0
X1.15Y-4.05
X1.15Y-4.1
X1.15Y-4.15
X1.15Y-4.5
X1.15Y-4.55
X1.15Y-4.6
X1.15Y-4.65
X1.15Y-4.7
X1.15Y-4.75
X1.15Y-4.8
X1.15Y-4.85
X1.15Y-4.9
X1.15Y-4.95
X1.15Y-5.15
X1.15Y-5.2
X1.15Y-5.25
X1.15Y-5.3
X1.15Y-5.35
X1.15Y-5.4
X1.15Y-5.5
X1.2Y-2.65
X1.2Y-2.7
X1.2Y-2.9
X1.2Y-2.95
X1.2Y-3.0
X1.2Y-3.05
X1.2Y-3.1
X1.2Y-3.15
X1.2Y-3.2
X1.2Y-3.25
X1.2Y-3.4
X1.2Y-3.45
X1.2Y-3.5
X1.2Y-3.55
X1.2Y-3.75
X1.2Y-3.8
X1.2Y-3.85
X1.2Y-3.9
X1.2Y-3.95
X1.2Y-4.0
X1.2Y-4.05
X1.2Y-4.25
X1.2Y-4.3
X1.2Y-4.35
X1.2Y-4.4
X1.2Y-4.55
X1.2Y-4.6
X1.2Y-4.65
X1.2Y-4.7
X1.2Y-4.75
X1.2Y-4.8
X1.2Y-4.85
X1.2Y-4.9
X1.2Y-5.05
X1.2Y-5.1
X1.2Y-5.15
X1.2Y-5.3
X1.24Y-2.1
X1.25Y-2.65
X1.25Y-2.7
X1.25Y-2.95
X1.25Y-3.0
X1.25Y-3.05
X1.25Y-3.1
X1.25Y-3.15
X1.25Y-3.2
X1.25Y-3.45
X1.25Y-3.5
X1.25Y-3.55
X1.25Y-3.75
X1.25Y-3.8
X1.25Y-3.85
X1.25Y-3.9
X1.25Y-3.95
X1.25Y-4.0
X1.25Y-4.05
X1.25Y-4.25
X1.25Y-4.3
X1.25Y-4.35
X1.25Y-4.6
X1.25Y-4.65
X1.25Y-4.7
X1.25Y-4.75
X1.25Y-4.8
X1.25Y-4.85
X1.25Y-5.1
X1.25Y-5.15
X1.26Y-5.68
X1.3Y-2.55
X1.3Y-2.6
X1.3Y-2.65
X1.3Y-2.7
X1.3Y-2.9
X1.3Y-2.95
X1.3Y-3.0
X1.3Y-3.05
X1.3Y-3.1
X1.3Y-3.15
X1.3Y-3.2
X1.3Y-3.25
X1.3Y-3.4
X1.3Y-3.45
X1.3Y-3.5
X1.3Y-3.55
X1.3Y-3.75
X1.3Y-3.8
X1.3Y-3.85
X1.3Y-3.9
X1.3Y-3.95
X1.3Y-4.0
X1.3Y-4.05
X1.3Y-4.25
X1.3Y-4.3
X1.3Y-4.35
X1.3Y-4.4
X1.3Y-4.55
X1.3Y-4.6
X1.3Y-4.65
X1.3Y-4.7
X1.3Y-4.75
X1.3Y-4.8
X1.3Y-4.85
X1.3Y-4.9
X1.3Y-5.05
X1.3Y-5.1
X1.3Y-5.15
X1.3Y-5.2
X1.3Y-5.25
X1.35Y-2.55
X1.35Y-2.6
X1.35Y-2.8
X1.35Y-2.85
X1.35Y-2.9
X1.35Y-3.05
X1.35Y-3.2
X1.35Y-3.25
X1.35Y-3.3
X1.35Y-3.35
X1.35Y-3.4
X1.35Y-3.45
X1.35Y-3.5
X1.35Y-3.55
X1.35Y-3.6
X1.35Y-3.65
X1.35Y-3.7
X1.35Y-3.75
X1.35Y-3.9
X1.35Y-4.05
X1.35Y-4.1
X1.35Y-4.15
X1.35Y-4.2
X1.35Y-4.25
X1.35Y-4.3
X1.35Y-4.35
X1.35Y-4.4
X1.35Y-4.45
X1.35Y-4.5
X1.35Y-4.55
X1.35Y-4.9
X1.35Y-4.95
X1.35Y-5.2
X1.35Y-5.25
X1.4Y-2.55
X1.4Y-5.25
X1.405Y-2.28
X1.47Y-2.82
X1.47Y-3.39
X1.47Y-3.62
X1.47Y-4.22
X1.47Y-4.44
X1.47Y-4.99
X1.55Y-2.7
X1.55Y-2.75
X1.55Y-3.45
X1.55Y-3.5
X1.55Y-3.55
X1.55Y-4.25
X1.55Y-4.3
X1.55Y-4.35
X1.55Y-4.4
X1.55Y-5.1
X1.575Y-2.285
X1.64Y-3.35
X1.64Y-4.18
X1.65Y-2.55
X1.65Y-2.6
X1.65Y-2.7
X1.65Y-2.75
X1.65Y-3.45
X1.65Y-3.5
X1.65Y-3.55
X1.65Y-3.65
X1.65Y-4.15
X1.65Y-4.25
X1.65Y-4.3
X1.65Y-4.35
X1.65Y-4.4
X1.65Y-4.5
X1.65Y-5.0
X1.65Y-5.1
X1.65Y-5.15
X1.65Y-5.2
X1.65Y-5.25
X1.65Y-5.45
X1.65Y-5.55
X1.675Y-5.575
X1.7Y-2.55
X1.7Y-2.6
X1.7Y-2.7
X1.7Y-2.75
X1.7Y-3.4
X1.7Y-3.45
X1.7Y-3.5
X1.7Y-3.55
X1.7Y-4.15
X1.7Y-4.25
X1.7Y-4.3
X1.7Y-4.35
X1.7Y-4.4
X1.7Y-5.0
X1.7Y-5.1
X1.7Y-5.55
X1.74Y-2.9827
X1.74Y-3.0073
X1.74Y-3.1427
X1.74Y-3.1673
X1.74Y-3.8077
X1.74Y-3.8323
X1.74Y-3.9627
X1.74Y-3.9873
X1.74Y-4.6327
X1.74Y-4.6573
X1.74Y-4.7927
X1.74Y-4.8173
X1.75Y-2.55
X1.75Y-2.6
X1.75Y-2.7
X1.75Y-2.75
X1.75Y-2.85
X1.75Y-2.96
X1.75Y-3.03
X1.75Y-3.12
X1.75Y-3.19
X1.75Y-3.3
X1.75Y-3.4
X1.75Y-3.45
X1.75Y-3.5
X1.75Y-3.55
X1.75Y-3.65
X1.75Y-3.785
X1.75Y-3.855
X1.75Y-3.94
X1.75Y-4.01
X1.75Y-4.15
X1.75Y-4.25
X1.75Y-4.3
X1.75Y-4.35
X1.75Y-4.4
X1.75Y-4.5
X1.75Y-4.61
X1.75Y-4.68
X1.75Y-4.77
X1.75Y-4.84
X1.75Y-4.95
X1.75Y-5.1
X1.79Y-5.415
X1.8Y-2.4
X1.8Y-2.7
X1.8Y-3.45
X1.8Y-3.5
X1.8Y-3.55
X1.8Y-4.25
X1.8Y-4.3
X1.8Y-4.35
X1.84Y-3.39
X1.845Y-3.95
X1.85Y-2.4
X1.85Y-2.45
X1.85Y-3.0
X1.85Y-3.145
X1.85Y-3.835
X1.85Y-4.655
X1.85Y-4.76
X1.8613Y-3.3687
X1.8787Y-3.3513
X1.9Y-2.4
X1.9Y-2.45
X1.9Y-2.5
X1.9Y-3.33
X1.9Y-5.15
X1.9Y-5.2
X1.915Y-5.265
X1.915Y-5.335
X1.94Y-3.57
X1.95Y-2.4
X1.95Y-2.45
X1.95Y-2.5
X1.95Y-2.55
X1.95Y-3.43
X1.95Y-5.15
X1.95Y-5.2
X1.9513Y-3.4613
X1.9513Y-3.5387
X1.96Y-5.45
X1.9687Y-3.4787
X1.9687Y-3.5213
X1.99Y-3.5
X2.0Y-2.3
X2.0Y-2.35
X2.0Y-2.4
X2.0Y-2.45
X2.0Y-2.5
X2.0Y-2.55
X2.0Y-2.6
X2.0Y-5.15
X2.0Y-5.2
X2.005Y-2.875
X2.005Y-2.95
X2.005Y-3.01
X2.005Y-3.09
X2.005Y-4.625
X2.005Y-4.66
X2.005Y-4.74
X2.01Y-3.64
X2.015Y-3.695
X2.015Y-3.79
X2.015Y-3.835
X2.015Y-3.915
X2.02Y-4.52
X2.0313Y-3.6187
X2.0487Y-3.6013
X2.05Y-2.3
X2.05Y-2.35
X2.05Y-2.4
X2.05Y-2.45
X2.05Y-2.5
X2.05Y-2.55
X2.05Y-2.6
X2.05Y-4.15
X2.05Y-4.2
X2.05Y-4.25
X2.05Y-4.35
X2.05Y-4.4
X2.05Y-4.45
X2.07Y-3.58
X2.075Y-3.23
X2.075Y-4.075
X2.075Y-4.9
X2.1Y-2.15
X2.1Y-2.25
X2.1Y-2.3
X2.1Y-2.35
X2.1Y-2.4
X2.1Y-2.45
X2.1Y-2.5
X2.1Y-2.55
X2.1Y-2.6
X2.1Y-4.15
X2.1Y-4.2
X2.1Y-4.25
X2.1Y-4.35
X2.1Y-4.4
X2.1Y-4.45
X2.1Y-4.5
X2.11Y-3.06
X2.12Y-3.92
X2.12Y-4.75
X2.1313Y-3.0813
X2.1487Y-3.0987
X2.15Y-2.15
X2.15Y-2.25
X2.15Y-2.3
X2.15Y-2.35
X2.15Y-2.4
X2.15Y-2.45
X2.15Y-2.5
X2.15Y-2.55
X2.15Y-2.6
X2.15Y-4.15
X2.15Y-4.3
X2.15Y-4.45
X2.15Y-4.5
X2.15Y-4.55
X2.15Y-5.15
X2.1513Y-3.9187
X2.1513Y-4.7387
X2.16Y-5.46
X2.165Y-2.865
X2.165Y-3.69
X2.1687Y-3.9013
X2.1687Y-4.7213
X2.1713Y-4.2787
X2.1887Y-4.2613
X2.19Y-3.885
X2.195Y-5.63
X2.2Y-2.15
X2.2Y-2.45
X2.2Y-2.5
X2.2Y-2.55
X2.2Y-2.6
X2.2Y-2.7
X2.2Y-2.8
X2.2Y-4.15
X2.2Y-5.15
X2.2002Y-5.2052
X2.205Y-5.3
X2.21Y-4.24
X2.21Y-4.47
X2.2196Y-3.0506
X2.22Y-2.9969
X2.22Y-4.31
X2.22Y-4.675
X2.2346Y-3.8319
X2.2392Y-3.8954
X2.24Y-4.3277
X2.24Y-4.3523
X2.24Y-5.445
X2.2423Y-4.86
X2.2432Y-4.9027
X2.2444Y-4.0727
X2.245Y-3.205
X2.245Y-4.03
X2.25Y-2.15
X2.25Y-2.45
X2.25Y-2.5
X2.25Y-2.55
X2.25Y-2.6
X2.25Y-2.7
X2.25Y-2.75
X2.25Y-3.325
X2.25Y-3.72
X2.25Y-4.15
X2.2525Y-3.2525
X2.255Y-2.895
X2.255Y-2.95
X2.255Y-3.775
X2.255Y-4.555
X2.255Y-4.615
X2.255Y-4.675
X2.255Y-4.73
X2.2614Y-5.3036
X2.3Y-2.15
X2.3Y-2.25
X2.3Y-2.3
X2.3Y-2.4
X2.3Y-2.5
X2.3Y-2.55
X2.3Y-2.6
X2.3Y-2.7
X2.3Y-2.75
X2.3Y-4.185
X2.3Y-4.985
X2.315Y-2.835
X2.315Y-3.66
X2.315Y-4.485
X2.33Y-5.45
X2.34Y-2.51
X2.35Y-2.15
X2.35Y-2.25
X2.35Y-2.3
X2.35Y-2.55
X2.35Y-2.6
X2.3513Y-5.4287
X2.3687Y-5.4113
X2.385Y-2.83
X2.39Y-3.65
X2.39Y-5.39
X2.4Y-2.15
X2.4Y-2.25
X2.4Y-2.3
X2.4Y-2.55
X2.4Y-2.6
X2.4Y-2.65
X2.4Y-2.7
X2.4Y-2.75
X2.4Y-2.8
X2.4Y-4.305
X2.405Y-2.85
X2.405Y-3.3
X2.405Y-3.675
X2.405Y-4.12
X2.405Y-4.465
X2.405Y-4.5
X2.41Y-4.96
X2.41Y-5.11
X2.42Y-4.985
X2.425Y-3.65
X2.425Y-4.37
X2.4477Y-4.9849
X2.45Y-2.15
X2.45Y-2.25
X2.45Y-2.3
X2.45Y-2.55
X2.45Y-2.6
X2.465Y-2.655
X2.4723Y-4.9849
X2.485Y-2.855
X2.485Y-3.675
X2.485Y-4.5
X2.495Y-5.0
X2.5Y-2.15
X2.5Y-2.55
X2.5Y-2.6
X2.5Y-2.65
X2.5Y-3.65
X2.5Y-4.95
X2.5Y-5.33
X2.5048Y-4.1198
X2.505Y-3.3
X2.52Y-3.345
X2.52Y-4.185
X2.52Y-4.985
X2.525Y-2.855
X2.525Y-3.675
X2.525Y-4.5
X2.545Y-3.345
X2.545Y-4.185
X2.545Y-4.985
X2.545Y-5.23
X2.545Y-5.56
X2.545Y-5.61
X2.55Y-2.15
X2.55Y-2.55
X2.55Y-2.6
X2.55Y-2.65
X2.55Y-2.7
X2.55Y-2.75
X2.55Y-2.8
X2.58Y-4.19
X2.58Y-5.145
X2.6Y-2.15
X2.6Y-2.45
X2.6Y-2.55
X2.6Y-2.6
X2.6Y-2.65
X2.6Y-2.7
X2.6Y-2.75
X2.6Y-2.8
X2.6Y-3.505
X2.61Y-5.23
X2.615Y-4.505
X2.62Y-2.8556
X2.625Y-3.68
X2.625Y-5.32
X2.625Y-5.355
X2.6305Y-4.9991
X2.635Y-4.93
X2.6377Y-5.23
X2.65Y-2.15
X2.65Y-2.45
X2.65Y-2.55
X2.65Y-2.6
X2.65Y-2.65
X2.65Y-2.7
X2.65Y-2.75
X2.65Y-2.8
X2.6623Y-5.23
X2.69Y-2.99
X2.69Y-3.815
X2.69Y-4.645
X2.69Y-4.925
X2.69Y-5.23
X2.6912Y-4.8527
X2.692Y-3.9512
X2.695Y-3.13
X2.695Y-3.985
X2.695Y-4.04
X2.695Y-4.775
X2.695Y-4.81
X2.695Y-5.61
X2.6955Y-3.1564
X2.7Y-2.15
X2.7Y-2.45
X2.7Y-2.55
X2.7Y-2.6
X2.7Y-2.65
X2.7Y-2.7
X2.7Y-2.75
X2.7Y-3.375
X2.7Y-3.425
X2.7029Y-3.9292
X2.7042Y-4.7522
X2.705Y-2.895
X2.705Y-3.105
X2.705Y-3.235
X2.705Y-3.2827
X2.705Y-3.725
X2.705Y-5.56
X2.71Y-4.1
X2.71Y-4.545
X2.7151Y-4.9144
X2.735Y-5.105
X2.75Y-2.15
X2.75Y-2.55
X2.75Y-2.6
X2.75Y-2.65
X2.75Y-2.7
X2.75Y-2.75
X2.75Y-2.8
X2.75Y-4.44
X2.755Y-4.205
X2.755Y-4.755
X2.755Y-4.985
X2.7556Y-4.0671
X2.775Y-2.45
X2.775Y-3.105
X2.775Y-3.935
X2.78Y-5.105
X2.8Y-2.15
X2.8Y-2.55
X2.8Y-2.6
X2.8Y-2.65
X2.8Y-2.7
X2.8Y-2.75
X2.8Y-3.25
X2.8Y-3.3
X2.8Y-3.35
X2.8Y-3.4
X2.8Y-3.45
X2.805Y-4.085
X2.85Y-2.15
X2.85Y-2.45
X2.85Y-2.5
X2.85Y-2.6
X2.85Y-2.65
X2.85Y-2.7
X2.85Y-2.75
X2.85Y-2.8
X2.85Y-3.25
X2.85Y-3.3
X2.85Y-3.35
X2.85Y-3.4
X2.85Y-3.45
X2.85Y-4.075
X2.85Y-4.12
X2.85Y-4.15
X2.85Y-5.385
X2.875Y-3.04
X2.875Y-3.7
X2.875Y-3.865
X2.8813Y-5.3787
X2.8987Y-5.3613
X2.9Y-2.15
X2.9Y-2.5
X2.9Y-2.55
X2.9Y-2.65
X2.9Y-2.7
X2.9Y-2.75
X2.9Y-2.8
X2.9Y-2.85
X2.9Y-2.9
X2.9Y-3.25
X2.9Y-3.3
X2.9Y-3.35
X2.9Y-3.4
X2.9Y-3.45
X2.9Y-3.5
X2.925Y-2.45
X2.95Y-2.15
X2.95Y-2.2
X2.95Y-2.5
X2.95Y-2.55
X2.95Y-2.6
X2.95Y-2.7
X2.95Y-2.75
X2.95Y-2.8
X2.95Y-2.85
X2.95Y-2.9
X2.95Y-2.95
X2.95Y-3.0
X2.95Y-3.05
X2.95Y-3.1
X2.95Y-3.15
X2.95Y-3.2
X2.95Y-3.55
X2.965Y-3.48
X2.98Y-4.09
X2.994Y-5.064
X3.0Y-2.15
X3.0Y-2.45
X3.0Y-2.5
X3.0Y-2.55
X3.0Y-2.6
X3.0Y-2.65
X3.0Y-2.75
X3.0Y-2.8
X3.0Y-2.85
X3.0Y-2.95
X3.0Y-3.0
X3.0Y-3.05
X3.0Y-3.1
X3.0Y-3.15
X3.0Y-3.55
X3.0Y-3.6
X3.0077Y-4.09
X3.01Y-4.435
X3.025Y-2.9
X3.025Y-3.02
X3.025Y-3.9
X3.025Y-3.96
X3.025Y-4.02
X3.0323Y-4.09
X3.05Y-2.15
X3.05Y-2.2
X3.05Y-2.45
X3.05Y-2.5
X3.05Y-2.55
X3.05Y-3.55
X3.05Y-3.6
X3.05Y-3.65
X3.05Y-3.7
X3.05Y-3.75
X3.05Y-3.8
X3.05Y-3.85
X3.05Y-5.6
X3.06Y-4.09
X3.09Y-3.39
X3.1Y-2.15
X3.1Y-2.5
X3.1Y-2.6
X3.1Y-2.65
X3.1Y-4.1
X3.105Y-3.85
X3.12Y-4.245
X3.145Y-5.125
X3.15Y-2.15
X3.15Y-2.6
X3.15Y-2.65
X3.15Y-3.45
X3.15Y-3.5
X3.15Y-3.55
X3.15Y-3.6
X3.15Y-3.65
X3.15Y-3.8
X3.15Y-4.1
X3.15Y-4.5
X3.155Y-3.25
X3.1563Y-5.1573
X3.16Y-4.965
X3.1649Y-4.8949
X3.165Y-2.765
X3.17Y-2.44
X3.17Y-2.99
X3.17Y-3.045
X3.17Y-3.865
X3.17Y-3.945
X3.17Y-4.01
X3.1735Y-5.1749
X3.18Y-2.86
X3.1977Y-2.44
X3.2Y-2.15
X3.2Y-3.45
X3.2Y-3.5
X3.2Y-3.55
X3.2Y-3.6
X3.2Y-3.65
X3.2Y-4.5
X3.2Y-5.05
X3.2Y-5.1
X3.21Y-5.46
X3.215Y-4.705
X3.2223Y-2.44
X3.23Y-3.74
X3.245Y-4.635
X3.245Y-5.625
X3.25Y-2.15
X3.25Y-2.44
X3.25Y-3.5
X3.25Y-4.5
X3.26Y-3.67
X3.2649Y-2.735
X3.275Y-4.6527
X3.28Y-5.185
X3.2803Y-3.7345
X3.285Y-3.41
X3.2877Y-3.67
X3.29Y-5.445
X3.295Y-2.735
X3.295Y-4.925
X3.3Y-2.15
X3.3Y-2.44
X3.3042Y-3.7436
X3.31Y-3.205
X3.31Y-4.195
X3.3123Y-3.67
X3.3191Y-4.8091
X3.3224Y-2.7359
X3.3277Y-2.44
X3.33Y-3.645
X3.3446Y-4.8087
X3.3477Y-3.7
X3.35Y-2.15
X3.3523Y-2.44
X3.365Y-4.39
X3.37Y-4.81
X3.3723Y-3.7
X3.38Y-2.415
X3.385Y-5.1173
X3.39Y-3.675
X3.39Y-3.73
X3.39Y-4.21
X3.395Y-4.97
X3.3951Y-3.2071
X3.4Y-2.15
X3.4Y-5.0
X3.4147Y-5.1303
X3.4215Y-2.7586
X3.45Y-2.15
X3.45Y-3.31
X3.45Y-4.305
X3.4568Y-4.8786
X3.475Y-4.825
X3.48Y-3.31
X3.485Y-4.945
X3.49Y-5.1952
X3.495Y-2.755
X3.495Y-3.755
X3.495Y-4.8
X3.5Y-2.15
X3.5Y-2.2
X3.5057Y-4.8524
X3.52Y-4.335
X3.54Y-3.745
X3.545Y-2.755
X3.545Y-3.185
X3.55Y-5.1
X3.565Y-4.18
X3.58Y-3.34
X3.58Y-4.335
X3.585Y-2.465
X3.585Y-2.645
X3.59Y-3.465
X3.59Y-3.655
X3.5962Y-5.1952
X3.6Y-2.3
X3.6Y-5.05
X3.6Y-5.1
X3.625Y-2.81
X3.625Y-4.885
X3.625Y-4.975
X3.63Y-3.8
X3.635Y-2.845
X3.635Y-2.905
X3.635Y-2.9642
X3.635Y-3.085
X3.635Y-4.09
X3.64Y-3.845
X3.64Y-3.88
X3.64Y-3.9642
X3.64Y-4.145
X3.64Y-3.1101
X3.65Y-2.465
X3.65Y-4.32
X3.65Y-5.0
X3.65Y-5.05
X3.65Y-5.1
X3.655Y-3.46
X3.66Y-2.98
X3.66Y-3.985
X3.6777Y-4.32
X3.69Y-2.76
X3.695Y-3.76
X3.7Y-2.1
X3.7Y-2.3
X3.7Y-5.1
X3.7023Y-4.32
X3.72Y-2.735
X3.725Y-3.735
X3.73Y-4.32
X3.75Y-5.1
X3.75Y-5.1952
X3.76Y-4.3
X3.77Y-3.67
X3.775Y-2.515
X3.78Y-4.14
X3.7877Y-4.3
X3.795Y-3.69
X3.795Y-3.8
X3.795Y-3.9
X3.8013Y-4.1613
X3.805Y-2.75
X3.8123Y-4.3
X3.8187Y-4.1787
X3.825Y-4.62
X3.825Y-4.7
X3.825Y-4.78
X3.825Y-4.86
X3.825Y-4.94
X3.825Y-5.02
X3.84Y-4.2
X3.84Y-4.3
X3.85Y-5.05
X3.85Y-5.1
X3.8593Y-5.185
X3.9Y-2.1
X3.9Y-2.3
X3.95Y-2.1
X3.95Y-2.15
X3.95Y-2.2
X3.95Y-2.25
X3.95Y-2.3
X4.0Y-2.1
X4.0Y-2.15
X4.0Y-2.2
X4.0Y-2.25
X4.0Y-2.3
X4.05Y-2.1
X4.05Y-2.15
X4.05Y-2.2
X4.05Y-2.25
X4.05Y-2.3
X4.1Y-2.1
X4.1Y-2.15
X4.1Y-2.2
X4.1Y-2.25
X4.1Y-2.3
X4.1Y-2.65
X4.1Y-4.95
X4.1052Y-5.1952
X4.15Y-2.1
X4.15Y-2.15
X4.15Y-2.2
X4.15Y-2.25
X4.15Y-2.3
X4.15Y-3.0
X4.15Y-3.05
X4.15Y-3.15
X4.15Y-3.55
X4.15Y-3.7
X4.15Y-3.75
X4.15Y-3.85
X4.15Y-4.1
X4.15Y-4.15
X4.15Y-4.2
X4.15Y-4.25
X4.15Y-4.95
X4.15Y-5.0
X4.15Y-5.05
X4.15Y-5.1
X4.1535Y-4.9016
X4.2Y-2.1
X4.2Y-2.15
X4.2Y-2.2
X4.2Y-2.25
X4.2Y-2.3
X4.2Y-2.65
X4.2Y-2.7
X4.2Y-2.75
X4.2Y-2.8
X4.2Y-2.85
X4.2Y-3.0
X4.2Y-3.05
X4.2Y-3.15
X4.2Y-3.65
X4.2Y-3.7
X4.2Y-3.75
X4.2Y-3.85
X4.2Y-4.1
X4.2Y-4.15
X4.2Y-4.2
X4.2Y-4.25
X4.2Y-4.3
X4.2013Y-5.4113
X4.2187Y-5.4287
X4.235Y-4.74
X4.235Y-4.77
X4.235Y-4.805
X4.24Y-4.53
X4.24Y-4.56
X4.24Y-4.59
X4.245Y-5.415
X4.245Y-5.445
X4.2451Y-3.4951
X4.25Y-2.1
X4.25Y-2.15
X4.25Y-2.2
X4.25Y-2.25
X4.25Y-2.3
X4.25Y-2.65
X4.25Y-2.7
X4.25Y-2.75
X4.25Y-2.8
X4.25Y-2.85
X4.25Y-2.9
X4.25Y-2.95
X4.25Y-3.0
X4.25Y-3.05
X4.25Y-3.15
X4.25Y-4.25
X4.25Y-4.3
X4.2505Y-5.0932
X4.275Y-3.25
X4.275Y-3.45
X4.2913Y-4.9016
X4.2994Y-5.2225
X4.3Y-2.1
X4.3Y-2.15
X4.3Y-2.2
X4.3Y-2.25
X4.3Y-2.3
X4.3Y-2.65
X4.3Y-2.7
X4.3Y-2.75
X4.3Y-3.15
X4.3Y-3.3
X4.3Y-4.25
X4.3Y-4.3
X4.3Y-4.35
X4.3Y-4.6
X4.3Y-4.95
X4.3043Y-3.3707
X4.31Y-5.445
X4.315Y-2.805
X4.3161Y-3.4089
X4.3179Y-3.4898
X4.3207Y-3.4524
X4.34Y-5.17
X4.3499Y-2.805
X4.35Y-2.1
X4.35Y-2.15
X4.35Y-2.2
X4.35Y-2.25
X4.35Y-2.3
X4.35Y-2.65
X4.35Y-2.7
X4.35Y-3.3
X4.35Y-3.35
X4.35Y-3.6
X4.35Y-3.65
X4.35Y-3.7
X4.35Y-3.9
X4.35Y-3.95
X4.35Y-4.0
X4.35Y-4.05
X4.35Y-4.1
X4.35Y-4.15
X4.35Y-4.2
X4.35Y-4.25
X4.35Y-4.3
X4.35Y-4.35
X4.35Y-4.4
X4.35Y-4.9
X4.3534Y-5.2657
X4.3627Y-3.1193
X4.3676Y-3.0243
X4.3681Y-3.5228
X4.37Y-5.17
X4.3721Y-5.2818
X4.375Y-2.83
X4.3863Y-3.0
X4.3877Y-3.0737
X4.4Y-2.1
X4.4Y-2.3
X4.4Y-2.65
X4.4Y-2.7
X4.4Y-2.85
X4.4Y-2.9
X4.4Y-2.95
X4.4Y-4.25
X4.4Y-4.3
X4.4Y-4.35
X4.4Y-4.4
X4.4Y-5.15
X4.45Y-2.65
X4.45Y-2.7
X4.45Y-2.95
X4.45Y-4.25
X4.45Y-4.3
X4.45Y-4.35
X4.45Y-4.4
X4.45Y-5.15
X4.465Y-3.63
X4.465Y-3.705
X4.465Y-3.74
X4.465Y-3.78
X4.47Y-3.84
X4.47Y-3.868
X4.47Y-3.8926
X4.47Y-3.92
X4.47Y-3.96
X4.47Y-3.9861
X4.47Y-4.0107
X4.47Y-4.04
X4.47Y-4.07
X4.47Y-4.1042
X4.47Y-4.1288
X4.47Y-4.16
X4.47Y-4.71
X4.47Y-4.7381
X4.47Y-4.7627
X4.47Y-4.79
X4.5Y-2.65
X4.5Y-3.1
X4.5Y-3.15
X4.5Y-3.2
X4.5Y-3.25
X4.5Y-3.3
X4.5Y-3.35
X4.5Y-3.45
X4.5Y-4.2
X4.5Y-4.25
X4.5Y-4.3
X4.5Y-4.35
X4.5Y-4.4
X4.5Y-4.6
X4.5Y-5.0
X4.53Y-5.44
X4.55Y-2.85
X4.55Y-2.9
X4.55Y-3.15
X4.55Y-3.2
X4.55Y-3.25
X4.55Y-3.35
X4.55Y-3.45
X4.55Y-4.4
X4.55Y-4.6
X4.5543Y-2.7543
X4.555Y-2.675
X4.555Y-2.705
X4.56Y-5.06
X4.56Y-5.1
X4.565Y-4.945
X4.565Y-4.975
X4.568Y-2.778
X4.5693Y-5.1543
X4.57Y-3.115
X4.57Y-3.28
X4.6Y-2.1
X4.6Y-2.3
X4.6Y-3.2
X4.605Y-5.2533
X4.65Y-3.2
X4.68Y-5.69
X4.7Y-2.15
X4.7Y-2.95
X4.7Y-3.0
X4.7Y-3.05
X4.7Y-3.2
X4.7Y-3.4
X4.7Y-3.5
X4.7Y-3.65
X4.7Y-3.7
X4.7Y-3.75
X4.7Y-4.15
X4.7Y-4.22
X4.7Y-4.3
X4.71Y-2.64
X4.71Y-2.73
X4.71Y-2.76
X4.71Y-2.82
X4.725Y-5.275
X4.75Y-2.65
X4.75Y-3.4
X4.75Y-3.5
X4.75Y-3.65
X4.75Y-3.7
X4.75Y-3.75
X4.75Y-4.45
X4.75Y-5.15
X4.76Y-5.03
X4.76Y-5.57
X4.765Y-5.275
X4.775Y-2.725
X4.8Y-2.15
X4.8Y-2.65
X4.8Y-2.7
X4.8Y-4.15
X4.8Y-4.1777
X4.8Y-4.2023
X4.8Y-4.23
X4.8Y-4.2577
X4.8Y-4.2823
X4.8Y-4.31
X4.8Y-4.3377
X4.8Y-4.3623
X4.8Y-4.39
X4.8Y-4.4177
X4.8Y-4.4423
X4.8Y-4.47
X4.8Y-5.15
X4.805Y-5.275
X4.825Y-2.85
X4.825Y-5.425
X4.8257Y-3.3257
X4.831Y-3.3723
X4.835Y-5.57
X4.84Y-5.03
X4.8498Y-4.7291
X4.85Y-2.15
X4.85Y-2.65
X4.85Y-2.7
X4.85Y-2.75
X4.85Y-2.8
X4.85Y-2.925
X4.85Y-3.0
X4.85Y-3.05
X4.85Y-3.1
X4.85Y-3.15
X4.85Y-3.2
X4.85Y-3.25
X4.85Y-3.3
X4.85Y-5.15
X4.85Y-5.275
X4.8501Y-4.7537
X4.8515Y-4.7046
X4.8527Y-3.475
X4.8565Y-4.6041
X4.8579Y-4.6396
X4.86Y-4.675
X4.8635Y-3.575
X4.87Y-2.415
X4.87Y-2.45
X4.8744Y-3.6
X4.8777Y-4.5864
X4.8824Y-4.6218
X4.885Y-2.64
X4.885Y-2.7
X4.885Y-3.5
X4.885Y-3.545
X4.8852Y-3.625
X4.8852Y-3.77
X4.89Y-4.94
X4.89Y-5.01
X4.8907Y-4.6573
X4.895Y-5.275
X4.896Y-3.68
X4.896Y-3.71
X4.9Y-2.15
X4.9Y-2.75
X4.9Y-2.8
X4.9Y-2.85
X4.9Y-2.9
X4.9Y-2.95
X4.9Y-3.0
X4.9Y-3.05
X4.9Y-3.15
X4.9Y-3.2
X4.9Y-3.25
X4.9Y-3.35
X4.9Y-3.4
X4.9Y-3.45
X4.91Y-2.415
X4.91Y-2.45
X4.95Y-2.15
X4.95Y-3.2
X4.95Y-5.45
X4.95Y-5.5
X4.95Y-5.55
X4.95Y-5.6
X4.95Y-5.65
X4.98Y-2.415
X4.98Y-2.45
X5.0Y-2.15
X5.0Y-3.2
X5.0Y-5.45
X5.0Y-5.5
X5.0Y-5.55
X5.0Y-5.6
X5.0Y-5.65
X5.02Y-2.415
X5.02Y-2.45
X5.025Y-4.51
X5.025Y-4.545
X5.03Y-3.125
X5.03Y-3.28
X5.03Y-3.56
X5.03Y-3.62
X5.03Y-3.68
X5.03Y-4.96
X5.03Y-4.985
X5.03Y-5.035
X5.03Y-5.095
X5.03Y-5.16
X5.03Y-5.22
X5.035Y-2.7
X5.045Y-4.53
X5.05Y-2.15
X5.05Y-3.0
X5.05Y-3.05
X5.05Y-3.1
X5.05Y-3.2
X5.05Y-3.25
X5.05Y-3.45
X5.05Y-3.5
X5.05Y-4.8
X5.05Y-5.45
X5.05Y-5.5
X5.05Y-5.55
X5.05Y-5.6
X5.05Y-5.65
X5.055Y-3.755
X5.055Y-3.785
X5.065Y-4.51
X5.065Y-4.545
X5.075Y-4.365
X5.08Y-4.8878
X5.0898Y-4.5519
X5.09Y-3.85
X5.09Y-3.8777
X5.09Y-3.9023
X5.09Y-3.93
X5.09Y-3.9704
X5.09Y-3.995
X5.09Y-4.02
X5.09Y-4.13
X5.09Y-4.1577
X5.09Y-4.1823
X5.09Y-4.21
X5.095Y-2.92
X5.095Y-2.97
X5.095Y-2.77
X5.0955Y-2.8145
X5.1Y-2.15
X5.1Y-5.45
X5.1Y-5.5
X5.1Y-5.55
X5.1Y-5.6
X5.1Y-5.65
X5.15Y-2.15
X5.15Y-2.77
X5.175Y-3.025
X5.18Y-2.82
X5.1921Y-2.9978
X5.199Y-4.7317
X5.2Y-2.15
X5.2Y-4.8
X5.2Y-5.0
X5.2Y-5.05
X5.2Y-5.1
X5.2Y-5.5
X5.2Y-5.55
X5.2Y-5.6
X5.2Y-5.65
X5.2002Y-4.7563
X5.2044Y-4.7077
X5.205Y-2.7
X5.22Y-3.825
X5.25Y-2.15
X5.25Y-4.75
X5.25Y-4.8
X5.25Y-5.05
X5.25Y-5.1
X5.25Y-5.5
X5.25Y-5.55
X5.25Y-5.6
X5.25Y-5.65
X5.26Y-2.585
X5.26Y-2.615
X5.285Y-3.34
X5.295Y-2.585
X5.295Y-2.615
X5.3Y-2.15
X5.3Y-4.75
X5.3Y-4.8
X5.3Y-4.9
X5.3Y-5.1
X5.3Y-5.5
X5.3Y-5.55
X5.3Y-5.6
X5.3Y-5.65
X5.31Y-4.485
X5.35Y-2.15
X5.35Y-4.75
X5.35Y-4.8
X5.35Y-4.9
X5.35Y-4.95
X5.35Y-5.5
X5.35Y-5.55
X5.35Y-5.6
X5.35Y-5.65
X5.37Y-3.255
X5.385Y-4.31
X5.4Y-2.15
X5.4Y-4.8
X5.4Y-4.9
X5.4Y-4.95
X5.4Y-5.0
X5.4Y-5.5
X5.4Y-5.55
X5.4Y-5.6
X5.4Y-5.65
X5.4373Y-4.2308
X5.44Y-3.12
X5.44Y-3.155
X5.45Y-2.15
X5.45Y-4.9
X5.45Y-4.95
X5.45Y-5.0
X5.45Y-5.05
X5.47Y-4.76
X5.47Y-4.785
X5.47Y-4.81
X5.4701Y-4.7348
X5.4727Y-4.614
X5.4728Y-4.7103
X5.4731Y-4.6857
X5.475Y-2.425
X5.475Y-5.475
X5.4787Y-4.64
X5.4935Y-4.6597
X5.5Y-2.15
X5.5Y-4.9
X5.5Y-4.95
X5.5Y-5.0
X5.5Y-5.05
X5.5Y-5.1
X5.525Y-5.475
X5.54Y-3.115
X5.55Y-2.15
X5.55Y-2.425
X5.55Y-3.25
X5.55Y-3.35
X5.55Y-3.5
X5.55Y-3.85
X5.55Y-4.9
X5.55Y-4.95
X5.55Y-5.0
X5.55Y-5.05
X5.55Y-5.1
X5.55Y-3.4
X5.55Y-3.425
X5.555Y-4.05
X5.565Y-3.755
X5.565Y-3.81
X5.575Y-5.475
X5.59Y-3.16
X5.59Y-3.2
X5.59Y-3.695
X5.59Y-3.785
X5.5906Y-4.6654
X5.6Y-2.15
X5.6Y-3.25
X5.6Y-3.35
X5.6Y-3.85
X5.6Y-4.0
X5.6Y-4.05
X5.6Y-4.9
X5.6Y-4.95
X5.6Y-5.0
X5.6Y-5.05
X5.6Y-5.1
X5.61Y-4.515
X5.615Y-3.16
X5.615Y-3.2
X5.615Y-3.31
X5.615Y-3.755
X5.615Y-3.81
X5.615Y-3.915
X5.625Y-2.425
X5.625Y-5.42
X5.625Y-5.65
X5.65Y-2.15
X5.65Y-2.2
X5.65Y-4.0
X5.65Y-4.05
X5.65Y-4.6
X5.65Y-4.9
X5.65Y-4.95
X5.65Y-5.0
X5.65Y-5.05
X5.65Y-5.1
X5.66Y-2.93
X5.6693Y-4.6457
X5.67Y-4.26
X5.6743Y-5.4757
X5.6777Y-3.665
X5.685Y-4.865
X5.7Y-2.15
X5.7Y-2.2
X5.7Y-4.6
X5.7Y-4.9
X5.7Y-4.95
X5.7Y-5.0
X5.7Y-5.05
X5.7Y-5.1
X5.72Y-4.555
X5.725Y-4.725
X5.728Y-3.537
X5.733Y-5.4894
X5.74Y-3.695
X5.745Y-4.12
X5.75Y-2.15
X5.75Y-2.2
X5.75Y-3.35
X5.75Y-3.45
X5.75Y-3.5
X5.75Y-4.05
X5.75Y-4.6
X5.75Y-4.65
X5.75Y-5.0
X5.75Y-5.05
X5.75Y-5.1
X5.77Y-4.355
X5.77Y-4.41
X5.775Y-2.45
X5.775Y-3.15
X5.775Y-3.205
X5.775Y-3.755
X5.775Y-3.81
X5.785Y-4.27
X5.79Y-3.07
X5.79Y-3.25
X5.79Y-3.945
X5.79Y-3.98
X5.795Y-3.18
X5.795Y-3.675
X5.795Y-3.785
X5.795Y-4.39
X5.8Y-2.15
X5.8Y-3.35
X5.8Y-3.45
X5.8Y-3.5
X5.8Y-4.05
X5.8Y-4.5
X5.8Y-4.65
X5.8Y-5.05
X5.8Y-5.1
X5.8Y-5.475
X5.82Y-3.15
X5.82Y-3.205
X5.82Y-3.755
X5.82Y-3.81
X5.82Y-4.355
X5.82Y-4.41
X5.83Y-5.23
X5.83Y-5.45
X5.85Y-2.15
X5.87Y-3.755
X5.875Y-4.765
X5.88Y-3.58
X5.88Y-4.165
X5.9Y-2.15
X5.9Y-5.115
X5.9Y-5.45
X5.9Y-5.5
X5.9Y-5.55
X5.9Y-5.6
X5.9Y-5.65
X5.925Y-3.1
X5.925Y-3.15
X5.925Y-3.2
X5.925Y-3.75
X5.925Y-3.8
X5.925Y-3.85
X5.925Y-4.35
X5.925Y-4.4
X5.925Y-4.45
X5.925Y-4.9
X5.925Y-4.95
X5.925Y-5.0
X5.925Y-5.05
X5.94Y-4.69
X5.95Y-2.15
X5.95Y-5.45
X5.95Y-5.5
X5.95Y-5.55
X5.95Y-5.6
X5.95Y-5.65
X5.965Y-2.975
X5.965Y-3.005
X5.965Y-3.58
X5.965Y-3.61
X5.965Y-4.175
X5.965Y-4.205
X5.965Y-4.77
X5.965Y-4.795
X5.975Y-3.075
X5.975Y-3.125
X5.975Y-3.175
X5.975Y-3.225
X5.975Y-3.275
X5.975Y-3.675
X5.975Y-3.775
X5.975Y-3.825
X5.975Y-3.875
X5.975Y-4.275
X5.975Y-4.375
X5.975Y-4.425
X5.975Y-4.475
X5.975Y-4.875
X5.975Y-4.925
X5.975Y-4.975
X5.975Y-5.025
X5.975Y-5.075
X6.0Y-2.15
X6.0Y-4.69
X6.0Y-5.45
X6.0Y-5.5
X6.0Y-5.55
X6.0Y-5.6
X6.0Y-5.65
X6.01Y-3.06
X6.01Y-3.665
X6.01Y-4.265
X6.01Y-4.86
X6.02Y-3.515
X6.02Y-4.11
X6.05Y-2.15
X6.05Y-5.45
X6.05Y-5.5
X6.05Y-5.55
X6.05Y-5.6
X6.05Y-5.65
X6.06Y-3.06
X6.06Y-3.665
X6.06Y-4.265
X6.06Y-4.69
X6.06Y-4.86
X6.08Y-5.15
X6.08Y-5.2
X6.09Y-2.91
X6.095Y-2.41
X6.1Y-2.15
X6.1Y-5.45
X6.1Y-5.5
X6.1Y-5.55
X6.1Y-5.6
X6.1Y-5.65
X6.11Y-3.665
X6.11Y-4.265
X6.11Y-4.86
X6.12Y-4.69
X6.125Y-5.15
X6.125Y-5.2
X6.14Y-3.15
X6.14Y-3.205
X6.14Y-3.755
X6.14Y-3.81
X6.14Y-4.355
X6.14Y-4.415
X6.15Y-2.15
X6.15Y-5.65
X6.155Y-3.18
X6.16Y-2.42
X6.16Y-3.785
X6.16Y-4.385
X6.175Y-5.15
X6.175Y-5.2
X6.18Y-2.97
X6.18Y-3.005
X6.18Y-3.055
X6.18Y-3.11
X6.18Y-3.15
X6.18Y-3.205
X6.18Y-3.25
X6.18Y-3.575
X6.18Y-3.61
X6.18Y-3.66
X6.18Y-3.715
X6.18Y-3.755
X6.18Y-3.81
X6.18Y-4.17
X6.18Y-4.205
X6.18Y-4.255
X6.18Y-4.765
X6.18Y-4.8
X6.18Y-4.84
X6.18Y-4.94
X6.18Y-5.0
X6.18Y-5.06
X6.185Y-4.315
X6.185Y-4.355
X6.185Y-4.41
X6.1877Y-2.42
X6.2Y-2.15
X6.2Y-2.2
X6.2Y-2.25
X6.2Y-2.3
X6.2Y-5.65
X6.2123Y-2.42
X6.24Y-2.42
X6.24Y-2.97
X6.24Y-3.005
X6.24Y-3.055
X6.24Y-3.575
X6.24Y-3.61
X6.24Y-3.66
X6.24Y-4.17
X6.24Y-4.205
X6.24Y-4.255
X6.24Y-4.765
X6.24Y-4.8
X6.24Y-4.84
X6.24Y-4.94
X6.24Y-5.0
X6.24Y-5.06
X6.25Y-2.3
X6.25Y-2.39
X6.2777Y-2.39
X6.29Y-2.76
X6.29Y-3.335
X6.29Y-3.37
X6.29Y-3.93
X6.29Y-3.97
X6.3Y-2.3
X6.3023Y-2.39
X6.33Y-2.39
X6.34Y-2.42
X6.35Y-2.15
X6.35Y-2.2
X6.35Y-2.25
X6.35Y-2.3
X6.36Y-2.76
X6.36Y-3.335
X6.36Y-3.37
X6.36Y-3.93
X6.36Y-3.97
X6.3677Y-2.42
X6.38Y-5.4
X6.38Y-5.44
X6.3923Y-2.42
X6.42Y-2.39
X6.42Y-2.42
X6.42Y-5.36
X6.42Y-5.4
X6.42Y-5.44
X6.43Y-2.76
X6.43Y-3.335
X6.43Y-3.37
X6.43Y-3.93
X6.43Y-3.97
X6.4477Y-2.39
X6.46Y-5.31
X6.46Y-5.36
X6.46Y-5.4
X6.46Y-5.44
X6.4723Y-2.39
X6.4842Y-2.7187
X6.5Y-2.39
X6.5Y-2.5213
X6.5Y-3.335
X6.5Y-3.37
X6.5Y-3.93
X6.5Y-3.97
X6.505Y-2.76
X6.515Y-5.605
X6.54Y-5.31
X6.54Y-5.575
X6.55Y-2.4
X6.55Y-2.45
X6.565Y-3.035
X6.565Y-5.605
X6.585Y-5.31
X6.585Y-5.575
X6.6Y-2.4
X6.6Y-2.45
X6.6Y-3.1
X6.6Y-3.15
X6.6Y-3.2
X6.6Y-3.25
X6.6Y-3.3
X6.6Y-3.35
X6.6Y-3.4
X6.6Y-3.45
X6.6Y-3.5
X6.6Y-3.55
X6.6Y-3.65
X6.6Y-3.75
X6.6Y-3.8
X6.6Y-3.85
X6.6Y-3.9
X6.6Y-3.95
X6.6Y-4.0
X6.6Y-4.05
X6.6Y-4.1
X6.6Y-4.15
X6.6Y-4.2
X6.6Y-4.25
X6.6Y-4.3
X6.6Y-4.35
X6.61Y-5.605
X6.615Y-2.48
X6.62Y-2.6
X6.62Y-2.66
X6.62Y-2.72
X6.625Y-2.54
X6.63Y-5.31
X6.63Y-5.575
X6.64Y-2.76
X6.65Y-2.4
X6.65Y-2.45
X6.65Y-3.1
X6.65Y-3.15
X6.65Y-3.2
X6.65Y-3.25
X6.65Y-3.3
X6.65Y-3.35
X6.65Y-3.4
X6.65Y-3.45
X6.65Y-3.5
X6.65Y-3.55
X6.65Y-3.65
X6.65Y-3.75
X6.65Y-3.8
X6.65Y-3.85
X6.65Y-3.9
X6.65Y-3.95
X6.65Y-4.2
X6.65Y-4.25
X6.65Y-4.3
X6.65Y-5.605
X6.67Y-5.31
X6.67Y-5.35
X6.67Y-5.575
X6.675Y-4.675
X6.68Y-4.16
X6.685Y-2.73
X6.685Y-3.695
X6.685Y-3.73
X6.69Y-5.33
X6.69Y-5.37
X6.7Y-2.15
X6.7Y-2.2
X6.7Y-2.25
X6.7Y-2.3
X6.7Y-2.35
X6.7Y-2.4
X6.7Y-2.45
X6.7Y-2.95
X6.7Y-3.0
X6.7Y-3.05
X6.7Y-3.1
X6.7Y-3.15
X6.7Y-3.2
X6.7Y-3.25
X6.7Y-3.3
X6.7Y-3.35
X6.7Y-3.4
X6.7Y-3.45
X6.7Y-3.5
X6.7Y-3.8
X6.7Y-3.85
X6.7Y-3.9
X6.7Y-3.95
X6.7Y-4.2
X6.7Y-4.25
X6.73Y-2.765
X6.7418Y-2.717
X6.7429Y-2.6561
X6.7431Y-2.5959
X6.7437Y-2.5356
X6.7453Y-2.7414
X6.75Y-2.15
X6.75Y-2.2
X6.75Y-2.25
X6.75Y-2.3
X6.75Y-2.35
X6.75Y-2.4
X6.75Y-2.45
X6.75Y-2.95
X6.75Y-3.0
X6.75Y-3.05
X6.75Y-3.1
X6.75Y-3.15
X6.75Y-3.2
X6.75Y-3.25
X6.75Y-3.3
X6.75Y-3.35
X6.75Y-3.4
X6.75Y-3.45
X6.75Y-4.15
X6.75Y-5.27
X6.7551Y-2.8049
X6.7846Y-2.8004
X6.7852Y-2.5089
X6.7875Y-2.5656
X6.7878Y-2.6246
X6.79Y-5.27
X6.7934Y-2.6801
X6.8Y-2.15
X6.8Y-2.2
X6.8Y-2.25
X6.8Y-3.1
X6.8Y-3.15
X6.8Y-3.2
X6.8004Y-2.7816
X6.82Y-4.14
X6.825Y-5.27
X6.8454Y-3.521
X6.85Y-2.45
X6.85Y-3.1
X6.85Y-3.15
X6.85Y-3.2
X6.865Y-5.27
X6.875Y-3.515
X6.9Y-2.45
X6.9Y-3.1
X6.9Y-3.15
X6.9Y-3.2
X6.92Y-4.18
X6.925Y-4.7
X6.94Y-3.525
X6.94Y-4.24
X6.95Y-2.45
X6.95Y-2.5
X6.95Y-2.55
X6.95Y-2.6
X6.95Y-2.65
X6.95Y-2.75
X6.95Y-2.8
X6.95Y-2.85
X6.95Y-3.1
X6.95Y-3.15
X6.95Y-3.2
X6.98Y-3.28
X6.985Y-3.375
X6.985Y-3.445
X7.0Y-2.4
X7.0Y-2.45
X7.0Y-2.5
X7.0Y-2.55
X7.0Y-2.6
X7.0Y-2.65
X7.05Y-2.4
X7.05Y-2.45
X7.05Y-2.5
X7.05Y-2.55
X7.05Y-2.6
X7.05Y-2.65
X7.06Y-4.1
X7.075Y-3.625
X7.075Y-3.65
T3
X1.9911Y-5.0417
X2.0145Y-4.9854
X2.0145Y-5.0981
X2.0709Y-4.962
X2.0709Y-5.1215
X2.1272Y-4.9854
X2.1272Y-5.0981
X2.1506Y-5.0417
X3.3508Y-3.9258
X3.3508Y-4.0242
X3.4Y-3.975
X3.4492Y-3.9258
X3.4492Y-4.0242
X7.0447Y-2.15
X7.068Y-2.0936
X7.068Y-2.2064
X7.1244Y-2.0703
X7.1244Y-2.2297
X7.1808Y-2.0936
X7.1808Y-2.2064
X7.2041Y-2.15
X1.7116Y-2.2047
X1.735Y-2.1484
X1.735Y-2.2611
X1.7913Y-2.125
X1.7913Y-2.2844
X1.8477Y-2.1484
X1.8477Y-2.2611
X1.8711Y-2.2047
X3.3508Y-2.9258
X3.3508Y-3.0242
X3.4Y-2.975
X3.4492Y-2.9258
X3.4492Y-3.0242
X3.9203Y-5.0417
X3.9436Y-4.9854
X3.9436Y-5.0981
X4.0Y-4.962
X4.0Y-5.1215
X4.0564Y-4.9854
X4.0564Y-5.0981
X4.0797Y-5.0417
X3.7195Y-2.2047
X3.7428Y-2.1484
X3.7428Y-2.2611
X3.7992Y-2.125
X3.7992Y-2.2844
X3.8556Y-2.1484
X3.8556Y-2.2611
X3.8789Y-2.2047
X3.9203Y-2.7583
X3.9436Y-2.7019
X3.9436Y-2.8146
X4.0Y-2.6785
X4.0Y-2.838
X4.0564Y-2.7019
X4.0564Y-2.8146
X4.0797Y-2.7583
X4.4281Y-2.2047
X4.4515Y-2.1484
X4.4515Y-2.2611
X4.5079Y-2.125
X4.5079Y-2.2844
X4.5642Y-2.1484
X4.5642Y-2.2611
X4.5876Y-2.2047
X7.0447Y-5.65
X7.068Y-5.5936
X7.068Y-5.7064
X7.1244Y-5.5703
X7.1244Y-5.7297
X7.1808Y-5.5936
X7.1808Y-5.7064
X7.2041Y-5.65
X0.9959Y-5.65
X1.0192Y-5.5936
X1.0192Y-5.7064
X1.0756Y-5.5703
X1.0756Y-5.7297
X1.132Y-5.5936
X1.132Y-5.7064
X1.1553Y-5.65
X6.436Y-2.2
X6.4594Y-2.1436
X6.4594Y-2.2564
X6.5157Y-2.1203
X6.5157Y-2.2797
X6.5721Y-2.1436
X6.5721Y-2.2564
X6.5955Y-2.2
X1.9911Y-2.7583
X2.0145Y-2.7019
X2.0145Y-2.8146
X2.0709Y-2.6785
X2.0709Y-2.838
X2.1272Y-2.7019
X2.1272Y-2.8146
X2.1506Y-2.7583
X0.9959Y-2.15
X1.0192Y-2.0936
X1.0192Y-2.2064
X1.0756Y-2.0703
X1.0756Y-2.2297
X1.132Y-2.0936
X1.132Y-2.2064
X1.1553Y-2.15
T4
X1.0Y-1.975
X1.0Y-2.275
X1.0Y-2.375
X1.0Y-2.475
X1.0Y-2.575
X1.0Y-2.675
X1.0Y-2.775
X1.0Y-2.875
X1.0Y-2.975
X1.0Y-3.075
X1.0Y-3.175
X1.0Y-3.275
X1.0Y-3.375
X1.0Y-3.475
X1.0Y-3.575
X1.0Y-3.675
X1.0Y-3.775
X1.0Y-3.875
X1.0Y-3.975
X1.0Y-4.075
X1.0Y-4.175
X1.0Y-4.275
X1.0Y-4.375
X1.0Y-4.475
X1.0Y-4.575
X1.0Y-4.675
X1.0Y-4.775
X1.0Y-4.875
X1.0Y-4.975
X1.0Y-5.075
X1.0Y-5.175
X1.0Y-5.275
X1.0Y-5.475
X1.0Y-5.825
X1.05Y-2.025
X1.05Y-2.325
X1.05Y-2.425
X1.05Y-2.525
X1.05Y-2.625
X1.05Y-2.725
X1.05Y-2.825
X1.05Y-2.925
X1.05Y-3.025
X1.05Y-3.125
X1.05Y-3.225
X1.05Y-3.325
X1.05Y-3.425
X1.05Y-3.525
X1.05Y-3.625
X1.05Y-3.725
X1.05Y-3.825
X1.05Y-3.925
X1.05Y-4.025
X1.05Y-4.125
X1.05Y-4.225
X1.05Y-4.325
X1.05Y-4.425
X1.05Y-4.525
X1.05Y-4.625
X1.05Y-4.725
X1.05Y-4.825
X1.05Y-4.925
X1.05Y-5.025
X1.05Y-5.125
X1.05Y-5.225
X1.05Y-5.525
X1.1Y-1.975
X1.1Y-5.825
X1.15Y-2.025
X1.15Y-5.775
X1.2Y-1.975
X1.2Y-5.825
X1.25Y-2.025
X1.25Y-5.775
X1.3Y-1.975
X1.3Y-5.825
X1.35Y-2.025
X1.35Y-5.775
X1.4Y-1.975
X1.4Y-5.825
X1.45Y-2.025
X1.45Y-5.775
X1.5Y-1.975
X1.5Y-5.825
X1.55Y-2.025
X1.55Y-5.775
X1.6Y-1.975
X1.6Y-5.825
X1.65Y-2.025
X1.65Y-5.775
X1.7Y-1.975
X1.7Y-5.825
X1.75Y-2.025
X1.75Y-5.775
X1.8Y-1.975
X1.8Y-5.825
X1.85Y-2.025
X1.85Y-5.775
X1.9Y-1.975
X1.9Y-5.825
X1.95Y-2.025
X1.95Y-5.775
X2.0Y-1.975
X2.0Y-5.825
X2.05Y-2.025
X2.05Y-5.775
X2.1Y-1.975
X2.1Y-5.825
X2.15Y-2.025
X2.15Y-5.775
X2.2Y-1.975
X2.2Y-5.825
X2.25Y-2.025
X2.25Y-5.775
X2.3Y-1.975
X2.3Y-5.825
X2.35Y-2.025
X2.35Y-5.775
X2.4Y-1.975
X2.4Y-5.825
X2.45Y-2.025
X2.45Y-5.775
X2.5Y-1.975
X2.5Y-5.825
X2.55Y-2.025
X2.55Y-5.775
X2.6Y-1.975
X2.6Y-5.825
X2.65Y-2.025
X2.65Y-5.775
X2.7Y-1.975
X2.7Y-5.825
X2.75Y-2.025
X2.75Y-5.775
X2.8Y-1.975
X2.8Y-5.825
X2.85Y-2.025
X2.85Y-5.775
X2.9Y-1.975
X2.9Y-5.825
X2.95Y-2.025
X2.95Y-5.775
X3.0Y-1.975
X3.0Y-2.2
X3.0Y-5.825
X3.05Y-2.025
X3.05Y-5.775
X3.1Y-1.975
X3.1Y-5.825
X3.15Y-2.025
X3.15Y-5.775
X3.2Y-1.975
X3.2Y-5.825
X3.25Y-2.025
X3.25Y-5.775
X3.3Y-1.975
X3.3Y-5.825
X3.35Y-2.025
X3.35Y-5.775
X3.4Y-1.975
X3.4Y-5.825
X3.45Y-2.025
X3.45Y-5.775
X3.5Y-1.975
X3.5Y-5.825
X3.55Y-2.025
X3.55Y-5.775
X3.6Y-1.975
X3.6Y-5.825
X3.65Y-2.025
X3.65Y-5.775
X3.7Y-1.975
X3.7Y-5.825
X3.75Y-2.025
X3.75Y-5.775
X3.8Y-1.975
X3.8Y-5.825
X3.85Y-2.025
X3.85Y-5.775
X3.9Y-1.975
X3.9Y-5.825
X3.95Y-2.025
X3.95Y-5.775
X4.0Y-1.975
X4.0Y-5.825
X4.05Y-2.025
X4.05Y-5.775
X4.1Y-1.975
X4.1Y-5.825
X4.15Y-2.025
X4.15Y-5.775
X4.2Y-1.975
X4.2Y-5.825
X4.25Y-2.025
X4.25Y-5.775
X4.3Y-1.975
X4.3Y-5.825
X4.35Y-2.025
X4.35Y-5.775
X4.4Y-1.975
X4.4Y-5.825
X4.45Y-2.025
X4.45Y-5.775
X4.5Y-1.975
X4.5Y-5.825
X4.55Y-2.025
X4.55Y-5.775
X4.6Y-1.975
X4.6Y-5.825
X4.65Y-2.025
X4.65Y-5.775
X4.7Y-1.975
X4.7Y-5.825
X4.75Y-2.025
X4.75Y-5.775
X4.8Y-1.975
X4.8Y-5.825
X4.85Y-2.025
X4.85Y-5.775
X4.9Y-1.975
X4.9Y-5.825
X4.95Y-2.025
X4.95Y-5.775
X5.0Y-1.975
X5.0Y-2.35
X5.0Y-5.825
X5.05Y-2.025
X5.05Y-5.775
X5.1Y-1.975
X5.1Y-5.825
X5.15Y-2.025
X5.15Y-5.775
X5.2Y-1.975
X5.2Y-5.825
X5.25Y-2.025
X5.25Y-5.775
X5.3Y-1.975
X5.3Y-5.825
X5.35Y-2.025
X5.35Y-5.775
X5.4Y-1.975
X5.4Y-5.825
X5.45Y-2.025
X5.45Y-5.775
X5.5Y-1.975
X5.5Y-5.825
X5.55Y-2.025
X5.55Y-5.775
X5.6Y-1.975
X5.6Y-5.825
X5.65Y-2.025
X5.65Y-5.775
X5.7Y-1.975
X5.7Y-5.825
X5.75Y-2.025
X5.75Y-5.775
X5.8Y-1.975
X5.8Y-5.825
X5.85Y-2.025
X5.85Y-5.775
X5.9Y-1.975
X5.9Y-5.825
X5.95Y-2.025
X5.95Y-5.775
X6.0Y-1.975
X6.0Y-5.825
X6.05Y-2.025
X6.05Y-5.775
X6.1Y-1.975
X6.1Y-5.825
X6.15Y-2.025
X6.15Y-5.775
X6.2Y-1.975
X6.2Y-5.825
X6.25Y-2.025
X6.25Y-5.775
X6.3Y-1.975
X6.3Y-5.825
X6.35Y-2.025
X6.35Y-5.775
X6.4Y-1.975
X6.4Y-5.5
X6.4Y-5.6
X6.4Y-5.825
X6.45Y-2.025
X6.45Y-5.775
X6.5Y-1.975
X6.5Y-5.825
X6.55Y-2.025
X6.55Y-5.775
X6.6Y-1.975
X6.6Y-5.825
X6.65Y-2.025
X6.65Y-5.775
X6.7Y-1.975
X6.7Y-5.825
X6.75Y-2.025
X6.75Y-5.775
X6.8Y-1.975
X6.8Y-5.825
X6.85Y-2.025
X6.85Y-5.775
X6.9Y-1.975
X6.9Y-5.825
X6.95Y-2.025
X6.95Y-5.775
X7.0Y-1.975
X7.0Y-5.825
X7.05Y-2.025
X7.05Y-5.775
X7.1Y-1.975
X7.1Y-5.825
X7.15Y-2.025
X7.15Y-2.5
X7.15Y-2.7
X7.15Y-2.8
X7.15Y-3.1
X7.15Y-3.3
X7.15Y-3.4
X7.15Y-3.6
X7.15Y-3.7
X7.15Y-3.8
X7.15Y-3.9
X7.15Y-4.0
X7.15Y-4.1
X7.15Y-4.2
X7.15Y-4.3
X7.15Y-4.5
X7.15Y-4.6
X7.15Y-4.7
X7.15Y-4.9
X7.15Y-5.0
X7.15Y-5.1
X7.15Y-5.3
X7.15Y-5.5
X7.15Y-5.775
X7.2Y-1.975
X7.2Y-2.275
X7.2Y-2.375
X7.2Y-2.45
X7.2Y-2.75
X7.2Y-2.85
X7.2Y-2.95
X7.2Y-3.05
X7.2Y-3.15
X7.2Y-3.25
X7.2Y-3.35
X7.2Y-3.55
X7.2Y-3.65
X7.2Y-3.75
X7.2Y-3.85
X7.2Y-3.95
X7.2Y-4.05
X7.2Y-4.15
X7.2Y-4.25
X7.2Y-4.35
X7.2Y-4.45
X7.2Y-4.55
X7.2Y-4.65
X7.2Y-4.75
X7.2Y-4.85
X7.2Y-4.95
X7.2Y-5.05
X7.2Y-5.15
X7.2Y-5.25
X7.2Y-5.35
X7.2Y-5.45
X7.2Y-5.825
T5
X2.18Y-2.2
X2.23Y-2.2
X2.28Y-2.2
X2.33Y-2.2
X2.38Y-2.2
X2.43Y-2.2
X2.48Y-2.2
X2.53Y-2.2
X2.58Y-2.2
X2.63Y-2.2
X2.68Y-2.2
X2.73Y-2.2
X2.78Y-2.2
X2.83Y-2.2
X2.88Y-2.2
X3.13Y-2.2
X3.18Y-2.2
X3.23Y-2.2
X3.28Y-2.2
X3.33Y-2.2
X3.38Y-2.2
X3.43Y-2.2
X4.89Y-2.2
X4.94Y-2.2
X4.99Y-2.2
X5.04Y-2.2
X5.09Y-2.2
X5.14Y-2.2
X5.19Y-2.2
X5.24Y-2.2
X5.29Y-2.2
X5.34Y-2.2
X5.39Y-2.2
X5.44Y-2.2
X5.49Y-2.2
X5.54Y-2.2
X5.59Y-2.2
X5.84Y-2.2
X5.89Y-2.2
X5.94Y-2.2
X5.99Y-2.2
X6.04Y-2.2
X6.09Y-2.2
X6.14Y-2.2
T6
X7.0424Y-3.225
X7.0424Y-3.4219
T7
X1.6902Y-3.7002
X1.6902Y-3.7801
X1.6902Y-3.86
X1.6902Y-3.94
X1.6902Y-4.0199
X1.6902Y-4.0998
X1.7866Y-3.6154
X1.7866Y-3.7154
X1.7866Y-4.0846
X1.7866Y-4.1846
X1.6902Y-2.8752
X1.6902Y-2.9551
X1.6902Y-3.035
X1.6902Y-3.115
X1.6902Y-3.1949
X1.6902Y-3.2748
X1.7866Y-2.7904
X1.7866Y-2.8904
X1.7866Y-3.2596
X1.7866Y-3.3596
X1.6902Y-4.5252
X1.6902Y-4.6051
X1.6902Y-4.685
X1.6902Y-4.765
X1.6902Y-4.8449
X1.6902Y-4.9248
X1.7866Y-4.4404
X1.7866Y-4.5404
X1.7866Y-4.9096
X1.7866Y-5.0096
T8
X1.25Y-5.35
X1.2894Y-5.2965
X1.3287Y-5.35
X1.4075Y-5.35
X1.4862Y-5.35
X6.8106Y-4.4929
X6.8894Y-4.4929
X6.9681Y-4.4929
X7.0075Y-4.5465
X7.0469Y-4.4929
X6.8106Y-4.92
X6.8894Y-4.92
X6.9681Y-4.92
X7.0075Y-4.9735
X7.0469Y-4.92
X1.25Y-2.45
X1.2894Y-2.3965
X1.3287Y-2.45
X1.4075Y-2.45
X1.4862Y-2.45
X4.1122Y-5.675
X4.2106Y-5.675
X4.2894Y-5.675
X4.3878Y-5.675
X3.0122Y-5.675
X3.1106Y-5.675
X3.1894Y-5.675
X3.2878Y-5.675
X1.9622Y-5.675
X2.0606Y-5.675
X2.1394Y-5.675
X2.2378Y-5.675
T9
X3.6Y-5.53
X3.7Y-5.53
X3.8Y-5.53
X3.0Y-4.725
X3.0Y-4.825
X3.0Y-4.925
X3.1Y-4.725
X3.1Y-4.825
X3.1Y-4.925
X3.95Y-2.95
X3.95Y-3.05
X3.95Y-3.15
X3.95Y-3.25
X3.95Y-3.35
X3.95Y-3.45
X3.95Y-3.55
X3.95Y-3.65
X3.95Y-3.75
X3.95Y-3.85
X3.95Y-3.95
X3.95Y-4.05
X3.95Y-4.15
X3.95Y-4.25
X3.95Y-4.35
X3.95Y-4.45
X3.95Y-4.55
X3.95Y-4.65
X3.95Y-4.75
X3.95Y-4.85
X4.05Y-2.95
X4.05Y-3.05
X4.05Y-3.15
X4.05Y-3.25
X4.05Y-3.35
X4.05Y-3.45
X4.05Y-3.55
X4.05Y-3.65
X4.05Y-3.75
X4.05Y-3.85
X4.05Y-3.95
X4.05Y-4.05
X4.05Y-4.15
X4.05Y-4.25
X4.05Y-4.35
X4.05Y-4.45
X4.05Y-4.55
X4.05Y-4.65
X4.05Y-4.75
X4.05Y-4.85
T10
X1.2213Y-5.2429
X1.2213Y-5.4571
X1.4969Y-5.2429
X1.4969Y-5.4571
X6.8Y-4.3858
X6.8Y-4.6
X7.0756Y-4.3858
X7.0756Y-4.6
X6.8Y-4.8129
X6.8Y-5.0271
X7.0756Y-4.8129
X7.0756Y-5.0271
X1.2213Y-2.3429
X1.2213Y-2.5571
X1.4969Y-2.3429
X1.4969Y-2.5571
T11
X7.075Y-5.2
X7.075Y-5.4
T12
X1.1248Y-3.5752
X1.1248Y-4.2248
X1.1248Y-2.7502
X1.1248Y-3.3998
X1.1248Y-4.4002
X1.1248Y-5.0498
T13
X3.9862Y-5.5683
X4.5138Y-5.5683
X2.8862Y-5.5683
X3.4138Y-5.5683
X1.8362Y-5.5683
X2.3638Y-5.5683
T14
X7.1244Y-2.15
X1.7913Y-2.2047
X4.0Y-5.0417
X3.7992Y-2.2047
X4.0Y-2.7583
X4.5079Y-2.2047
X7.1244Y-5.65
X1.0756Y-5.65
X6.5157Y-2.2
X2.0709Y-2.7583
X1.0756Y-2.15
X2.0709Y-5.0417
T4
G00X7.1349Y-3.1856
M15
G01X7.1625Y-3.1856
M16
G05
G00X7.1625Y-3.4612
M15
G01X7.1349Y-3.4612
M16
G05
T7
G00X6.8646Y-2.38
M15
G01X6.9354Y-2.38
M16
G05
G00X6.8646Y-2.9509
M15
G01X6.9354Y-2.9509
M16
G05
G00X7.1189Y-2.38
M15
G01X7.1504Y-2.38
M16
G05
G00X7.1189Y-2.9509
M15
G01X7.1504Y-2.9509
M16
G05
T0
M30
