%TF.GenerationSoftware,KiCad,Pcbnew,(5.1.5)-3*%
%TF.CreationDate,2020-11-13T11:58:21+01:00*%
%TF.ProjectId,RpiSecLab,52706953-6563-44c6-9162-2e6b69636164,rev?*%
%TF.SameCoordinates,Original*%
%TF.FileFunction,Copper,L4,Inr*%
%TF.FilePolarity,Positive*%
%FSLAX46Y46*%
G04 Gerber Fmt 4.6, Leading zero omitted, Abs format (unit mm)*
G04 Created by KiCad (PCBNEW (5.1.5)-3) date 2020-11-13 11:58:21*
%MOMM*%
%LPD*%
G04 APERTURE LIST*
%ADD10C,1.100000*%
%ADD11C,0.800000*%
%ADD12C,5.400000*%
%ADD13C,0.500000*%
%ADD14C,1.000000*%
%ADD15R,1.700000X1.700000*%
%ADD16O,1.700000X1.700000*%
%ADD17O,2.300000X1.500000*%
%ADD18O,3.300000X1.500000*%
%ADD19C,1.450000*%
%ADD20O,1.900000X1.200000*%
%ADD21C,1.400000*%
%ADD22C,2.500000*%
%ADD23C,1.500000*%
%ADD24C,2.000000*%
%ADD25O,3.000000X2.000000*%
%ADD26C,3.500000*%
%ADD27R,3.000000X3.000000*%
%ADD28C,3.000000*%
%ADD29C,0.150000*%
%ADD30C,0.500000*%
%ADD31C,0.250000*%
%ADD32C,0.140000*%
G04 APERTURE END LIST*
D10*
X87122000Y-55880000D03*
X85852000Y-55880000D03*
X84582000Y-55880000D03*
X83312000Y-55880000D03*
X82042000Y-55880000D03*
X80772000Y-55880000D03*
X79502000Y-55880000D03*
X73152000Y-55880000D03*
X71882000Y-55880000D03*
X70612000Y-55880000D03*
X69342000Y-55880000D03*
X68072000Y-55880000D03*
X66802000Y-55880000D03*
X65532000Y-55880000D03*
X64262000Y-55880000D03*
X62992000Y-55880000D03*
X61722000Y-55880000D03*
X60452000Y-55880000D03*
X59182000Y-55880000D03*
X57912000Y-55880000D03*
X56642000Y-55880000D03*
X55372000Y-55880000D03*
D11*
X166931891Y-54448109D03*
X165500000Y-53855000D03*
X164068109Y-54448109D03*
X163475000Y-55880000D03*
X164068109Y-57311891D03*
X165500000Y-57905000D03*
X166931891Y-57311891D03*
X167525000Y-55880000D03*
D12*
X165500000Y-55880000D03*
D11*
X115931891Y-54568109D03*
X114500000Y-53975000D03*
X113068109Y-54568109D03*
X112475000Y-56000000D03*
X113068109Y-57431891D03*
X114500000Y-58025000D03*
X115931891Y-57431891D03*
X116525000Y-56000000D03*
D12*
X114500000Y-56000000D03*
D11*
X97931891Y-54568109D03*
X96500000Y-53975000D03*
X95068109Y-54568109D03*
X94475000Y-56000000D03*
X95068109Y-57431891D03*
X96500000Y-58025000D03*
X97931891Y-57431891D03*
X98525000Y-56000000D03*
D12*
X96500000Y-56000000D03*
D11*
X46931891Y-54568109D03*
X45500000Y-53975000D03*
X44068109Y-54568109D03*
X43475000Y-56000000D03*
X44068109Y-57431891D03*
X45500000Y-58025000D03*
X46931891Y-57431891D03*
X47525000Y-56000000D03*
D12*
X45500000Y-56000000D03*
D13*
X64860000Y-76110000D03*
X64860000Y-77440000D03*
X64860000Y-78770000D03*
X64860000Y-80100000D03*
X63530000Y-76110000D03*
X63530000Y-77440000D03*
X63530000Y-78770000D03*
X63530000Y-80100000D03*
X62200000Y-76110000D03*
X62200000Y-77440000D03*
X62200000Y-78770000D03*
X62200000Y-80100000D03*
X60870000Y-76110000D03*
X60870000Y-77440000D03*
X60870000Y-78770000D03*
X60870000Y-80100000D03*
D12*
X27320000Y-54610000D03*
D11*
X29345000Y-54610000D03*
X28751891Y-56041891D03*
X27320000Y-56635000D03*
X25888109Y-56041891D03*
X25295000Y-54610000D03*
X25888109Y-53178109D03*
X27320000Y-52585000D03*
X28751891Y-53178109D03*
D12*
X27320000Y-143510000D03*
D11*
X29345000Y-143510000D03*
X28751891Y-144941891D03*
X27320000Y-145535000D03*
X25888109Y-144941891D03*
X25295000Y-143510000D03*
X25888109Y-142078109D03*
X27320000Y-141485000D03*
X28751891Y-142078109D03*
X182391891Y-53178109D03*
X180960000Y-52585000D03*
X179528109Y-53178109D03*
X178935000Y-54610000D03*
X179528109Y-56041891D03*
X180960000Y-56635000D03*
X182391891Y-56041891D03*
X182985000Y-54610000D03*
D12*
X180960000Y-54610000D03*
X180960000Y-143510000D03*
D11*
X182985000Y-143510000D03*
X182391891Y-144941891D03*
X180960000Y-145535000D03*
X179528109Y-144941891D03*
X178935000Y-143510000D03*
X179528109Y-142078109D03*
X180960000Y-141485000D03*
X182391891Y-142078109D03*
X103031891Y-68628109D03*
X101600000Y-68035000D03*
X100168109Y-68628109D03*
X99575000Y-70060000D03*
X100168109Y-71491891D03*
X101600000Y-72085000D03*
X103031891Y-71491891D03*
X103625000Y-70060000D03*
D12*
X101600000Y-70060000D03*
D11*
X103031891Y-126628109D03*
X101600000Y-126035000D03*
X100168109Y-126628109D03*
X99575000Y-128060000D03*
X100168109Y-129491891D03*
X101600000Y-130085000D03*
X103031891Y-129491891D03*
X103625000Y-128060000D03*
D12*
X101600000Y-128060000D03*
X52600000Y-128060000D03*
D11*
X54625000Y-128060000D03*
X54031891Y-129491891D03*
X52600000Y-130085000D03*
X51168109Y-129491891D03*
X50575000Y-128060000D03*
X51168109Y-126628109D03*
X52600000Y-126035000D03*
X54031891Y-126628109D03*
X54031891Y-68628109D03*
X52600000Y-68035000D03*
X51168109Y-68628109D03*
X50575000Y-70060000D03*
X51168109Y-71491891D03*
X52600000Y-72085000D03*
X54031891Y-71491891D03*
X54625000Y-70060000D03*
D12*
X52600000Y-70060000D03*
D13*
X60870000Y-122010000D03*
X60870000Y-120680000D03*
X60870000Y-119350000D03*
X60870000Y-118020000D03*
X62200000Y-122010000D03*
X62200000Y-120680000D03*
X62200000Y-119350000D03*
X62200000Y-118020000D03*
X63530000Y-122010000D03*
X63530000Y-120680000D03*
X63530000Y-119350000D03*
X63530000Y-118020000D03*
X64860000Y-122010000D03*
X64860000Y-120680000D03*
X64860000Y-119350000D03*
X64860000Y-118020000D03*
X60870000Y-101055000D03*
X60870000Y-99725000D03*
X60870000Y-98395000D03*
X60870000Y-97065000D03*
X62200000Y-101055000D03*
X62200000Y-99725000D03*
X62200000Y-98395000D03*
X62200000Y-97065000D03*
X63530000Y-101055000D03*
X63530000Y-99725000D03*
X63530000Y-98395000D03*
X63530000Y-97065000D03*
X64860000Y-101055000D03*
X64860000Y-99725000D03*
X64860000Y-98395000D03*
X64860000Y-97065000D03*
D14*
X86360000Y-75565000D03*
X87610000Y-76815000D03*
X85110000Y-76815000D03*
X87610000Y-74315000D03*
X85110000Y-74315000D03*
X85110000Y-99715000D03*
X87610000Y-99715000D03*
X85110000Y-102215000D03*
X87610000Y-102215000D03*
X86360000Y-100965000D03*
D15*
X100330000Y-74930000D03*
D16*
X102870000Y-74930000D03*
X100330000Y-77470000D03*
X102870000Y-77470000D03*
X100330000Y-80010000D03*
X102870000Y-80010000D03*
X100330000Y-82550000D03*
X102870000Y-82550000D03*
X100330000Y-85090000D03*
X102870000Y-85090000D03*
X100330000Y-87630000D03*
X102870000Y-87630000D03*
X100330000Y-90170000D03*
X102870000Y-90170000D03*
X100330000Y-92710000D03*
X102870000Y-92710000D03*
X100330000Y-95250000D03*
X102870000Y-95250000D03*
X100330000Y-97790000D03*
X102870000Y-97790000D03*
X100330000Y-100330000D03*
X102870000Y-100330000D03*
X100330000Y-102870000D03*
X102870000Y-102870000D03*
X100330000Y-105410000D03*
X102870000Y-105410000D03*
X100330000Y-107950000D03*
X102870000Y-107950000D03*
X100330000Y-110490000D03*
X102870000Y-110490000D03*
X100330000Y-113030000D03*
X102870000Y-113030000D03*
X100330000Y-115570000D03*
X102870000Y-115570000D03*
X100330000Y-118110000D03*
X102870000Y-118110000D03*
X100330000Y-120650000D03*
X102870000Y-120650000D03*
X100330000Y-123190000D03*
X102870000Y-123190000D03*
D17*
X181220000Y-60452000D03*
X181220000Y-74952000D03*
D18*
X175260000Y-60452000D03*
X175260000Y-74952000D03*
D19*
X178877500Y-86915000D03*
X178877500Y-81915000D03*
D20*
X181577500Y-87915000D03*
X181577500Y-80915000D03*
D15*
X76200000Y-120015000D03*
D16*
X78740000Y-120015000D03*
X76200000Y-122555000D03*
X78740000Y-122555000D03*
X76200000Y-125095000D03*
X78740000Y-125095000D03*
D15*
X91440000Y-140462000D03*
D16*
X93980000Y-140462000D03*
X96520000Y-140462000D03*
D21*
X45380000Y-70875000D03*
X45380000Y-73415000D03*
X45380000Y-85335000D03*
X45380000Y-82795000D03*
X42930000Y-83180000D03*
X42930000Y-81150000D03*
X42930000Y-79120000D03*
X42930000Y-73030000D03*
X42930000Y-75060000D03*
X42930000Y-77090000D03*
D22*
X28570000Y-86355000D03*
X28570000Y-69855000D03*
X28570000Y-111765000D03*
X28570000Y-128265000D03*
D21*
X42930000Y-119000000D03*
X42930000Y-116970000D03*
X42930000Y-114940000D03*
X42930000Y-121030000D03*
X42930000Y-123060000D03*
X42930000Y-125090000D03*
X45380000Y-124705000D03*
X45380000Y-127245000D03*
X45380000Y-115325000D03*
X45380000Y-112785000D03*
D22*
X28570000Y-90810000D03*
X28570000Y-107310000D03*
D21*
X42930000Y-98045000D03*
X42930000Y-96015000D03*
X42930000Y-93985000D03*
X42930000Y-100075000D03*
X42930000Y-102105000D03*
X42930000Y-104135000D03*
X45380000Y-103750000D03*
X45380000Y-106290000D03*
X45380000Y-94370000D03*
X45380000Y-91830000D03*
D23*
X31750000Y-135890000D03*
X33750000Y-135890000D03*
X35750000Y-135890000D03*
X37750000Y-135890000D03*
D21*
X32750000Y-134530000D03*
D24*
X31020000Y-133170000D03*
D25*
X31020000Y-138610000D03*
X38020000Y-133170000D03*
X38020000Y-138610000D03*
X38020000Y-64950000D03*
X38020000Y-59510000D03*
X31020000Y-64950000D03*
D24*
X31020000Y-59510000D03*
D21*
X32750000Y-60870000D03*
D23*
X37750000Y-62230000D03*
X35750000Y-62230000D03*
X33750000Y-62230000D03*
X31750000Y-62230000D03*
D25*
X172720000Y-122248000D03*
X172720000Y-127688000D03*
X179720000Y-122248000D03*
D24*
X179720000Y-127688000D03*
D21*
X177990000Y-126328000D03*
D23*
X172990000Y-124968000D03*
X174990000Y-124968000D03*
X176990000Y-124968000D03*
X178990000Y-124968000D03*
X178990000Y-114120000D03*
X176990000Y-114120000D03*
X174990000Y-114120000D03*
X172990000Y-114120000D03*
D21*
X177990000Y-115480000D03*
D24*
X179720000Y-116840000D03*
D25*
X179720000Y-111400000D03*
X172720000Y-116840000D03*
X172720000Y-111400000D03*
D10*
X124206000Y-55880000D03*
X125476000Y-55880000D03*
X126746000Y-55880000D03*
X128016000Y-55880000D03*
X129286000Y-55880000D03*
X130556000Y-55880000D03*
X131826000Y-55880000D03*
X133096000Y-55880000D03*
X134366000Y-55880000D03*
X135636000Y-55880000D03*
X136906000Y-55880000D03*
X138176000Y-55880000D03*
X139446000Y-55880000D03*
X140716000Y-55880000D03*
X141986000Y-55880000D03*
X148336000Y-55880000D03*
X149606000Y-55880000D03*
X150876000Y-55880000D03*
X152146000Y-55880000D03*
X153416000Y-55880000D03*
X154686000Y-55880000D03*
X155956000Y-55880000D03*
D26*
X60040000Y-141435000D03*
X46640000Y-141435000D03*
D23*
X49840000Y-144145000D03*
X52340000Y-144145000D03*
X54340000Y-144145000D03*
X56840000Y-144145000D03*
X83510000Y-144145000D03*
X81010000Y-144145000D03*
X79010000Y-144145000D03*
X76510000Y-144145000D03*
D26*
X73310000Y-141435000D03*
X86710000Y-141435000D03*
X114650000Y-141435000D03*
X101250000Y-141435000D03*
D23*
X104450000Y-144145000D03*
X106950000Y-144145000D03*
X108950000Y-144145000D03*
X111450000Y-144145000D03*
D27*
X179705000Y-137160000D03*
D28*
X179705000Y-132080000D03*
D13*
X156972000Y-125476000D03*
X158496000Y-125476000D03*
X156972000Y-127000000D03*
X158496000Y-127000000D03*
X156972000Y-128524000D03*
X158496000Y-128524000D03*
X165100000Y-99822000D03*
X163322000Y-99822000D03*
X161544000Y-99822000D03*
X159766000Y-99822000D03*
X159766000Y-100838000D03*
X161544000Y-100838000D03*
X163322000Y-100838000D03*
X165100000Y-100838000D03*
X159766000Y-84709000D03*
X161544000Y-84709000D03*
X163322000Y-84709000D03*
X165100000Y-84709000D03*
X165100000Y-85598000D03*
X163322000Y-85598000D03*
X161544000Y-85598000D03*
X159766000Y-85598000D03*
X163322000Y-70104000D03*
X161544000Y-70104000D03*
X159766000Y-70104000D03*
X120015000Y-133985000D03*
X121031000Y-133985000D03*
X122047000Y-133985000D03*
X123190000Y-133985000D03*
X124333000Y-133985000D03*
X127762000Y-131064000D03*
X127762000Y-132588000D03*
X145415000Y-120015000D03*
X120904000Y-141478000D03*
X64643000Y-142494000D03*
X48641000Y-133731000D03*
X116965834Y-133432998D03*
X116059617Y-130918617D03*
X94615000Y-94869000D03*
X96647000Y-69850000D03*
X49784000Y-138430000D03*
X154686000Y-73914000D03*
X152908000Y-89281000D03*
X152908000Y-104394000D03*
X169672000Y-105664000D03*
X166751000Y-77089000D03*
X123190000Y-130810000D03*
X121920000Y-130810000D03*
X120650000Y-130810000D03*
X86106000Y-93345000D03*
X80518000Y-61976000D03*
X82550000Y-61976000D03*
X83820000Y-61976000D03*
X85852000Y-61341000D03*
X121920000Y-107442000D03*
X121920000Y-105410000D03*
X121920000Y-109474000D03*
X121920000Y-111506000D03*
X121920000Y-113538000D03*
X119380000Y-107188000D03*
X119380000Y-109220000D03*
X119380000Y-105410000D03*
X129286000Y-106934000D03*
X129286000Y-104902000D03*
X113538000Y-105664000D03*
X113538000Y-103378000D03*
X129286000Y-102108000D03*
X129286000Y-99822000D03*
X113538000Y-102616000D03*
X113538000Y-100584000D03*
X129286000Y-97790000D03*
X113538000Y-99568000D03*
X113538000Y-97536000D03*
X156464000Y-61468000D03*
X158496000Y-61468000D03*
X158750000Y-60706000D03*
X160782000Y-60706000D03*
X161036000Y-61468000D03*
X163068000Y-61468000D03*
X163068000Y-60706000D03*
X165100000Y-60706000D03*
X84582000Y-92583000D03*
X82804000Y-93218000D03*
X94742000Y-109728000D03*
X92710000Y-109728000D03*
X95504000Y-109220000D03*
X97536000Y-109220000D03*
X97536000Y-106680000D03*
X96012000Y-105156000D03*
X77724000Y-103886000D03*
X75692000Y-103886000D03*
X54610000Y-109220000D03*
X56134000Y-107696000D03*
X56388000Y-109474000D03*
X52578000Y-90932000D03*
X51054000Y-92456000D03*
X49276000Y-90678000D03*
X50546000Y-88900000D03*
X49530000Y-87122000D03*
X46736000Y-86106000D03*
X48260000Y-84582000D03*
X53848000Y-120650000D03*
X56388000Y-118745000D03*
X61468000Y-126619000D03*
X63373000Y-127000000D03*
X66294000Y-132842000D03*
X68326000Y-132842000D03*
X59182000Y-138430000D03*
X60706000Y-136906000D03*
X72390000Y-136779000D03*
X107823000Y-137541000D03*
X107823000Y-138303000D03*
X113538000Y-121666000D03*
X113538000Y-119634000D03*
X55626000Y-98679000D03*
X53848000Y-99568000D03*
X172343580Y-63725989D03*
X172403652Y-65165991D03*
X172410348Y-66665991D03*
X172553173Y-68073375D03*
X168148000Y-69088000D03*
X176276000Y-89535000D03*
X177419000Y-87503000D03*
X177292000Y-83312000D03*
X158496000Y-122936000D03*
X156972000Y-122936000D03*
X158496000Y-108077000D03*
X156972000Y-108077000D03*
X158496000Y-92964000D03*
X156972000Y-92964000D03*
X156972000Y-77597000D03*
X158496000Y-77597000D03*
X52705000Y-82042000D03*
X73025000Y-77216000D03*
X73025000Y-98171000D03*
X69977000Y-126619000D03*
X53594000Y-77724000D03*
X88519000Y-125603000D03*
X92075000Y-124079000D03*
X97155000Y-117348000D03*
X97155000Y-119380000D03*
X97155000Y-121412000D03*
X97155000Y-123444000D03*
X97155000Y-125476000D03*
X97155000Y-127508000D03*
X44450000Y-117094000D03*
X44450000Y-118872000D03*
X44450000Y-121158000D03*
X44450000Y-122936000D03*
X44450000Y-100076000D03*
X44450000Y-101854000D03*
X44450000Y-97917000D03*
X44450000Y-96139000D03*
X44450000Y-81026000D03*
X44450000Y-79248000D03*
X44450000Y-76962000D03*
X44450000Y-75184000D03*
X79248000Y-107823000D03*
X76835000Y-100584000D03*
X138176000Y-79248000D03*
D14*
X127000000Y-59690000D03*
D13*
X80137000Y-82550000D03*
X149098000Y-95377000D03*
X124206000Y-125476000D03*
X124206000Y-127254000D03*
X144018000Y-108204000D03*
X145288000Y-115697000D03*
X144399000Y-123571000D03*
X136398000Y-82677000D03*
X136779000Y-109474000D03*
X122809000Y-141478000D03*
X109474000Y-138303000D03*
X81534000Y-138684000D03*
X83566000Y-138303000D03*
X68453000Y-142494000D03*
X54864000Y-138684000D03*
X56896000Y-138303000D03*
X32004000Y-144272000D03*
X48641000Y-135509000D03*
X31496000Y-53340000D03*
X35687000Y-57912000D03*
X113411000Y-94107000D03*
X92075000Y-71374000D03*
X93726000Y-70104000D03*
X92202000Y-96520000D03*
X93853000Y-95504000D03*
X95758000Y-93218000D03*
X96393000Y-93726000D03*
X124079000Y-68580000D03*
X132207000Y-68580000D03*
X131572000Y-71628000D03*
X61087000Y-113411000D03*
X56134000Y-113538000D03*
X109204510Y-132652445D03*
X144214010Y-93091000D03*
X138106990Y-107461465D03*
X95885000Y-63881000D03*
X94488000Y-69469000D03*
X175895000Y-119380000D03*
X169545000Y-118745000D03*
X60579000Y-71882000D03*
X54991000Y-72771000D03*
X60706000Y-92710000D03*
X54991000Y-93726000D03*
X69850000Y-112776000D03*
X172329807Y-71130965D03*
X42545000Y-141605000D03*
D14*
X76200000Y-55880000D03*
D13*
X83693000Y-125095000D03*
X52705000Y-103505000D03*
X52705000Y-124460000D03*
X151765000Y-93345000D03*
X151765000Y-95885000D03*
X151765000Y-97155000D03*
X151765000Y-98425000D03*
X155194000Y-93091000D03*
X153924000Y-93091000D03*
X152654000Y-93091000D03*
X150495000Y-97790000D03*
X150495000Y-96520000D03*
X150495000Y-95250000D03*
X151765000Y-78105000D03*
X151765000Y-79375000D03*
X151765000Y-80645000D03*
X151765000Y-81915000D03*
X151765000Y-83185000D03*
X150495000Y-81280000D03*
X150495000Y-80010000D03*
X150495000Y-78740000D03*
X152654000Y-77724000D03*
X153924000Y-77724000D03*
X151765000Y-108585000D03*
X151765000Y-111125000D03*
X151765000Y-112395000D03*
X151765000Y-113665000D03*
X150495000Y-113030000D03*
X150495000Y-111760000D03*
X150495000Y-110490000D03*
X152654000Y-108331000D03*
X153924000Y-108331000D03*
X155194000Y-108331000D03*
X151765000Y-123825000D03*
X151765000Y-125095000D03*
X151765000Y-126365000D03*
X151765000Y-127635000D03*
X151765000Y-128905000D03*
X150495000Y-128270000D03*
X150495000Y-127000000D03*
X150495000Y-125730000D03*
X150495000Y-124460000D03*
X152654000Y-123444000D03*
X153924000Y-123444000D03*
X155194000Y-123444000D03*
X41910000Y-64770000D03*
X43180000Y-64770000D03*
X44450000Y-64770000D03*
X44450000Y-66040000D03*
X43180000Y-66040000D03*
X41910000Y-66040000D03*
X39370000Y-68580000D03*
X41910000Y-68580000D03*
X43180000Y-68580000D03*
X44450000Y-68580000D03*
X45720000Y-68580000D03*
X44450000Y-69850000D03*
X43180000Y-69850000D03*
X41910000Y-69850000D03*
X39370000Y-69850000D03*
X44450000Y-72390000D03*
X44450000Y-83820000D03*
X44450000Y-86360000D03*
X43180000Y-86360000D03*
X39370000Y-87630000D03*
X41910000Y-87630000D03*
X43180000Y-87630000D03*
X44450000Y-87630000D03*
X45720000Y-87630000D03*
X39370000Y-88900000D03*
X41910000Y-88900000D03*
X43180000Y-88900000D03*
X44450000Y-88900000D03*
X45720000Y-88900000D03*
X45720000Y-90170000D03*
X44450000Y-90170000D03*
X43180000Y-90170000D03*
X41910000Y-90170000D03*
X39370000Y-90170000D03*
X44450000Y-92710000D03*
X41910000Y-92710000D03*
X39370000Y-107950000D03*
X41910000Y-107950000D03*
X43180000Y-107950000D03*
X44450000Y-107950000D03*
X45720000Y-107950000D03*
X43180000Y-105410000D03*
X41910000Y-105410000D03*
X44450000Y-105410000D03*
X45720000Y-109220000D03*
X44450000Y-109220000D03*
X43180000Y-109220000D03*
X41910000Y-109220000D03*
X39370000Y-109220000D03*
X39370000Y-110490000D03*
X41910000Y-110490000D03*
X43180000Y-110490000D03*
X44450000Y-110490000D03*
X45720000Y-110490000D03*
X44450000Y-111760000D03*
X43180000Y-111760000D03*
X41910000Y-111760000D03*
X39370000Y-111760000D03*
X44450000Y-114300000D03*
X41910000Y-114300000D03*
X44450000Y-125730000D03*
X44450000Y-129540000D03*
X43180000Y-129540000D03*
X41910000Y-129540000D03*
X39370000Y-129540000D03*
X43180000Y-127000000D03*
X41910000Y-130810000D03*
X41910000Y-132080000D03*
X41910000Y-133350000D03*
X41910000Y-138430000D03*
X43180000Y-140970000D03*
X41910000Y-140970000D03*
X46990000Y-62230000D03*
X48260000Y-62230000D03*
X49530000Y-62230000D03*
X50800000Y-62230000D03*
X52070000Y-62230000D03*
X53340000Y-62230000D03*
X54610000Y-62230000D03*
X55880000Y-62230000D03*
X57150000Y-62230000D03*
X57150000Y-63500000D03*
X55880000Y-63500000D03*
X54610000Y-63500000D03*
X53340000Y-63500000D03*
X52070000Y-63500000D03*
X50800000Y-63500000D03*
X49530000Y-63500000D03*
X48260000Y-63500000D03*
X49530000Y-64770000D03*
X50800000Y-64770000D03*
X52070000Y-64770000D03*
X53340000Y-64770000D03*
X54610000Y-64770000D03*
X55880000Y-64770000D03*
X57150000Y-64770000D03*
X57150000Y-66040000D03*
X55880000Y-66040000D03*
X54610000Y-66040000D03*
X53340000Y-66040000D03*
X52070000Y-66040000D03*
X50800000Y-66040000D03*
X57150000Y-68580000D03*
X58420000Y-68580000D03*
X58420000Y-69850000D03*
X57150000Y-69850000D03*
X55880000Y-68580000D03*
X55880000Y-71120000D03*
X52070000Y-105410000D03*
X53340000Y-105410000D03*
X54610000Y-105410000D03*
X55880000Y-105410000D03*
X57150000Y-105410000D03*
X52070000Y-106680000D03*
X53340000Y-106680000D03*
X53340000Y-107950000D03*
X52070000Y-107950000D03*
X52070000Y-110490000D03*
X53340000Y-110490000D03*
X53340000Y-111760000D03*
X52070000Y-111760000D03*
X52070000Y-113030000D03*
X53340000Y-113030000D03*
X54610000Y-113030000D03*
X54610000Y-114300000D03*
X53340000Y-114300000D03*
X54610000Y-115570000D03*
X50800000Y-132080000D03*
X49530000Y-132080000D03*
X48260000Y-132080000D03*
X48260000Y-130810000D03*
X49530000Y-130810000D03*
X50800000Y-130810000D03*
X54610000Y-130810000D03*
X55880000Y-130810000D03*
X59690000Y-64770000D03*
X59690000Y-66040000D03*
X60960000Y-64770000D03*
X62230000Y-64770000D03*
X63500000Y-64770000D03*
X64770000Y-64770000D03*
X66040000Y-64770000D03*
X67310000Y-64770000D03*
X68580000Y-64770000D03*
X69850000Y-64770000D03*
X71120000Y-64770000D03*
X71120000Y-66040000D03*
X69850000Y-66040000D03*
X68580000Y-66040000D03*
X67310000Y-66040000D03*
X66040000Y-66040000D03*
X64770000Y-66040000D03*
X63500000Y-66040000D03*
X62230000Y-66040000D03*
X60960000Y-66040000D03*
X60960000Y-67310000D03*
X63500000Y-67310000D03*
X64770000Y-67310000D03*
X66040000Y-67310000D03*
X67310000Y-67310000D03*
X68580000Y-67310000D03*
X69850000Y-67310000D03*
X71120000Y-67310000D03*
X72390000Y-67310000D03*
X72390000Y-66040000D03*
X73660000Y-67310000D03*
X74930000Y-68580000D03*
X73660000Y-68580000D03*
X72390000Y-68580000D03*
X71120000Y-68580000D03*
X69850000Y-68580000D03*
X68580000Y-68580000D03*
X67310000Y-68580000D03*
X66040000Y-68580000D03*
X64770000Y-68580000D03*
X64770000Y-69850000D03*
X66040000Y-69850000D03*
X67310000Y-69850000D03*
X68580000Y-69850000D03*
X69850000Y-69850000D03*
X71120000Y-69850000D03*
X72390000Y-69850000D03*
X73660000Y-69850000D03*
X74930000Y-69850000D03*
X76200000Y-69850000D03*
X76200000Y-71120000D03*
X74930000Y-71120000D03*
X73660000Y-71120000D03*
X72390000Y-71120000D03*
X73660000Y-72390000D03*
X73660000Y-73660000D03*
X74930000Y-73660000D03*
X74930000Y-72390000D03*
X76200000Y-72390000D03*
X69850000Y-71120000D03*
X67310000Y-71120000D03*
X66040000Y-71120000D03*
X64770000Y-71120000D03*
X60960000Y-71120000D03*
X60960000Y-69850000D03*
X60960000Y-68580000D03*
X67310000Y-62230000D03*
X68580000Y-62230000D03*
X76200000Y-62230000D03*
X77470000Y-62230000D03*
X77470000Y-63500000D03*
X76200000Y-63500000D03*
X74930000Y-63500000D03*
X73660000Y-63500000D03*
X72390000Y-63500000D03*
X73660000Y-64770000D03*
X74930000Y-64770000D03*
X76200000Y-64770000D03*
X77470000Y-64770000D03*
X76200000Y-66040000D03*
X76200000Y-67310000D03*
X74930000Y-66040000D03*
X74930000Y-74930000D03*
X74930000Y-76200000D03*
X74930000Y-77470000D03*
X76200000Y-77470000D03*
X76200000Y-76200000D03*
X76200000Y-74930000D03*
X74930000Y-78740000D03*
X76200000Y-78740000D03*
X76200000Y-80010000D03*
X74930000Y-80010000D03*
X74930000Y-81280000D03*
X73660000Y-82550000D03*
X72390000Y-82550000D03*
X71120000Y-82550000D03*
X71120000Y-83820000D03*
X72390000Y-83820000D03*
X73660000Y-83820000D03*
X73660000Y-85090000D03*
X73660000Y-86360000D03*
X73660000Y-87630000D03*
X71120000Y-87630000D03*
X71120000Y-86360000D03*
X71120000Y-85090000D03*
X72390000Y-85090000D03*
X72390000Y-86360000D03*
X72390000Y-87630000D03*
X74930000Y-90170000D03*
X73660000Y-88900000D03*
X76200000Y-91440000D03*
X77470000Y-92710000D03*
X77470000Y-91440000D03*
X77470000Y-90170000D03*
X76200000Y-90170000D03*
X80010000Y-90170000D03*
X80010000Y-91440000D03*
X80010000Y-92710000D03*
X81280000Y-92710000D03*
X81280000Y-91440000D03*
X81280000Y-90170000D03*
X80010000Y-88900000D03*
X81280000Y-88900000D03*
X82550000Y-88900000D03*
X81280000Y-87630000D03*
X80010000Y-87630000D03*
X77470000Y-93980000D03*
X77470000Y-95250000D03*
X77470000Y-96520000D03*
X77470000Y-97790000D03*
X80010000Y-96520000D03*
X80010000Y-104140000D03*
X78740000Y-104140000D03*
X81280000Y-114300000D03*
X80010000Y-114300000D03*
X82550000Y-114300000D03*
X81280000Y-128270000D03*
X81280000Y-129540000D03*
X86360000Y-127000000D03*
X77470000Y-142240000D03*
X50800000Y-60960000D03*
X52070000Y-60960000D03*
X53340000Y-60960000D03*
X54610000Y-60960000D03*
X54610000Y-59690000D03*
X53340000Y-59690000D03*
X52070000Y-59690000D03*
X50800000Y-59690000D03*
X49530000Y-60960000D03*
X48260000Y-60960000D03*
X46990000Y-60960000D03*
X45720000Y-60960000D03*
X50800000Y-58420000D03*
X52070000Y-58420000D03*
X53340000Y-58420000D03*
X54610000Y-58420000D03*
X54610000Y-57150000D03*
X53340000Y-57150000D03*
X53340000Y-54610000D03*
X54610000Y-54610000D03*
X55880000Y-54610000D03*
X57150000Y-54610000D03*
X58420000Y-54610000D03*
X59690000Y-54610000D03*
X60960000Y-54610000D03*
X62230000Y-54610000D03*
X63500000Y-54610000D03*
X64770000Y-54610000D03*
X66040000Y-54610000D03*
X67310000Y-54610000D03*
X68580000Y-54610000D03*
X69850000Y-54610000D03*
X71120000Y-54610000D03*
X72390000Y-54610000D03*
X58420000Y-57150000D03*
X59690000Y-57150000D03*
X60960000Y-57150000D03*
X62230000Y-57150000D03*
X58420000Y-58420000D03*
X59690000Y-58420000D03*
X60960000Y-58420000D03*
X62230000Y-58420000D03*
X58420000Y-60960000D03*
X58420000Y-63500000D03*
X58420000Y-64770000D03*
X58420000Y-66040000D03*
X66040000Y-62230000D03*
X73660000Y-54610000D03*
X74930000Y-54610000D03*
X76200000Y-54610000D03*
X77470000Y-54610000D03*
X77470000Y-55880000D03*
X74930000Y-55880000D03*
X78740000Y-54610000D03*
X80010000Y-54610000D03*
X81280000Y-54610000D03*
X82550000Y-54610000D03*
X83820000Y-54610000D03*
X85090000Y-54610000D03*
X86360000Y-54610000D03*
X87630000Y-54610000D03*
X88900000Y-54610000D03*
X88900000Y-55880000D03*
X78740000Y-63500000D03*
X78740000Y-66040000D03*
X80010000Y-66040000D03*
X80010000Y-67310000D03*
X78740000Y-67310000D03*
X119380000Y-54610000D03*
X121920000Y-54610000D03*
X123190000Y-54610000D03*
X124460000Y-54610000D03*
X125730000Y-54610000D03*
X127000000Y-54610000D03*
X128270000Y-54610000D03*
X129540000Y-54610000D03*
X130810000Y-54610000D03*
X132080000Y-54610000D03*
X133350000Y-54610000D03*
X134620000Y-54610000D03*
X135890000Y-54610000D03*
X137160000Y-54610000D03*
X138430000Y-54610000D03*
X139700000Y-54610000D03*
X140970000Y-54610000D03*
X142240000Y-54610000D03*
X143510000Y-54610000D03*
X143510000Y-55880000D03*
X144780000Y-55880000D03*
X146050000Y-55880000D03*
X146050000Y-54610000D03*
X144780000Y-54610000D03*
X147320000Y-54610000D03*
X148590000Y-54610000D03*
X149860000Y-54610000D03*
X151130000Y-54610000D03*
X152400000Y-54610000D03*
X153670000Y-54610000D03*
X154940000Y-54610000D03*
X156210000Y-54610000D03*
X157480000Y-54610000D03*
X157480000Y-55880000D03*
X157480000Y-57150000D03*
X161290000Y-54610000D03*
X161290000Y-55880000D03*
X161290000Y-57150000D03*
X161290000Y-58420000D03*
X160020000Y-58420000D03*
X158750000Y-58420000D03*
X157480000Y-58420000D03*
X170180000Y-54610000D03*
X171450000Y-54610000D03*
X172720000Y-54610000D03*
X172720000Y-57150000D03*
X171450000Y-57150000D03*
X171450000Y-55880000D03*
X172720000Y-55880000D03*
X170180000Y-55880000D03*
X170180000Y-57150000D03*
X170180000Y-58420000D03*
X170180000Y-59690000D03*
X170180000Y-60960000D03*
X171450000Y-60960000D03*
X171450000Y-59690000D03*
X171450000Y-58420000D03*
X168910000Y-60960000D03*
X167640000Y-60960000D03*
X166370000Y-60960000D03*
X167640000Y-62230000D03*
X168910000Y-62230000D03*
X170180000Y-62230000D03*
X171450000Y-62230000D03*
X166370000Y-62230000D03*
X171450000Y-76200000D03*
X171450000Y-74930000D03*
X170180000Y-74930000D03*
X170180000Y-76200000D03*
X170180000Y-77470000D03*
X171450000Y-77470000D03*
X171450000Y-80010000D03*
X170180000Y-80010000D03*
X168910000Y-80010000D03*
X167640000Y-80010000D03*
X167640000Y-81280000D03*
X168910000Y-81280000D03*
X170180000Y-81280000D03*
X171450000Y-81280000D03*
X171450000Y-82550000D03*
X170180000Y-82550000D03*
X168910000Y-82550000D03*
X167640000Y-82550000D03*
X167640000Y-83820000D03*
X168910000Y-83820000D03*
X170180000Y-83820000D03*
X171450000Y-83820000D03*
X171450000Y-85090000D03*
X170180000Y-85090000D03*
X168910000Y-85090000D03*
X167640000Y-85090000D03*
X167640000Y-86360000D03*
X168910000Y-86360000D03*
X170180000Y-86360000D03*
X171450000Y-86360000D03*
X171450000Y-87630000D03*
X170180000Y-87630000D03*
X168910000Y-87630000D03*
X167640000Y-87630000D03*
X167640000Y-88900000D03*
X168910000Y-88900000D03*
X170180000Y-88900000D03*
X168910000Y-90170000D03*
X167640000Y-90170000D03*
X172720000Y-80010000D03*
X172720000Y-81280000D03*
X173990000Y-81280000D03*
X173990000Y-80010000D03*
X175260000Y-80010000D03*
X175260000Y-81280000D03*
X176530000Y-81280000D03*
X176530000Y-80010000D03*
X176530000Y-78740000D03*
X175260000Y-78740000D03*
X173990000Y-78740000D03*
X172720000Y-78740000D03*
X171450000Y-78740000D03*
X170180000Y-78740000D03*
X168910000Y-78740000D03*
X167640000Y-78740000D03*
X167640000Y-95250000D03*
X168910000Y-95250000D03*
X168910000Y-96520000D03*
X167640000Y-96520000D03*
X167640000Y-97790000D03*
X168910000Y-97790000D03*
X170180000Y-97790000D03*
X170180000Y-96520000D03*
X170180000Y-99060000D03*
X170180000Y-100330000D03*
X168910000Y-100330000D03*
X168910000Y-99060000D03*
X167640000Y-99060000D03*
X167640000Y-100330000D03*
X167640000Y-101600000D03*
X167640000Y-102870000D03*
X167640000Y-104140000D03*
X167640000Y-105410000D03*
X167640000Y-106680000D03*
X167640000Y-107950000D03*
X167640000Y-109220000D03*
X167640000Y-110490000D03*
X168910000Y-109220000D03*
X168910000Y-107950000D03*
X168910000Y-106680000D03*
X170180000Y-106680000D03*
X170180000Y-107950000D03*
X171450000Y-105410000D03*
X134620000Y-124460000D03*
X135890000Y-125730000D03*
X137160000Y-127000000D03*
X138430000Y-128270000D03*
X139700000Y-129540000D03*
X140970000Y-129540000D03*
X142240000Y-129540000D03*
X143510000Y-129540000D03*
X144780000Y-129540000D03*
X146050000Y-129540000D03*
X147320000Y-129540000D03*
X147320000Y-128270000D03*
X146050000Y-128270000D03*
X144780000Y-128270000D03*
X143510000Y-128270000D03*
X142240000Y-128270000D03*
X140970000Y-128270000D03*
X139700000Y-128270000D03*
X138430000Y-127000000D03*
X139700000Y-127000000D03*
X140970000Y-127000000D03*
X142240000Y-127000000D03*
X143510000Y-127000000D03*
X144780000Y-127000000D03*
X146050000Y-127000000D03*
X144780000Y-125730000D03*
X143510000Y-125730000D03*
X142240000Y-125730000D03*
X140970000Y-125730000D03*
X139700000Y-125730000D03*
X138430000Y-125730000D03*
X137160000Y-125730000D03*
X135890000Y-124460000D03*
X137160000Y-124460000D03*
X138430000Y-124460000D03*
X139700000Y-124460000D03*
X140970000Y-124460000D03*
X142240000Y-124460000D03*
X143510000Y-124460000D03*
X144780000Y-124460000D03*
X137160000Y-121920000D03*
X135890000Y-121920000D03*
X134620000Y-121920000D03*
X133350000Y-121920000D03*
X132080000Y-121920000D03*
X133350000Y-120650000D03*
X134620000Y-120650000D03*
X135890000Y-120650000D03*
X133350000Y-128270000D03*
X132080000Y-128270000D03*
X132080000Y-129540000D03*
X133350000Y-129540000D03*
X132080000Y-127000000D03*
X134620000Y-129540000D03*
X132080000Y-139700000D03*
X133350000Y-139700000D03*
X134620000Y-139700000D03*
X134620000Y-140970000D03*
X132080000Y-140970000D03*
X133350000Y-140970000D03*
X132080000Y-142240000D03*
X133350000Y-142240000D03*
X134620000Y-142240000D03*
X135890000Y-142240000D03*
X135890000Y-140970000D03*
X137160000Y-140970000D03*
X137160000Y-142240000D03*
X137160000Y-139700000D03*
X135890000Y-139700000D03*
X137160000Y-143510000D03*
X135890000Y-143510000D03*
X134620000Y-143510000D03*
X133350000Y-143510000D03*
X132080000Y-143510000D03*
X129540000Y-138430000D03*
X128270000Y-138430000D03*
X127000000Y-138430000D03*
X125730000Y-138430000D03*
X125730000Y-139700000D03*
X127000000Y-139700000D03*
X128270000Y-139700000D03*
X129540000Y-139700000D03*
X129540000Y-140970000D03*
X129540000Y-142240000D03*
X128270000Y-142240000D03*
X128270000Y-140970000D03*
X127000000Y-140970000D03*
X127000000Y-142240000D03*
X125730000Y-142240000D03*
X125730000Y-140970000D03*
X125730000Y-143510000D03*
X127000000Y-143510000D03*
X128270000Y-143510000D03*
X129540000Y-143510000D03*
X110490000Y-124460000D03*
X109220000Y-125730000D03*
X114300000Y-127000000D03*
X113030000Y-130810000D03*
X111760000Y-130810000D03*
X105410000Y-129540000D03*
X105410000Y-128270000D03*
X105410000Y-127000000D03*
X105410000Y-125730000D03*
X104140000Y-125730000D03*
X97790000Y-128270000D03*
X97790000Y-129540000D03*
X95250000Y-129540000D03*
X93980000Y-129540000D03*
X92710000Y-129540000D03*
X91440000Y-129540000D03*
X90170000Y-129540000D03*
X91440000Y-128270000D03*
X92710000Y-128270000D03*
X92710000Y-127000000D03*
X114300000Y-111760000D03*
X114300000Y-110490000D03*
X114300000Y-109220000D03*
X114300000Y-107950000D03*
X114300000Y-106680000D03*
X113030000Y-107950000D03*
X113030000Y-109220000D03*
X113030000Y-110490000D03*
X113030000Y-111760000D03*
X111760000Y-111760000D03*
X111760000Y-110490000D03*
X111760000Y-109220000D03*
X111760000Y-107950000D03*
X110490000Y-107950000D03*
X110490000Y-109220000D03*
X110490000Y-110490000D03*
X110490000Y-111760000D03*
X109220000Y-110490000D03*
X109220000Y-109220000D03*
X109220000Y-107950000D03*
X107950000Y-107950000D03*
X107950000Y-109220000D03*
X106680000Y-109220000D03*
X106680000Y-107950000D03*
X105410000Y-107950000D03*
X105410000Y-106680000D03*
X105410000Y-105410000D03*
X105410000Y-104140000D03*
X106680000Y-104140000D03*
X106680000Y-105410000D03*
X106680000Y-106680000D03*
X110490000Y-106680000D03*
X110490000Y-105410000D03*
X110490000Y-104140000D03*
X110490000Y-102870000D03*
X110490000Y-101600000D03*
X110490000Y-100330000D03*
X110490000Y-99060000D03*
X110490000Y-93980000D03*
X110490000Y-92710000D03*
X110490000Y-91440000D03*
X106680000Y-93980000D03*
X106680000Y-95250000D03*
X106680000Y-97790000D03*
X105410000Y-97790000D03*
X105410000Y-95250000D03*
X105410000Y-93980000D03*
X106680000Y-92710000D03*
X105410000Y-90170000D03*
X110490000Y-83820000D03*
X110490000Y-85090000D03*
X109220000Y-83820000D03*
X114300000Y-83820000D03*
X114300000Y-85090000D03*
X115570000Y-85090000D03*
X114300000Y-87630000D03*
X115570000Y-87630000D03*
X114300000Y-82550000D03*
X115570000Y-82550000D03*
X114300000Y-81280000D03*
X115570000Y-81280000D03*
X116840000Y-81280000D03*
X118110000Y-81280000D03*
X119380000Y-81280000D03*
X114300000Y-80010000D03*
X115570000Y-80010000D03*
X114300000Y-78740000D03*
X119380000Y-77470000D03*
X119380000Y-76200000D03*
X119380000Y-74930000D03*
X109220000Y-80010000D03*
X107950000Y-80010000D03*
X106680000Y-80010000D03*
X105410000Y-80010000D03*
X105410000Y-77470000D03*
X106680000Y-77470000D03*
X107950000Y-77470000D03*
X107950000Y-76200000D03*
X106680000Y-76200000D03*
X105410000Y-76200000D03*
X107950000Y-74930000D03*
X107950000Y-73660000D03*
X107950000Y-72390000D03*
X107950000Y-71120000D03*
X106680000Y-71120000D03*
X106680000Y-72390000D03*
X106680000Y-69850000D03*
X107950000Y-69850000D03*
X109220000Y-69850000D03*
X106680000Y-68580000D03*
X107950000Y-68580000D03*
X109220000Y-68580000D03*
X110490000Y-68580000D03*
X111760000Y-68580000D03*
X113030000Y-68580000D03*
X113030000Y-67310000D03*
X111760000Y-67310000D03*
X110490000Y-67310000D03*
X109220000Y-67310000D03*
X107950000Y-67310000D03*
X106680000Y-67310000D03*
X104140000Y-67310000D03*
X114300000Y-67310000D03*
X120650000Y-67310000D03*
X121920000Y-67310000D03*
X123190000Y-67310000D03*
X123190000Y-68580000D03*
X123190000Y-69850000D03*
X124460000Y-69850000D03*
X124460000Y-71120000D03*
X123190000Y-71120000D03*
X124460000Y-72390000D03*
X124460000Y-73660000D03*
X124460000Y-74930000D03*
X124460000Y-76200000D03*
X123190000Y-76200000D03*
X123190000Y-77470000D03*
X124460000Y-77470000D03*
X123190000Y-78740000D03*
X123190000Y-80010000D03*
X124460000Y-80010000D03*
X125730000Y-81280000D03*
X127000000Y-81280000D03*
X128270000Y-81280000D03*
X128270000Y-78740000D03*
X128270000Y-77470000D03*
X128270000Y-76200000D03*
X123190000Y-81280000D03*
X124460000Y-81280000D03*
X123190000Y-82550000D03*
X124460000Y-82550000D03*
X128270000Y-82550000D03*
X123190000Y-83820000D03*
X124460000Y-85090000D03*
X124460000Y-86360000D03*
X124460000Y-87630000D03*
X119380000Y-86360000D03*
X120650000Y-86360000D03*
X119380000Y-88900000D03*
X120650000Y-88900000D03*
X119380000Y-92710000D03*
X120650000Y-92710000D03*
X120650000Y-93980000D03*
X120650000Y-95250000D03*
X119380000Y-95250000D03*
X119380000Y-93980000D03*
X128270000Y-88900000D03*
X128270000Y-87630000D03*
X120650000Y-113030000D03*
X115570000Y-111760000D03*
X109220000Y-116840000D03*
X114300000Y-116840000D03*
X115570000Y-116840000D03*
X149860000Y-139700000D03*
X151130000Y-139700000D03*
X152400000Y-139700000D03*
X153670000Y-139700000D03*
X154940000Y-139700000D03*
X154940000Y-140970000D03*
X153670000Y-140970000D03*
X152400000Y-140970000D03*
X151130000Y-140970000D03*
X149860000Y-140970000D03*
X149860000Y-142240000D03*
X151130000Y-142240000D03*
X152400000Y-142240000D03*
X153670000Y-142240000D03*
X153670000Y-143510000D03*
X152400000Y-143510000D03*
X151130000Y-143510000D03*
X149860000Y-143510000D03*
X154940000Y-143510000D03*
X154940000Y-142240000D03*
X156210000Y-143510000D03*
X157480000Y-143510000D03*
X91440000Y-58420000D03*
X176530000Y-69850000D03*
X176530000Y-71120000D03*
X176530000Y-72390000D03*
X140970000Y-82550000D03*
X142240000Y-82550000D03*
X142240000Y-85090000D03*
X140970000Y-85090000D03*
X140970000Y-88900000D03*
X146050000Y-88900000D03*
X146050000Y-87630000D03*
X146050000Y-85090000D03*
X147320000Y-85090000D03*
X147320000Y-87630000D03*
X147320000Y-88900000D03*
X147320000Y-102870000D03*
X146050000Y-102870000D03*
X143510000Y-102870000D03*
X142240000Y-102870000D03*
X142240000Y-101600000D03*
X143510000Y-101600000D03*
X140970000Y-97790000D03*
X142240000Y-97790000D03*
X147320000Y-114300000D03*
X146050000Y-116840000D03*
X144780000Y-116840000D03*
X143510000Y-116840000D03*
X146050000Y-118110000D03*
X147320000Y-118110000D03*
X154940000Y-138430000D03*
X153670000Y-138430000D03*
X152400000Y-138430000D03*
X151130000Y-138430000D03*
X149860000Y-138430000D03*
X111760000Y-72390000D03*
X111760000Y-73660000D03*
X111760000Y-74930000D03*
X115570000Y-72390000D03*
X115570000Y-73660000D03*
X61595000Y-92710000D03*
X63500000Y-92710000D03*
X72390000Y-103505000D03*
X73025000Y-93980000D03*
X68580000Y-86995000D03*
X68580000Y-85725000D03*
X115824000Y-129540000D03*
X115824000Y-128524000D03*
X68326000Y-75946000D03*
X68707000Y-73533000D03*
X63119000Y-72517000D03*
X61087000Y-72390000D03*
X68707000Y-82169000D03*
X68326000Y-96901000D03*
X68707000Y-94615000D03*
X66675000Y-93472000D03*
X63119000Y-93345000D03*
X61087000Y-93345000D03*
X63119000Y-114300000D03*
X61214000Y-129794000D03*
X60960000Y-109347000D03*
X61087000Y-114300000D03*
X66421000Y-114427000D03*
X68834000Y-115443000D03*
X68326000Y-117983000D03*
X65532000Y-130683000D03*
X76454000Y-112649000D03*
X85471000Y-111506000D03*
X86106000Y-106934000D03*
X80518000Y-100203000D03*
X88773000Y-95377000D03*
X89408000Y-110109000D03*
X90932000Y-110109000D03*
X87630000Y-109347000D03*
X76835000Y-99060000D03*
X76835000Y-102108000D03*
X88773000Y-69977000D03*
X86235010Y-81460454D03*
X90932000Y-84836000D03*
X88392000Y-84074000D03*
X87630000Y-84074000D03*
X80518000Y-75946000D03*
X76835000Y-73660000D03*
X76835000Y-76708000D03*
X78486000Y-86106000D03*
X75311000Y-88392000D03*
X83439000Y-86614000D03*
X127635000Y-114554000D03*
X128651000Y-114554000D03*
X128651000Y-115443000D03*
X127635000Y-115443000D03*
X128143000Y-115062000D03*
X127762000Y-127889000D03*
X127762000Y-129413000D03*
X59436000Y-63754000D03*
X124714000Y-61341000D03*
X124714000Y-62230000D03*
X123698000Y-62230000D03*
X123698000Y-61341000D03*
X126492000Y-61341000D03*
X127508000Y-61341000D03*
X127508000Y-62230000D03*
X126492000Y-62230000D03*
X154813016Y-61214000D03*
X116078000Y-79121000D03*
X127762000Y-79375000D03*
X116078000Y-83312000D03*
X127762000Y-83312000D03*
X113411000Y-92202000D03*
X119634000Y-71628000D03*
X119634000Y-70104000D03*
X119634000Y-69342000D03*
X119634000Y-67056000D03*
X124079000Y-67056000D03*
X142875000Y-137668000D03*
X92710000Y-62611000D03*
X91059000Y-62611000D03*
X62611000Y-67437000D03*
X92837000Y-87884000D03*
X91186000Y-88011000D03*
X66548477Y-72532010D03*
X61595000Y-110998000D03*
X68355457Y-123258102D03*
X68453000Y-102616000D03*
X142875000Y-61595000D03*
X140970000Y-61595000D03*
X139065000Y-61595000D03*
X74295000Y-62230000D03*
X72390000Y-62230000D03*
X70485000Y-62230000D03*
X66040000Y-89027000D03*
X142875000Y-143510000D03*
X37338000Y-71628000D03*
X37338000Y-86106000D03*
X37338000Y-91948000D03*
X37338000Y-107188000D03*
X37338000Y-112776000D03*
X37338000Y-126746000D03*
X141351000Y-95377000D03*
X141351000Y-96774000D03*
X142621000Y-96774000D03*
X142621000Y-95377000D03*
X141986000Y-96139000D03*
X127762000Y-126619000D03*
X127762000Y-125984000D03*
X115951000Y-125603000D03*
X115951000Y-126365000D03*
X141986000Y-93853000D03*
X145796000Y-93853000D03*
X168656000Y-70104000D03*
X120904000Y-127762000D03*
X122936000Y-127762000D03*
X128905000Y-110871000D03*
X129279885Y-115618810D03*
X129032000Y-124150010D03*
X127889000Y-68580000D03*
D14*
X25400000Y-50165000D03*
X27940000Y-50165000D03*
X33020000Y-50165000D03*
X26670000Y-51435000D03*
X34290000Y-51435000D03*
X35560000Y-50165000D03*
X36830000Y-51435000D03*
X38100000Y-50165000D03*
X39370000Y-51435000D03*
X40640000Y-50165000D03*
X41910000Y-51435000D03*
X43180000Y-50165000D03*
X44450000Y-51435000D03*
X45720000Y-50165000D03*
X46990000Y-51435000D03*
X48260000Y-50165000D03*
X49530000Y-51435000D03*
X50800000Y-50165000D03*
X52070000Y-51435000D03*
X53340000Y-50165000D03*
X54610000Y-51435000D03*
X55880000Y-50165000D03*
X57150000Y-51435000D03*
X58420000Y-50165000D03*
X59690000Y-51435000D03*
X60960000Y-50165000D03*
X62230000Y-51435000D03*
X63500000Y-50165000D03*
X64770000Y-51435000D03*
X66040000Y-50165000D03*
X67310000Y-51435000D03*
X68580000Y-50165000D03*
X69850000Y-51435000D03*
X71120000Y-50165000D03*
X72390000Y-51435000D03*
X73660000Y-50165000D03*
X74930000Y-51435000D03*
X76200000Y-50165000D03*
X77470000Y-51435000D03*
X78740000Y-50165000D03*
X80010000Y-51435000D03*
X81280000Y-50165000D03*
X82550000Y-51435000D03*
X83820000Y-50165000D03*
X85090000Y-51435000D03*
X86360000Y-50165000D03*
X87630000Y-51435000D03*
X88900000Y-50165000D03*
X90170000Y-51435000D03*
X91440000Y-50165000D03*
X92710000Y-51435000D03*
X93980000Y-50165000D03*
X95250000Y-51435000D03*
X96520000Y-50165000D03*
X97790000Y-51435000D03*
X99060000Y-50165000D03*
X100330000Y-51435000D03*
X101600000Y-50165000D03*
X102870000Y-51435000D03*
X104140000Y-50165000D03*
X105410000Y-51435000D03*
X106680000Y-50165000D03*
X107950000Y-51435000D03*
X109220000Y-50165000D03*
X110490000Y-51435000D03*
X111760000Y-50165000D03*
X113030000Y-51435000D03*
X114300000Y-50165000D03*
X115570000Y-51435000D03*
X116840000Y-50165000D03*
X118110000Y-51435000D03*
X119380000Y-50165000D03*
X120650000Y-51435000D03*
X121920000Y-50165000D03*
X123190000Y-51435000D03*
X124460000Y-50165000D03*
X125730000Y-51435000D03*
X127000000Y-50165000D03*
X128270000Y-51435000D03*
X129540000Y-50165000D03*
X130810000Y-51435000D03*
X132080000Y-50165000D03*
X133350000Y-51435000D03*
X134620000Y-50165000D03*
X135890000Y-51435000D03*
X137160000Y-50165000D03*
X138430000Y-51435000D03*
X139700000Y-50165000D03*
X140970000Y-51435000D03*
X142240000Y-50165000D03*
X143510000Y-51435000D03*
X144780000Y-50165000D03*
X146050000Y-51435000D03*
X147320000Y-50165000D03*
X148590000Y-51435000D03*
X149860000Y-50165000D03*
X151130000Y-51435000D03*
X152400000Y-50165000D03*
X153670000Y-51435000D03*
X154940000Y-50165000D03*
X156210000Y-51435000D03*
X157480000Y-50165000D03*
X158750000Y-51435000D03*
X160020000Y-50165000D03*
X161290000Y-51435000D03*
X162560000Y-50165000D03*
X163830000Y-51435000D03*
X165100000Y-50165000D03*
X166370000Y-51435000D03*
X167640000Y-50165000D03*
X168910000Y-51435000D03*
X170180000Y-50165000D03*
X171450000Y-51435000D03*
X172720000Y-50165000D03*
X173990000Y-51435000D03*
X175260000Y-50165000D03*
X180340000Y-50165000D03*
X181610000Y-51435000D03*
X182880000Y-50165000D03*
X182880000Y-57785000D03*
X182880000Y-60325000D03*
X182880000Y-62230000D03*
X181610000Y-63500000D03*
X181610000Y-68580000D03*
X182880000Y-69850000D03*
X181610000Y-71120000D03*
X182880000Y-72390000D03*
X182880000Y-74930000D03*
X182880000Y-77470000D03*
X181610000Y-78740000D03*
X182880000Y-80010000D03*
X182880000Y-82550000D03*
X181610000Y-83820000D03*
X182880000Y-85090000D03*
X182880000Y-90170000D03*
X181610000Y-91440000D03*
X182880000Y-92710000D03*
X181610000Y-93980000D03*
X182880000Y-95250000D03*
X181610000Y-96520000D03*
X182880000Y-97790000D03*
X181610000Y-99060000D03*
X182880000Y-100330000D03*
X181610000Y-101600000D03*
X182880000Y-102870000D03*
X181610000Y-104140000D03*
X182880000Y-105410000D03*
X181610000Y-106680000D03*
X182880000Y-107950000D03*
X181610000Y-109220000D03*
X182880000Y-110490000D03*
X182880000Y-113030000D03*
X181610000Y-114300000D03*
X182880000Y-115570000D03*
X181610000Y-116840000D03*
X182880000Y-118110000D03*
X181610000Y-119380000D03*
X182880000Y-120650000D03*
X182880000Y-123190000D03*
X181610000Y-124460000D03*
X182880000Y-125730000D03*
X181610000Y-127000000D03*
X182880000Y-128270000D03*
X181610000Y-129540000D03*
X182880000Y-130810000D03*
X182880000Y-133350000D03*
X181610000Y-134620000D03*
X182880000Y-135890000D03*
X182880000Y-138430000D03*
X181610000Y-139700000D03*
X181610000Y-86360000D03*
X182880000Y-147955000D03*
X181610000Y-146685000D03*
X180340000Y-147955000D03*
X175260000Y-147955000D03*
X173990000Y-146685000D03*
X172720000Y-147955000D03*
X171450000Y-146685000D03*
X170180000Y-147955000D03*
X168910000Y-146685000D03*
X167640000Y-147955000D03*
X166370000Y-146685000D03*
X165100000Y-147955000D03*
X163830000Y-146685000D03*
X162560000Y-147955000D03*
X161290000Y-146685000D03*
X160020000Y-147955000D03*
X158750000Y-146685000D03*
X157480000Y-147955000D03*
X156210000Y-146685000D03*
X154940000Y-147955000D03*
X153670000Y-146685000D03*
X152400000Y-147955000D03*
X151130000Y-146685000D03*
X149860000Y-147955000D03*
X148590000Y-146685000D03*
X147320000Y-147955000D03*
X146050000Y-146685000D03*
X144780000Y-147955000D03*
X143510000Y-146685000D03*
X142240000Y-147955000D03*
X140970000Y-146685000D03*
X139700000Y-147955000D03*
X138430000Y-146685000D03*
X137160000Y-147955000D03*
X135890000Y-146685000D03*
X134620000Y-147955000D03*
X133350000Y-146685000D03*
X132080000Y-147955000D03*
X130810000Y-146685000D03*
X129540000Y-147955000D03*
X128270000Y-146685000D03*
X127000000Y-147955000D03*
X125730000Y-146685000D03*
X124460000Y-147955000D03*
X123190000Y-146685000D03*
X121920000Y-147955000D03*
X120650000Y-146685000D03*
X119380000Y-147955000D03*
X118110000Y-146685000D03*
X116840000Y-147955000D03*
X115570000Y-146685000D03*
X114300000Y-147955000D03*
X113030000Y-146685000D03*
X111760000Y-147955000D03*
X110490000Y-146685000D03*
X109220000Y-147955000D03*
X107950000Y-146685000D03*
X106680000Y-147955000D03*
X105410000Y-146685000D03*
X104140000Y-147955000D03*
X102870000Y-146685000D03*
X101600000Y-147955000D03*
X100330000Y-146685000D03*
X99060000Y-147955000D03*
X97790000Y-146685000D03*
X96520000Y-147955000D03*
X95250000Y-146685000D03*
X93980000Y-147955000D03*
X92710000Y-146685000D03*
X91440000Y-147955000D03*
X90170000Y-146685000D03*
X88900000Y-147955000D03*
X87630000Y-146685000D03*
X86360000Y-147955000D03*
X85090000Y-146685000D03*
X83820000Y-147955000D03*
X82550000Y-146685000D03*
X81280000Y-147955000D03*
X80010000Y-146685000D03*
X78740000Y-147955000D03*
X77470000Y-146685000D03*
X76200000Y-147955000D03*
X74930000Y-146685000D03*
X73660000Y-147955000D03*
X72390000Y-146685000D03*
X71120000Y-147955000D03*
X69850000Y-146685000D03*
X68580000Y-147955000D03*
X67310000Y-146685000D03*
X66040000Y-147955000D03*
X64770000Y-146685000D03*
X63500000Y-147955000D03*
X62230000Y-146685000D03*
X60960000Y-147955000D03*
X59690000Y-146685000D03*
X58420000Y-147955000D03*
X57150000Y-146685000D03*
X55880000Y-147955000D03*
X54610000Y-146685000D03*
X53340000Y-147955000D03*
X52070000Y-146685000D03*
X50800000Y-147955000D03*
X49530000Y-146685000D03*
X48260000Y-147955000D03*
X46990000Y-146685000D03*
X45720000Y-147955000D03*
X44450000Y-146685000D03*
X43180000Y-147955000D03*
X41910000Y-146685000D03*
X40640000Y-147955000D03*
X39370000Y-146685000D03*
X38100000Y-147955000D03*
X36830000Y-146685000D03*
X35560000Y-147955000D03*
X34290000Y-146685000D03*
X33020000Y-147955000D03*
X27940000Y-147955000D03*
X29210000Y-146685000D03*
X25400000Y-147955000D03*
X25400000Y-57785000D03*
X26670000Y-59055000D03*
X25400000Y-60325000D03*
X26670000Y-61595000D03*
X25400000Y-62865000D03*
X26670000Y-64135000D03*
X25400000Y-65405000D03*
X26670000Y-66675000D03*
X25400000Y-67945000D03*
X26670000Y-69215000D03*
X25400000Y-70485000D03*
X26670000Y-71755000D03*
X25400000Y-73025000D03*
X26670000Y-74295000D03*
X25400000Y-75565000D03*
X26670000Y-76835000D03*
X25400000Y-78105000D03*
X26670000Y-79375000D03*
X25400000Y-80645000D03*
X26670000Y-81915000D03*
X25400000Y-83185000D03*
X26670000Y-84455000D03*
X25400000Y-85725000D03*
X26670000Y-86995000D03*
X25400000Y-88265000D03*
X26670000Y-89535000D03*
X25400000Y-90805000D03*
X26670000Y-92075000D03*
X25400000Y-93345000D03*
X26670000Y-94615000D03*
X25400000Y-95885000D03*
X26670000Y-97155000D03*
X25400000Y-98425000D03*
X26670000Y-99695000D03*
X25400000Y-100965000D03*
X26670000Y-102235000D03*
X25400000Y-103505000D03*
X26670000Y-104775000D03*
X25400000Y-106045000D03*
X26670000Y-107315000D03*
X25400000Y-108585000D03*
X26670000Y-109855000D03*
X25400000Y-111125000D03*
X26670000Y-112395000D03*
X25400000Y-113665000D03*
X26670000Y-114935000D03*
X25400000Y-116205000D03*
X26670000Y-117475000D03*
X25400000Y-118745000D03*
X26670000Y-120015000D03*
X25400000Y-121285000D03*
X26670000Y-122555000D03*
X25400000Y-123825000D03*
X26670000Y-125095000D03*
X25400000Y-126365000D03*
X26670000Y-127635000D03*
X25400000Y-128905000D03*
X26670000Y-130175000D03*
X25400000Y-131445000D03*
X26670000Y-132715000D03*
X25400000Y-133985000D03*
X25400000Y-139065000D03*
X26670000Y-140335000D03*
D13*
X148082000Y-138430000D03*
X148082000Y-132842000D03*
X100330000Y-54610000D03*
X101600000Y-54610000D03*
X102870000Y-54610000D03*
X104140000Y-54610000D03*
X105410000Y-54610000D03*
X106680000Y-54610000D03*
X107950000Y-54610000D03*
X109220000Y-54610000D03*
X110490000Y-54610000D03*
X110490000Y-55880000D03*
X109220000Y-55880000D03*
X107950000Y-55880000D03*
X106680000Y-55880000D03*
X105410000Y-55880000D03*
X104140000Y-55880000D03*
X102870000Y-55880000D03*
X101600000Y-55880000D03*
X100330000Y-55880000D03*
X100330000Y-57150000D03*
X101600000Y-57150000D03*
X102870000Y-57150000D03*
X104140000Y-57150000D03*
X105410000Y-57150000D03*
X106680000Y-57150000D03*
X107950000Y-57150000D03*
X109220000Y-57150000D03*
X110490000Y-57150000D03*
X110490000Y-58420000D03*
X109220000Y-58420000D03*
X107950000Y-58420000D03*
X106680000Y-58420000D03*
X105410000Y-58420000D03*
X104140000Y-58420000D03*
X102870000Y-58420000D03*
X101600000Y-58420000D03*
X100330000Y-58420000D03*
X99060000Y-58420000D03*
X111760000Y-58420000D03*
X111760000Y-53340000D03*
X110490000Y-53340000D03*
X109220000Y-53340000D03*
X107950000Y-53340000D03*
X106680000Y-53340000D03*
X105410000Y-53340000D03*
X104140000Y-53340000D03*
X102870000Y-53340000D03*
X101600000Y-53340000D03*
X100330000Y-53340000D03*
X99060000Y-53340000D03*
X93980000Y-53340000D03*
X93980000Y-58420000D03*
X116840000Y-58420000D03*
X116840000Y-53340000D03*
X29210000Y-63500000D03*
X33020000Y-64770000D03*
X34290000Y-64770000D03*
X35560000Y-64770000D03*
X34290000Y-66040000D03*
X33020000Y-66040000D03*
X33020000Y-67310000D03*
X33020000Y-68580000D03*
X31750000Y-68580000D03*
X31750000Y-67310000D03*
X30480000Y-68580000D03*
X30480000Y-67310000D03*
X29210000Y-67310000D03*
X29210000Y-66040000D03*
X29210000Y-72390000D03*
X29210000Y-73660000D03*
X29210000Y-74930000D03*
X30480000Y-73660000D03*
X33020000Y-73660000D03*
X34290000Y-73660000D03*
X34290000Y-72390000D03*
X34290000Y-71120000D03*
X30480000Y-74930000D03*
X31750000Y-74930000D03*
X33020000Y-74930000D03*
X33020000Y-76200000D03*
X31750000Y-76200000D03*
X30480000Y-76200000D03*
X29210000Y-76200000D03*
X29210000Y-77470000D03*
X30480000Y-77470000D03*
X31750000Y-77470000D03*
X33020000Y-77470000D03*
X34290000Y-77470000D03*
X33020000Y-78740000D03*
X31750000Y-78740000D03*
X30480000Y-78740000D03*
X29210000Y-78740000D03*
X29210000Y-80010000D03*
X30480000Y-80010000D03*
X31750000Y-80010000D03*
X33020000Y-80010000D03*
X33020000Y-81280000D03*
X31750000Y-81280000D03*
X30480000Y-81280000D03*
X29210000Y-81280000D03*
X29210000Y-82550000D03*
X29210000Y-83820000D03*
X30480000Y-82550000D03*
X33020000Y-82550000D03*
X34290000Y-82550000D03*
X34290000Y-81280000D03*
X34290000Y-83820000D03*
X34290000Y-85090000D03*
X34290000Y-86360000D03*
X34290000Y-87630000D03*
X33020000Y-87630000D03*
X33020000Y-86360000D03*
X31750000Y-87630000D03*
X30480000Y-87630000D03*
X30480000Y-86360000D03*
X30480000Y-88900000D03*
X31750000Y-88900000D03*
X33020000Y-88900000D03*
X34290000Y-88900000D03*
X29210000Y-88900000D03*
X30480000Y-90170000D03*
X31750000Y-90170000D03*
X33020000Y-90170000D03*
X34290000Y-90170000D03*
X34290000Y-91440000D03*
X34290000Y-92710000D03*
X34290000Y-93980000D03*
X34290000Y-95250000D03*
X33020000Y-95250000D03*
X31750000Y-95250000D03*
X30480000Y-95250000D03*
X29210000Y-95250000D03*
X29210000Y-93980000D03*
X29210000Y-92710000D03*
X29210000Y-96520000D03*
X30480000Y-96520000D03*
X31750000Y-96520000D03*
X33020000Y-96520000D03*
X33020000Y-97790000D03*
X33020000Y-99060000D03*
X34290000Y-99060000D03*
X33020000Y-100330000D03*
X33020000Y-101600000D03*
X33020000Y-102870000D03*
X34290000Y-102870000D03*
X34290000Y-104140000D03*
X31750000Y-102870000D03*
X31750000Y-101600000D03*
X31750000Y-100330000D03*
X31750000Y-99060000D03*
X31750000Y-97790000D03*
X30480000Y-97790000D03*
X30480000Y-99060000D03*
X30480000Y-100330000D03*
X30480000Y-101600000D03*
X30480000Y-102870000D03*
X29210000Y-104140000D03*
X29210000Y-102870000D03*
X29210000Y-101600000D03*
X29210000Y-100330000D03*
X29210000Y-99060000D03*
X29210000Y-97790000D03*
X29210000Y-105410000D03*
X30480000Y-107950000D03*
X31750000Y-107950000D03*
X33020000Y-107950000D03*
X34290000Y-107950000D03*
X34290000Y-106680000D03*
X34290000Y-105410000D03*
X34290000Y-109220000D03*
X34290000Y-110490000D03*
X33020000Y-110490000D03*
X33020000Y-109220000D03*
X31750000Y-109220000D03*
X30480000Y-109220000D03*
X30480000Y-110490000D03*
X31750000Y-110490000D03*
X30480000Y-111760000D03*
X33020000Y-111760000D03*
X34290000Y-111760000D03*
X34290000Y-113030000D03*
X34290000Y-114300000D03*
X34290000Y-115570000D03*
X33020000Y-115570000D03*
X30480000Y-115570000D03*
X29210000Y-115570000D03*
X29210000Y-114300000D03*
X29210000Y-116840000D03*
X30480000Y-116840000D03*
X31750000Y-116840000D03*
X33020000Y-116840000D03*
X33020000Y-118110000D03*
X33020000Y-119380000D03*
X33020000Y-120650000D03*
X33020000Y-121920000D03*
X33020000Y-123190000D03*
X33020000Y-124460000D03*
X31750000Y-123190000D03*
X31750000Y-121920000D03*
X31750000Y-120650000D03*
X31750000Y-119380000D03*
X31750000Y-118110000D03*
X30480000Y-118110000D03*
X30480000Y-119380000D03*
X30480000Y-120650000D03*
X30480000Y-121920000D03*
X30480000Y-123190000D03*
X30480000Y-124460000D03*
X29210000Y-124460000D03*
X29210000Y-123190000D03*
X29210000Y-121920000D03*
X29210000Y-120650000D03*
X29210000Y-119380000D03*
X29210000Y-118110000D03*
X29210000Y-125730000D03*
X34290000Y-125730000D03*
X34290000Y-124460000D03*
X33020000Y-128270000D03*
X30480000Y-128270000D03*
X30480000Y-129540000D03*
X31750000Y-129540000D03*
X33020000Y-129540000D03*
X33020000Y-130810000D03*
X31750000Y-130810000D03*
X30480000Y-130810000D03*
X29210000Y-130810000D03*
X29210000Y-132080000D03*
X29210000Y-133350000D03*
X33020000Y-132080000D03*
X33020000Y-133350000D03*
X34290000Y-133350000D03*
X34290000Y-132080000D03*
X35560000Y-133350000D03*
X29210000Y-134620000D03*
X30480000Y-134620000D03*
X29210000Y-137160000D03*
X29210000Y-135890000D03*
X29210000Y-139700000D03*
X179070000Y-60960000D03*
X177800000Y-60960000D03*
X176530000Y-62230000D03*
X177800000Y-63500000D03*
X177800000Y-62230000D03*
X179070000Y-62230000D03*
X179070000Y-63500000D03*
X179070000Y-64770000D03*
X179070000Y-66040000D03*
X179070000Y-67310000D03*
X177800000Y-67310000D03*
X177800000Y-66040000D03*
X177800000Y-64770000D03*
X176530000Y-64770000D03*
X176530000Y-63500000D03*
X176530000Y-66040000D03*
X176530000Y-67310000D03*
X175260000Y-62230000D03*
X173990000Y-62230000D03*
D14*
X31750000Y-51435000D03*
X30480000Y-50165000D03*
X29210000Y-51435000D03*
X176530000Y-146685000D03*
X177800000Y-147955000D03*
X179070000Y-146685000D03*
X31750000Y-146685000D03*
X30480000Y-147955000D03*
X176530000Y-51435000D03*
X177800000Y-50165000D03*
X179070000Y-51435000D03*
D13*
X174625000Y-89281000D03*
X173873501Y-89433322D03*
X80264000Y-126111000D03*
X76047500Y-128625500D03*
X80388449Y-124330449D03*
X89045474Y-123251803D03*
X81661000Y-119507000D03*
X92075000Y-126365000D03*
X86233000Y-126238000D03*
X107569000Y-121158000D03*
X142621000Y-84074000D03*
X139159591Y-117856293D03*
X107569000Y-122047000D03*
X142621000Y-99441000D03*
X139534880Y-118356092D03*
X107696000Y-115062000D03*
X134874000Y-113919000D03*
X107696000Y-115824000D03*
X142494000Y-114681000D03*
X107696000Y-116586000D03*
X149860000Y-129921000D03*
X107569000Y-120396000D03*
X134239000Y-84836000D03*
X139007010Y-117195724D03*
X64135000Y-72517000D03*
X68707000Y-83381010D03*
X57022294Y-81406294D03*
X58801000Y-72009000D03*
X64643000Y-84963000D03*
X56388000Y-76120510D03*
X57277000Y-74930000D03*
X57277000Y-73533000D03*
X61087000Y-83820000D03*
X63627000Y-83820000D03*
X50927000Y-78486000D03*
X50927000Y-76454000D03*
X50927000Y-74930000D03*
X50927000Y-73025000D03*
X56378010Y-77485979D03*
X57214136Y-82614275D03*
X41656000Y-85090000D03*
X64135000Y-114300000D03*
X68326000Y-125095000D03*
X56953990Y-123444000D03*
X58801000Y-113919000D03*
X64643000Y-126619000D03*
X57277000Y-120142000D03*
X57277000Y-118745000D03*
X57277000Y-117221000D03*
X57277000Y-115697000D03*
X61214000Y-125984000D03*
X50927000Y-120396000D03*
X50927000Y-118364000D03*
X50927000Y-117475000D03*
X51308000Y-114808000D03*
X63500000Y-125730000D03*
X56977798Y-124529010D03*
X41910000Y-127000000D03*
X68834000Y-104140000D03*
X71247000Y-103759000D03*
X64135000Y-93345000D03*
X57023000Y-102362000D03*
X58801000Y-92964000D03*
X64643000Y-106299000D03*
X57277000Y-95885000D03*
X57150000Y-94488000D03*
X61087000Y-104648000D03*
X51181000Y-99441000D03*
X51181000Y-97409000D03*
X51181000Y-96266000D03*
X51181000Y-93853000D03*
X56876011Y-98944042D03*
X56759010Y-97329510D03*
X63622332Y-104643332D03*
X57006877Y-103447010D03*
X41656000Y-106172000D03*
X175768000Y-106172000D03*
X176276000Y-107696000D03*
X85148500Y-61976000D03*
X84523500Y-61976000D03*
X81846500Y-61976000D03*
X81221500Y-61976000D03*
X131445000Y-76835000D03*
X84074000Y-106553000D03*
X80518000Y-101854000D03*
X80518000Y-98171000D03*
X82042000Y-94996000D03*
X83927660Y-95088397D03*
X89916000Y-95123000D03*
X92456000Y-98552000D03*
X92456000Y-105283000D03*
X92456000Y-100689990D03*
X90551000Y-106172000D03*
X86106000Y-94742000D03*
X92329000Y-73787000D03*
X92329000Y-75289990D03*
X92456477Y-78996389D03*
X90043000Y-80899000D03*
X84074000Y-81407000D03*
X80518000Y-77343000D03*
X80772000Y-72644000D03*
X133604000Y-66421000D03*
X133604000Y-65659000D03*
X134493000Y-65659000D03*
X134493000Y-66421000D03*
X141986000Y-80264000D03*
X142621000Y-80264000D03*
X142621000Y-81280000D03*
X141986000Y-81280000D03*
X90043000Y-69977000D03*
X86907338Y-70067705D03*
X84388166Y-69492399D03*
X80391000Y-70231000D03*
X82928612Y-69468523D03*
X92964000Y-75692000D03*
X92329000Y-78359000D03*
X92329000Y-72263000D03*
X83693000Y-69469000D03*
X91059000Y-67183000D03*
X85656500Y-93980000D03*
X85031500Y-93980000D03*
X84132500Y-93218000D03*
X83507500Y-93218000D03*
X83320345Y-94856701D03*
X92329000Y-103886000D03*
X92964000Y-101219000D03*
X92456000Y-97663000D03*
X91186000Y-92837000D03*
X55753000Y-143002000D03*
X82423000Y-142875000D03*
X152400000Y-119126000D03*
X150876000Y-119126000D03*
X153924000Y-119126000D03*
X155448000Y-119126000D03*
X156845000Y-132080000D03*
X156845000Y-130810000D03*
X155575000Y-132080000D03*
X154432000Y-132080000D03*
X154432000Y-130810000D03*
X155575000Y-130810000D03*
X164084000Y-138176000D03*
X163068000Y-138176000D03*
X162052000Y-138176000D03*
X162052000Y-137160000D03*
X163068000Y-137160000D03*
X164084000Y-137160000D03*
X164084000Y-136144000D03*
X163068000Y-136144000D03*
X164084000Y-134874000D03*
X140716000Y-79121000D03*
X144000000Y-118000000D03*
X142000000Y-118500000D03*
X109000000Y-124500000D03*
X105500000Y-124500000D03*
D14*
X162560000Y-139700000D03*
X162560000Y-142240000D03*
D13*
X151511000Y-121158000D03*
X151511000Y-121793000D03*
X156972000Y-121031000D03*
X158496000Y-121031000D03*
X158496000Y-121920000D03*
X156972000Y-121920000D03*
X151511000Y-106045000D03*
X151511000Y-106807000D03*
X156972000Y-105918000D03*
X158496000Y-105918000D03*
X158496000Y-106807000D03*
X156972000Y-106807000D03*
X157099000Y-110617000D03*
X157099000Y-112014000D03*
X155956000Y-112141000D03*
X155956000Y-110617000D03*
X156464000Y-111379000D03*
X146558000Y-110617000D03*
X146558000Y-112014000D03*
X147828000Y-110617000D03*
X147828000Y-112014000D03*
X147193000Y-111506000D03*
X157099000Y-109601000D03*
X145923000Y-104648000D03*
X151511000Y-90932000D03*
X151511000Y-91694000D03*
X158496000Y-90805000D03*
X158496000Y-91694000D03*
X156972000Y-91694000D03*
X156972000Y-90805000D03*
X156972000Y-95377000D03*
X156972000Y-96774000D03*
X155956000Y-96774000D03*
X155956000Y-95377000D03*
X156464000Y-96139000D03*
X146685000Y-95377000D03*
X147828000Y-95377000D03*
X147828000Y-96774000D03*
X146685000Y-96774000D03*
X147193000Y-96139000D03*
X156972000Y-94361000D03*
X145491250Y-89839750D03*
X151511000Y-75565000D03*
X151511000Y-76327000D03*
X158496000Y-75438000D03*
X158496000Y-76327000D03*
X156972000Y-76327000D03*
X156972000Y-75438000D03*
X146685000Y-80010000D03*
X156972000Y-78994000D03*
X143764000Y-74422000D03*
X147066000Y-82550000D03*
X156972000Y-82550000D03*
X156972000Y-80010000D03*
X156972000Y-81407000D03*
X156337000Y-80772000D03*
X155956000Y-80010000D03*
X155956000Y-81407000D03*
X147828000Y-80010000D03*
X147828000Y-81407000D03*
X146685000Y-81407000D03*
X147193000Y-80772000D03*
X166116000Y-141605000D03*
X167259000Y-141605000D03*
X168402000Y-141605000D03*
X169418000Y-141605000D03*
X168910000Y-142367000D03*
X167894000Y-142367000D03*
X166751000Y-142367000D03*
X165481000Y-142367000D03*
X169418000Y-134874000D03*
X169926000Y-135382000D03*
X169418000Y-135890000D03*
X169926000Y-136398000D03*
X166116000Y-134874000D03*
X167259000Y-134874000D03*
X168402000Y-134874000D03*
X85979000Y-129978990D03*
X124079000Y-88900000D03*
X79883004Y-130175000D03*
X84305656Y-122151656D03*
X123444000Y-118745000D03*
X138176000Y-80137000D03*
X138938000Y-122174000D03*
X88646000Y-131958043D03*
X86732370Y-130310630D03*
X124079000Y-90043000D03*
X80169887Y-130996058D03*
X84952190Y-122141534D03*
X149225000Y-121031000D03*
X124224888Y-118294990D03*
X138938000Y-121538994D03*
X91342837Y-131958043D03*
X80606192Y-131443581D03*
X124359054Y-93472000D03*
X85598000Y-122174000D03*
X149352000Y-105791000D03*
X123389807Y-117844988D03*
X146939000Y-108458000D03*
X138937295Y-120903293D03*
X95250000Y-131958043D03*
X83312000Y-131699000D03*
X124359054Y-94234000D03*
X124012921Y-117394978D03*
X141097000Y-102870000D03*
X138940467Y-120263710D03*
X98027386Y-131699646D03*
X149352000Y-90932000D03*
X123356183Y-116944976D03*
X147193000Y-93345000D03*
X139009976Y-119642575D03*
X104270996Y-131958339D03*
X147066000Y-77978000D03*
X107962533Y-129367360D03*
X123892859Y-116494966D03*
X139017270Y-119017606D03*
X171580000Y-71244000D03*
X171268896Y-67464858D03*
X177419000Y-85725000D03*
X45466000Y-137541000D03*
X40005000Y-58039000D03*
X173228000Y-105156000D03*
X179324000Y-104140000D03*
X64643000Y-141224000D03*
X68707000Y-141224000D03*
X118872000Y-144526000D03*
X171450000Y-133858000D03*
X172466000Y-133858000D03*
X173355000Y-133858000D03*
X174371000Y-133858000D03*
X121920000Y-112834500D03*
X164396500Y-60706000D03*
X121920000Y-112209500D03*
X163771500Y-60706000D03*
X168275000Y-64516000D03*
X171330990Y-69630325D03*
X162364500Y-61468000D03*
X121920000Y-110802500D03*
X161739500Y-61468000D03*
X121920000Y-110177500D03*
X168148000Y-66040000D03*
X123191352Y-120744236D03*
X132083833Y-120810373D03*
X170942000Y-70231000D03*
X160078500Y-60706000D03*
X121920000Y-108770500D03*
X159453500Y-60706000D03*
X121920000Y-108145500D03*
X168148000Y-67564000D03*
X169799000Y-69342000D03*
X121920000Y-106738500D03*
X157792500Y-61468000D03*
X121920000Y-106113500D03*
X157167500Y-61468000D03*
X171274442Y-65934825D03*
X168021000Y-62992000D03*
X123184699Y-120119260D03*
X132055056Y-120186024D03*
X172731357Y-70652010D03*
X171242402Y-69011623D03*
X171291081Y-64404792D03*
X168910000Y-92710000D03*
X179705000Y-92710000D03*
X140970706Y-86359294D03*
X167640000Y-92710000D03*
X179705000Y-92075000D03*
X140970706Y-86995706D03*
X88265000Y-122555000D03*
X57440000Y-134711000D03*
X64643000Y-132842000D03*
X88773000Y-121920000D03*
X69469000Y-129667000D03*
X66675000Y-136017000D03*
X87801843Y-123916492D03*
X109601000Y-71247000D03*
X115680000Y-69960000D03*
X110487611Y-71246523D03*
X116026000Y-70560000D03*
X110236000Y-131318000D03*
X83185000Y-118179010D03*
X110577075Y-133749065D03*
X110998000Y-131318000D03*
X82423000Y-117729000D03*
X111050427Y-134157204D03*
X57150000Y-84455000D03*
X44196000Y-80449500D03*
X44196000Y-79824500D03*
X44196000Y-76385500D03*
X44196000Y-75760500D03*
X68707000Y-78867000D03*
X70485000Y-78867000D03*
X68453000Y-79502000D03*
X46990000Y-76200000D03*
X68466071Y-80172432D03*
X46990000Y-79883000D03*
X72390000Y-105410000D03*
X56007000Y-134620000D03*
X72390000Y-104648000D03*
X55884668Y-132211668D03*
X64008000Y-84963000D03*
X51595029Y-91914971D03*
X54643029Y-99534971D03*
X52036971Y-91473029D03*
X55084971Y-99093029D03*
X49563029Y-89882971D03*
X54643029Y-120362971D03*
X50004971Y-89441029D03*
X55084971Y-119921029D03*
X50004971Y-88358971D03*
X49563029Y-87917029D03*
X47277029Y-85564971D03*
X47718971Y-85123029D03*
X59723029Y-137888971D03*
X60164971Y-137447029D03*
X67622500Y-132842000D03*
X66997500Y-132842000D03*
X107154971Y-137888971D03*
X73185029Y-136618971D03*
X62171500Y-126617498D03*
X106713029Y-137447029D03*
X73626971Y-136177029D03*
X62796500Y-126617498D03*
X64008000Y-126619000D03*
X66814018Y-126977407D03*
X63500000Y-135382000D03*
X66929000Y-125222000D03*
X66675000Y-135128000D03*
X115062000Y-138176000D03*
X70612000Y-129667000D03*
X68964108Y-124826051D03*
X46990000Y-120904000D03*
X68453000Y-122174000D03*
X46990000Y-118237000D03*
X68453000Y-121285000D03*
X68687600Y-120705688D03*
X69977000Y-120777000D03*
X44196000Y-117670500D03*
X44196000Y-118295500D03*
X44196000Y-121734500D03*
X44196000Y-122359500D03*
X58420000Y-126619000D03*
X55592971Y-108237029D03*
X55151029Y-108678971D03*
X56896000Y-109923500D03*
X56896000Y-110548500D03*
X96832500Y-109220000D03*
X93413500Y-109728000D03*
X96207500Y-109220000D03*
X94038500Y-109728000D03*
X77020500Y-103886000D03*
X96553029Y-105697029D03*
X76395500Y-103886000D03*
X96994971Y-106138971D03*
X64008000Y-106299000D03*
X169799000Y-94742000D03*
X147066000Y-101092000D03*
X128397000Y-96139000D03*
X96393000Y-99060000D03*
X65532000Y-106426000D03*
X169799000Y-93853000D03*
X147066000Y-100203000D03*
X128397000Y-95377000D03*
X96393000Y-96520000D03*
X69977000Y-106807000D03*
X69991810Y-103305143D03*
X46863000Y-100330000D03*
X68453000Y-101219000D03*
X46990000Y-97409000D03*
X68375865Y-100360782D03*
X70485000Y-99949000D03*
X68652695Y-99800421D03*
X44196000Y-96715500D03*
X44196000Y-97340500D03*
X44196000Y-100652500D03*
X44196000Y-101277500D03*
X58420000Y-106299000D03*
X78867000Y-97790000D03*
X146685000Y-62230000D03*
X122555000Y-137795000D03*
X111125000Y-71882000D03*
X108585000Y-82550000D03*
X109328617Y-85616383D03*
X109627738Y-86587270D03*
X107824839Y-88774838D03*
X109746910Y-87691633D03*
X108585000Y-87630000D03*
X109674151Y-88641644D03*
X110811976Y-79229425D03*
X110936980Y-76816566D03*
X110950701Y-89480242D03*
X111446561Y-78072400D03*
X111411990Y-76200000D03*
X113030000Y-74930000D03*
X121920000Y-68580000D03*
X113411000Y-94996000D03*
X115697000Y-67945000D03*
X121285000Y-69215000D03*
X113411000Y-96012000D03*
X115697000Y-68707000D03*
X122555000Y-72390000D03*
X123190000Y-74295000D03*
X122573383Y-84473383D03*
X122708051Y-85655436D03*
X123534021Y-90805000D03*
X123259010Y-88265000D03*
X124084043Y-95758000D03*
X123809032Y-91440000D03*
X124084043Y-92075000D03*
X147320000Y-139065000D03*
X131879899Y-76143608D03*
X145619195Y-139430154D03*
X130810000Y-70358000D03*
X144126617Y-139083383D03*
X129413006Y-70358000D03*
X141605000Y-139065000D03*
X129425310Y-71488684D03*
X140335000Y-139065000D03*
X129413000Y-75438000D03*
X139065000Y-139065000D03*
X129413000Y-74168000D03*
X113538000Y-98247500D03*
X129286000Y-98493500D03*
X113538000Y-98872500D03*
X129286000Y-99118500D03*
X113538000Y-101247500D03*
X129286000Y-100847500D03*
X113538000Y-101872500D03*
X129286000Y-101472500D03*
X113538000Y-104247500D03*
X129286000Y-105605500D03*
X113538000Y-104872500D03*
X129286000Y-106230500D03*
X113538000Y-120347500D03*
X54576971Y-78706971D03*
X113538000Y-120972500D03*
X54135029Y-78265029D03*
X165100000Y-64040990D03*
X123228798Y-119495806D03*
X132191155Y-119576010D03*
X127762000Y-90424000D03*
X127762000Y-91948000D03*
X127762000Y-93472000D03*
X132588000Y-97155000D03*
X165227000Y-70104000D03*
X164699622Y-69053989D03*
X128270000Y-121920000D03*
D29*
X94615000Y-94869000D02*
X94615000Y-70485000D01*
X94615000Y-70485000D02*
X95250000Y-69850000D01*
X95250000Y-69850000D02*
X96647000Y-69850000D01*
D30*
X142875000Y-143510000D02*
X142875000Y-137668000D01*
D31*
X141351000Y-94488000D02*
X141986000Y-93853000D01*
X141351000Y-95377000D02*
X141351000Y-94488000D01*
X148353001Y-91295999D02*
X148353001Y-72626999D01*
X145796000Y-93853000D02*
X148353001Y-91295999D01*
X148353001Y-72626999D02*
X151638000Y-69342000D01*
X151874999Y-69578999D02*
X166225999Y-69578999D01*
X151638000Y-69342000D02*
X151874999Y-69578999D01*
X166751000Y-70104000D02*
X168656000Y-70104000D01*
X166225999Y-69578999D02*
X166751000Y-70104000D01*
X128905000Y-110871000D02*
X129279885Y-111245885D01*
X129279885Y-111245885D02*
X129279885Y-115618810D01*
D29*
X86233000Y-126238000D02*
X82042000Y-126238000D01*
X82042000Y-126238000D02*
X81534000Y-126746000D01*
X77851000Y-126746000D02*
X76200000Y-125095000D01*
X81534000Y-126746000D02*
X77851000Y-126746000D01*
X139472580Y-109153800D02*
X139409590Y-109216790D01*
X139457012Y-116979722D02*
X139457012Y-117558872D01*
X141224000Y-84074000D02*
X139472580Y-85825420D01*
X142621000Y-84074000D02*
X141224000Y-84074000D01*
X139409590Y-116932300D02*
X139457012Y-116979722D01*
X139472580Y-85825420D02*
X139472580Y-109153800D01*
X139457012Y-117558872D02*
X139159591Y-117856293D01*
X139409590Y-109216790D02*
X139409590Y-116932300D01*
X141097000Y-99441000D02*
X139906158Y-100631842D01*
X139906158Y-109109146D02*
X139742956Y-109272348D01*
X142621000Y-99441000D02*
X141097000Y-99441000D01*
X139906158Y-100631842D02*
X139906158Y-109109146D01*
X139742956Y-118148016D02*
X139534880Y-118356092D01*
X139742956Y-109272348D02*
X139742956Y-118148016D01*
X139007010Y-89604010D02*
X139007010Y-117195724D01*
X134239000Y-84836000D02*
X139007010Y-89604010D01*
D30*
X83693000Y-69469000D02*
X83693000Y-69088000D01*
X85598000Y-67183000D02*
X91059000Y-67183000D01*
X83693000Y-69088000D02*
X85598000Y-67183000D01*
X83320345Y-94856701D02*
X83320345Y-94606655D01*
X83320345Y-94606655D02*
X83693000Y-94234000D01*
X83693000Y-94234000D02*
X84074000Y-94234000D01*
X84074000Y-94234000D02*
X85344000Y-95504000D01*
X85344000Y-95504000D02*
X86868000Y-95504000D01*
X86868000Y-95504000D02*
X88138000Y-94234000D01*
X89789000Y-94234000D02*
X91186000Y-92837000D01*
X88138000Y-94234000D02*
X89789000Y-94234000D01*
D29*
X80264004Y-130556000D02*
X79883004Y-130175000D01*
X85401990Y-130556000D02*
X80264004Y-130556000D01*
X85979000Y-129978990D02*
X85401990Y-130556000D01*
X120435259Y-129373741D02*
X120308259Y-129373741D01*
X83825498Y-135995051D02*
X79633005Y-131802558D01*
X79633005Y-130424999D02*
X79883004Y-130175000D01*
X116471813Y-133210187D02*
X110479542Y-133210187D01*
X120308259Y-129373741D02*
X116471813Y-133210187D01*
X121665999Y-128143001D02*
X120435259Y-129373741D01*
X124079000Y-88900000D02*
X125634086Y-90455086D01*
X125358135Y-123657863D02*
X121666000Y-127349998D01*
X121666000Y-127349998D02*
X121665999Y-128143001D01*
X107694678Y-135995051D02*
X83825498Y-135995051D01*
X125634086Y-118793180D02*
X125358136Y-119069130D01*
X110479542Y-133210187D02*
X107694678Y-135995051D01*
X79633005Y-131802558D02*
X79633005Y-130424999D01*
X125634086Y-90455086D02*
X125634086Y-118793180D01*
X125358136Y-119069130D02*
X125358135Y-123657863D01*
X138584447Y-122174000D02*
X138938000Y-122174000D01*
X133731000Y-84582000D02*
X133731000Y-117320553D01*
X133731000Y-117320553D02*
X138584447Y-122174000D01*
X138176000Y-80137000D02*
X133731000Y-84582000D01*
X106203696Y-134239000D02*
X90926957Y-134239000D01*
X90926957Y-134239000D02*
X88646000Y-131958043D01*
X123444000Y-118745000D02*
X121697696Y-118745000D01*
X121697696Y-118745000D02*
X106203696Y-134239000D01*
X86732370Y-130310630D02*
X86163990Y-130879010D01*
X80286935Y-130879010D02*
X80169887Y-130996058D01*
X86163990Y-130879010D02*
X80286935Y-130879010D01*
X121390989Y-127236085D02*
X121390989Y-128029087D01*
X107580765Y-135720040D02*
X84058483Y-135720040D01*
X125083125Y-123543949D02*
X121390989Y-127236085D01*
X120321346Y-129098730D02*
X120194345Y-129098731D01*
X116610099Y-132682977D02*
X110617828Y-132682977D01*
X125359076Y-91323076D02*
X125359076Y-118679266D01*
X84058483Y-135720040D02*
X79919888Y-131581445D01*
X120194345Y-129098731D02*
X116610099Y-132682977D01*
X79919888Y-131581445D02*
X79919888Y-131246057D01*
X110617828Y-132682977D02*
X107580765Y-135720040D01*
X125359076Y-118679266D02*
X125083126Y-118955216D01*
X79919888Y-131246057D02*
X80169887Y-130996058D01*
X125083126Y-118955216D02*
X125083125Y-123543949D01*
X124079000Y-90043000D02*
X125359076Y-91323076D01*
X121390989Y-128029087D02*
X120321346Y-129098730D01*
X149225000Y-121031000D02*
X139445994Y-121031000D01*
X139445994Y-121031000D02*
X138938000Y-121538994D01*
X122314087Y-118469989D02*
X120663087Y-118469989D01*
X122489086Y-118294990D02*
X122314087Y-118469989D01*
X108998635Y-130134441D02*
X108998634Y-131055138D01*
X106195772Y-133858000D02*
X93242794Y-133858000D01*
X124224888Y-118294990D02*
X122489086Y-118294990D01*
X93242794Y-133858000D02*
X91342837Y-131958043D01*
X120663087Y-118469989D02*
X108998635Y-130134441D01*
X108998634Y-131055138D02*
X106195772Y-133858000D01*
X84607640Y-135445029D02*
X107466853Y-135445028D01*
X120163011Y-127545987D02*
X124808114Y-122900884D01*
X125084066Y-94197012D02*
X124359054Y-93472000D01*
X124808114Y-122900884D02*
X124808114Y-118841304D01*
X125084066Y-118565352D02*
X125084066Y-94197012D01*
X80606192Y-131443581D02*
X84607640Y-135445029D01*
X116496187Y-132407965D02*
X120163011Y-128741141D01*
X110503915Y-132407966D02*
X116496187Y-132407965D01*
X120163011Y-128741141D02*
X120163011Y-127545987D01*
X124808114Y-118841304D02*
X125084066Y-118565352D01*
X107466853Y-135445028D02*
X110503915Y-132407966D01*
X140843000Y-118997588D02*
X138937295Y-120903293D01*
X146304000Y-109093000D02*
X141478000Y-109093000D01*
X141478000Y-109093000D02*
X140843000Y-109728000D01*
X140843000Y-109728000D02*
X140843000Y-118997588D01*
X146939000Y-108458000D02*
X146304000Y-109093000D01*
X96683977Y-133392020D02*
X95250000Y-131958043D01*
X123389807Y-117844988D02*
X122550164Y-117844988D01*
X122550164Y-117844988D02*
X122200174Y-118194978D01*
X120549174Y-118194978D02*
X108723625Y-130020527D01*
X108723624Y-130941224D02*
X106272828Y-133392020D01*
X122200174Y-118194978D02*
X120549174Y-118194978D01*
X108723625Y-130020527D02*
X108723624Y-130941224D01*
X106272828Y-133392020D02*
X96683977Y-133392020D01*
X116382273Y-132132955D02*
X119888000Y-128627228D01*
X110390002Y-132132955D02*
X116382273Y-132132955D01*
X119888000Y-127432074D02*
X124533103Y-122786971D01*
X124609053Y-94483999D02*
X124359054Y-94234000D01*
X107352939Y-135170018D02*
X110390002Y-132132955D01*
X86783018Y-135170018D02*
X107352939Y-135170018D01*
X124533103Y-118727391D02*
X124809055Y-118451439D01*
X124533103Y-122786971D02*
X124533103Y-118727391D01*
X119888000Y-128627228D02*
X119888000Y-127432074D01*
X124809055Y-118451439D02*
X124809055Y-94684001D01*
X83312000Y-131699000D02*
X86783018Y-135170018D01*
X124809055Y-94684001D02*
X124609053Y-94483999D01*
X140567987Y-118883677D02*
X139187954Y-120263710D01*
X139187954Y-120263710D02*
X138940467Y-120263710D01*
X140567989Y-109614087D02*
X140567987Y-118883677D01*
X141097000Y-102870000D02*
X141097000Y-109085076D01*
X141097000Y-109085076D02*
X140567989Y-109614087D01*
X108448615Y-129906613D02*
X108448614Y-130827310D01*
X108448614Y-130827310D02*
X106158915Y-133117009D01*
X106158915Y-133117009D02*
X99444749Y-133117009D01*
X124012921Y-117394978D02*
X122611250Y-117394978D01*
X122611250Y-117394978D02*
X122086261Y-117919967D01*
X122086261Y-117919967D02*
X120435261Y-117919967D01*
X120435261Y-117919967D02*
X108448615Y-129906613D01*
X99444749Y-133117009D02*
X98027386Y-131699646D01*
X147193000Y-93345000D02*
X144145000Y-96393000D01*
X143383000Y-100203000D02*
X141732000Y-100203000D01*
X140589000Y-109204152D02*
X140292978Y-109500174D01*
X140292978Y-109500174D02*
X140292977Y-118769763D01*
X141732000Y-100203000D02*
X140589000Y-101346000D01*
X144145000Y-96393000D02*
X144145000Y-99441000D01*
X140292977Y-118769763D02*
X139420165Y-119642575D01*
X140589000Y-101346000D02*
X140589000Y-109204152D01*
X139420165Y-119642575D02*
X139009976Y-119642575D01*
X144145000Y-99441000D02*
X143383000Y-100203000D01*
X123356183Y-116944976D02*
X122672328Y-116944976D01*
X120321348Y-117644956D02*
X106007965Y-131958339D01*
X106007965Y-131958339D02*
X104270996Y-131958339D01*
X122672328Y-116944976D02*
X121972348Y-117644956D01*
X121972348Y-117644956D02*
X120321348Y-117644956D01*
X107962533Y-129367360D02*
X108210020Y-129367360D01*
X120207435Y-117369945D02*
X121858435Y-117369945D01*
X121858435Y-117369945D02*
X122733414Y-116494966D01*
X122733414Y-116494966D02*
X123892859Y-116494966D01*
X108210020Y-129367360D02*
X120207435Y-117369945D01*
X147066000Y-77978000D02*
X143764000Y-81280000D01*
X140208000Y-109196228D02*
X140017967Y-109386261D01*
X143764000Y-81280000D02*
X143764000Y-99314000D01*
X141618086Y-99927990D02*
X140208000Y-101338076D01*
X140017967Y-109386261D02*
X140017967Y-118655849D01*
X140208000Y-101338076D02*
X140208000Y-109196228D01*
X140017967Y-118655849D02*
X139656210Y-119017606D01*
X143150011Y-99927989D02*
X141618086Y-99927990D01*
X143764000Y-99314000D02*
X143150011Y-99927989D01*
X139656210Y-119017606D02*
X139017270Y-119017606D01*
D30*
X45466000Y-137541000D02*
X41910000Y-137541000D01*
X41910000Y-137541000D02*
X40386000Y-136017000D01*
X40386000Y-58420000D02*
X40005000Y-58039000D01*
X40386000Y-136017000D02*
X40386000Y-58420000D01*
D32*
X168593001Y-64834001D02*
X168593001Y-65977001D01*
X170977437Y-69630325D02*
X171330990Y-69630325D01*
X168275000Y-64516000D02*
X168593001Y-64834001D01*
X170699010Y-68083010D02*
X170699010Y-69351898D01*
X170699010Y-69351898D02*
X170977437Y-69630325D01*
X168593001Y-65977001D02*
X170699010Y-68083010D01*
X170434000Y-68326000D02*
X170434000Y-69723000D01*
X168148000Y-66040000D02*
X170434000Y-68326000D01*
X170434000Y-69723000D02*
X170899485Y-70188485D01*
D29*
X165946978Y-68241022D02*
X147801826Y-68241022D01*
X168148000Y-66040000D02*
X165946978Y-68241022D01*
X147801826Y-68241022D02*
X132058989Y-83983859D01*
X132437386Y-120810373D02*
X132083833Y-120810373D01*
X132058989Y-83983859D02*
X132058990Y-97014914D01*
X132080002Y-118237002D02*
X132916166Y-119073166D01*
X132916166Y-119073166D02*
X132916166Y-120331593D01*
X132058990Y-97014914D02*
X132080002Y-97035926D01*
X132916166Y-120331593D02*
X132437386Y-120810373D01*
X132080002Y-97035926D02*
X132080002Y-118237002D01*
X131804991Y-118463838D02*
X132641155Y-119300002D01*
X168021000Y-63345553D02*
X163400542Y-67966011D01*
X132641155Y-119953478D02*
X132408609Y-120186024D01*
X131783980Y-97128828D02*
X131804991Y-97149839D01*
X163400542Y-67966011D02*
X147687912Y-67966012D01*
X168021000Y-62992000D02*
X168021000Y-63345553D01*
X131804991Y-97149839D02*
X131804991Y-118463838D01*
X147687912Y-67966012D02*
X131783979Y-83869947D01*
X132408609Y-120186024D02*
X132055056Y-120186024D01*
X131783979Y-83869947D02*
X131783980Y-97128828D01*
X132641155Y-119300002D02*
X132641155Y-119953478D01*
D32*
X170180000Y-67056000D02*
X170180000Y-65515873D01*
X170180000Y-65515873D02*
X171291081Y-64404792D01*
X171242402Y-69011623D02*
X171242402Y-68118402D01*
X171242402Y-68118402D02*
X170180000Y-67056000D01*
D29*
X168910000Y-92710000D02*
X179705000Y-92710000D01*
X167640000Y-92710000D02*
X168275000Y-92075000D01*
X168275000Y-92075000D02*
X179705000Y-92075000D01*
X87920989Y-122899011D02*
X83998085Y-122899011D01*
X83998085Y-122899011D02*
X83654074Y-122555000D01*
X88265000Y-122555000D02*
X87920989Y-122899011D01*
X83654074Y-122555000D02*
X79942081Y-122555000D01*
X79942081Y-122555000D02*
X78740000Y-122555000D01*
X78343999Y-121396999D02*
X76962000Y-120015000D01*
X76962000Y-120015000D02*
X76200000Y-120015000D01*
X86518002Y-121920000D02*
X85814001Y-122624001D01*
X80010000Y-122047000D02*
X79375000Y-121412000D01*
X83534998Y-122047000D02*
X80010000Y-122047000D01*
X84111999Y-122624001D02*
X83534998Y-122047000D01*
X88773000Y-121920000D02*
X86518002Y-121920000D01*
X85814001Y-122624001D02*
X84111999Y-122624001D01*
X79375000Y-121412000D02*
X78359000Y-121412000D01*
X76200000Y-120015000D02*
X75057000Y-121158000D01*
X75057000Y-121158000D02*
X74676000Y-121539000D01*
X74676000Y-124460000D02*
X69469000Y-129667000D01*
X74676000Y-121539000D02*
X74676000Y-124460000D01*
X69469000Y-133223000D02*
X66675000Y-136017000D01*
X69469000Y-129667000D02*
X69469000Y-133223000D01*
X87725657Y-123840306D02*
X87801843Y-123916492D01*
X76200000Y-122555000D02*
X77485306Y-123840306D01*
X77485306Y-123840306D02*
X87725657Y-123840306D01*
X109728000Y-71374000D02*
X109601000Y-71247000D01*
X101600000Y-78740000D02*
X109093000Y-78740000D01*
X109728000Y-78105000D02*
X109728000Y-71374000D01*
X109093000Y-78740000D02*
X109728000Y-78105000D01*
X100330000Y-77470000D02*
X101600000Y-78740000D01*
X110036955Y-80590045D02*
X110036955Y-71697179D01*
X110036955Y-71697179D02*
X110487611Y-71246523D01*
X109347000Y-81280000D02*
X110036955Y-80590045D01*
X101600000Y-81280000D02*
X109347000Y-81280000D01*
X100330000Y-80010000D02*
X101600000Y-81280000D01*
X94566524Y-136270062D02*
X108056078Y-136270062D01*
X91440000Y-140462000D02*
X91440000Y-139396586D01*
X108056078Y-136270062D02*
X110577075Y-133749065D01*
X91440000Y-139396586D02*
X94566524Y-136270062D01*
X110236000Y-131318000D02*
X109834929Y-131719071D01*
X106325533Y-134895011D02*
X87770086Y-134895010D01*
X87770086Y-134895010D02*
X86846989Y-133971913D01*
X109834929Y-131719071D02*
X109501473Y-131719071D01*
X86846989Y-133971913D02*
X86846990Y-131077086D01*
X89640988Y-121779912D02*
X86040086Y-118179010D01*
X89640988Y-128283088D02*
X89640988Y-121779912D01*
X109501473Y-131719071D02*
X106325533Y-134895011D01*
X86040086Y-118179010D02*
X83185000Y-118179010D01*
X86846990Y-131077086D02*
X89640988Y-128283088D01*
X93980000Y-140462000D02*
X97896927Y-136545073D01*
X97896927Y-136545073D02*
X108662558Y-136545073D01*
X108662558Y-136545073D02*
X111050427Y-134157204D01*
X110490000Y-130810000D02*
X110029544Y-130810000D01*
X87122000Y-131191000D02*
X89915999Y-128397001D01*
X110029544Y-130810000D02*
X109395484Y-131444060D01*
X109395484Y-131444060D02*
X109387560Y-131444060D01*
X109387560Y-131444060D02*
X106211620Y-134620000D01*
X89915999Y-128397001D02*
X89915999Y-121665999D01*
X106211620Y-134620000D02*
X87884000Y-134620000D01*
X110998000Y-131318000D02*
X110490000Y-130810000D01*
X89915999Y-121665999D02*
X85979000Y-117729000D01*
X87884000Y-134620000D02*
X87122000Y-133858000D01*
X87122000Y-133858000D02*
X87122000Y-131191000D01*
X85979000Y-117729000D02*
X82423000Y-117729000D01*
X46990000Y-78994000D02*
X46990000Y-76200000D01*
X48641000Y-80645000D02*
X46990000Y-78994000D01*
X67310000Y-80645000D02*
X48641000Y-80645000D01*
X68453000Y-79502000D02*
X67310000Y-80645000D01*
X47239999Y-80132999D02*
X46990000Y-79883000D01*
X47620999Y-80132999D02*
X47239999Y-80132999D01*
X48408010Y-80920010D02*
X47620999Y-80132999D01*
X67718493Y-80920010D02*
X48408010Y-80920010D01*
X68466071Y-80172432D02*
X67718493Y-80920010D01*
X62738000Y-106553000D02*
X62738000Y-112395000D01*
X70865999Y-124079001D02*
X67364038Y-127580962D01*
X63881000Y-105410000D02*
X62738000Y-106553000D01*
X62738000Y-112395000D02*
X63627000Y-113284000D01*
X68453001Y-113284001D02*
X70866000Y-115697000D01*
X62634772Y-132461000D02*
X58166000Y-132461000D01*
X72390000Y-105410000D02*
X63881000Y-105410000D01*
X70866000Y-115697000D02*
X70865999Y-124079001D01*
X63627000Y-113284000D02*
X68453001Y-113284001D01*
X67364038Y-127580962D02*
X67364038Y-127731734D01*
X58166000Y-132461000D02*
X56007000Y-134620000D01*
X67364038Y-127731734D02*
X62634772Y-132461000D01*
X70590989Y-123965087D02*
X67089029Y-127467047D01*
X63513087Y-113559011D02*
X68339087Y-113559011D01*
X72390000Y-104648000D02*
X64254076Y-104648000D01*
X55910347Y-132185989D02*
X55884668Y-132211668D01*
X64254076Y-104648000D02*
X62462989Y-106439087D01*
X62462990Y-112508914D02*
X63513087Y-113559011D01*
X70590989Y-115810913D02*
X70590989Y-123965087D01*
X62462989Y-106439087D02*
X62462990Y-112508914D01*
X68339087Y-113559011D02*
X70590989Y-115810913D01*
X67089029Y-127467047D02*
X67089029Y-127617819D01*
X67089029Y-127617819D02*
X62520859Y-132185989D01*
X62520859Y-132185989D02*
X55910347Y-132185989D01*
X62597913Y-131720011D02*
X55739913Y-131720011D01*
X55139011Y-134760087D02*
X55739913Y-135360989D01*
X55739913Y-131720011D02*
X55139011Y-132320913D01*
X66814018Y-126977407D02*
X66814018Y-127503906D01*
X66814018Y-127503906D02*
X62597913Y-131720011D01*
X55139011Y-132320913D02*
X55139011Y-134760087D01*
X63146447Y-135382000D02*
X63500000Y-135382000D01*
X55739913Y-135360989D02*
X63125436Y-135360989D01*
X63125436Y-135360989D02*
X63146447Y-135382000D01*
X66929000Y-125222000D02*
X66929000Y-126111000D01*
X66929000Y-126111000D02*
X66167000Y-126873000D01*
X66167000Y-126873000D02*
X66167000Y-127762000D01*
X66167000Y-127762000D02*
X62484000Y-131445000D01*
X62484000Y-131445000D02*
X55626000Y-131445000D01*
X55626000Y-131445000D02*
X54864000Y-132207000D01*
X54864000Y-132207000D02*
X54864000Y-134874000D01*
X54864000Y-134874000D02*
X55626000Y-135636000D01*
X55626000Y-135636000D02*
X62865000Y-135636000D01*
X62865000Y-135636000D02*
X63246000Y-136017000D01*
X63246000Y-136017000D02*
X63754000Y-136017000D01*
X64643000Y-135128000D02*
X66675000Y-135128000D01*
X63754000Y-136017000D02*
X64643000Y-135128000D01*
X98171000Y-139700000D02*
X98171000Y-141351000D01*
X113706082Y-136820082D02*
X101050918Y-136820082D01*
X90424000Y-142240000D02*
X89408000Y-141224000D01*
X97282000Y-142240000D02*
X90424000Y-142240000D01*
X77597000Y-136652000D02*
X70612000Y-129667000D01*
X115062000Y-138176000D02*
X113706082Y-136820082D01*
X98171000Y-141351000D02*
X97282000Y-142240000D01*
X101050918Y-136820082D02*
X98171000Y-139700000D01*
X89408000Y-137922000D02*
X88138000Y-136652000D01*
X88138000Y-136652000D02*
X77597000Y-136652000D01*
X89408000Y-141224000D02*
X89408000Y-137922000D01*
X46990000Y-120904000D02*
X47371000Y-120904000D01*
X47371000Y-120904000D02*
X49276000Y-122809000D01*
X49276000Y-122809000D02*
X66167000Y-122809000D01*
X66167000Y-122809000D02*
X67437000Y-122809000D01*
X67818000Y-122809000D02*
X68453000Y-122174000D01*
X67437000Y-122809000D02*
X67818000Y-122809000D01*
X46990000Y-118237000D02*
X46990000Y-120015000D01*
X49435001Y-122460001D02*
X65691001Y-122460001D01*
X46990000Y-120015000D02*
X49435001Y-122460001D01*
X65691001Y-122460001D02*
X65723002Y-122428000D01*
X67310000Y-122428000D02*
X68453000Y-121285000D01*
X65723002Y-122428000D02*
X67310000Y-122428000D01*
X169799000Y-94742000D02*
X162433000Y-94742000D01*
X162433000Y-94742000D02*
X156464000Y-100711000D01*
X147447000Y-100711000D02*
X147066000Y-101092000D01*
X156464000Y-100711000D02*
X147447000Y-100711000D01*
X96393000Y-99060000D02*
X96642999Y-99309999D01*
X96642999Y-103382001D02*
X95398011Y-104626989D01*
X95398010Y-107936914D02*
X94728913Y-108606011D01*
X96642999Y-99309999D02*
X96642999Y-103382001D01*
X94728913Y-108606011D02*
X67358458Y-108606011D01*
X95398011Y-104626989D02*
X95398010Y-107936914D01*
X67358458Y-108606011D02*
X65532000Y-106779553D01*
X65532000Y-106779553D02*
X65532000Y-106426000D01*
X169799000Y-93853000D02*
X162687000Y-93853000D01*
X156337000Y-100203000D02*
X147066000Y-100203000D01*
X162687000Y-93853000D02*
X156337000Y-100203000D01*
X96393000Y-96520000D02*
X96393000Y-98171000D01*
X96393000Y-98171000D02*
X95885000Y-98679000D01*
X95885000Y-98679000D02*
X95885000Y-99822000D01*
X95885000Y-99822000D02*
X96139000Y-100076000D01*
X96139000Y-100076000D02*
X96139000Y-103378000D01*
X96139000Y-103378000D02*
X95123000Y-104394000D01*
X95123000Y-104394000D02*
X95123000Y-107823000D01*
X95123000Y-107823000D02*
X94615000Y-108331000D01*
X94615000Y-108331000D02*
X71501000Y-108331000D01*
X71501000Y-108331000D02*
X69977000Y-106807000D01*
X49485278Y-102952278D02*
X66719722Y-102952278D01*
X66719722Y-102952278D02*
X68453000Y-101219000D01*
X46863000Y-100330000D02*
X49485278Y-102952278D01*
X49941782Y-100360782D02*
X68375865Y-100360782D01*
X46990000Y-97409000D02*
X49941782Y-100360782D01*
X78867000Y-97790000D02*
X78867000Y-87884000D01*
X78867000Y-87884000D02*
X77724000Y-86741000D01*
X77724000Y-86741000D02*
X77724000Y-65659000D01*
X77724000Y-65659000D02*
X80264000Y-63119000D01*
X145796000Y-63119000D02*
X146685000Y-62230000D01*
X80264000Y-63119000D02*
X145796000Y-63119000D01*
X110336966Y-81687034D02*
X110336966Y-72670034D01*
X100330000Y-82550000D02*
X101600000Y-83820000D01*
X101600000Y-83820000D02*
X108204000Y-83820000D01*
X108204000Y-83820000D02*
X110336966Y-81687034D01*
X110336966Y-72670034D02*
X111125000Y-71882000D01*
X102870000Y-82550000D02*
X108585000Y-82550000D01*
X102870000Y-85090000D02*
X108802234Y-85090000D01*
X108802234Y-85090000D02*
X109328617Y-85616383D01*
X109400468Y-86360000D02*
X109627738Y-86587270D01*
X101600000Y-86360000D02*
X109400468Y-86360000D01*
X100330000Y-87630000D02*
X101600000Y-86360000D01*
X100330000Y-90170000D02*
X101725162Y-88774838D01*
X101725162Y-88774838D02*
X107824839Y-88774838D01*
X109199149Y-88239394D02*
X109746910Y-87691633D01*
X100330000Y-92710000D02*
X101600000Y-93980000D01*
X101600000Y-93980000D02*
X103715722Y-93980000D01*
X109199149Y-88496572D02*
X109199149Y-88239394D01*
X103715722Y-93980000D02*
X109199149Y-88496572D01*
X102870000Y-92710000D02*
X104561443Y-92710000D01*
X104561443Y-92710000D02*
X108585000Y-88686444D01*
X108585000Y-88686444D02*
X108585000Y-87630000D01*
X109478356Y-88641644D02*
X109674151Y-88641644D01*
X102870000Y-95250000D02*
X109478356Y-88641644D01*
X110363000Y-89662000D02*
X110363000Y-89281000D01*
X110998000Y-95160610D02*
X110998000Y-90297000D01*
X110998000Y-90297000D02*
X110363000Y-89662000D01*
X107098610Y-99060000D02*
X110998000Y-95160610D01*
X100330000Y-97790000D02*
X101600000Y-99060000D01*
X110363000Y-89281000D02*
X111252000Y-88392000D01*
X101600000Y-99060000D02*
X107098610Y-99060000D01*
X111252000Y-79669449D02*
X110811976Y-79229425D01*
X111252000Y-88392000D02*
X111252000Y-79669449D01*
X110936980Y-77406857D02*
X110936980Y-76816566D01*
X110636977Y-77706860D02*
X110936980Y-77406857D01*
X110636977Y-78413329D02*
X110636977Y-77706860D01*
X110975796Y-78752148D02*
X110636977Y-78413329D01*
X111633000Y-95374166D02*
X111633000Y-79374319D01*
X111633000Y-79374319D02*
X111010829Y-78752148D01*
X100330000Y-100330000D02*
X101600000Y-101600000D01*
X105407166Y-101600000D02*
X111633000Y-95374166D01*
X101600000Y-101600000D02*
X105407166Y-101600000D01*
X111010829Y-78752148D02*
X110975796Y-78752148D01*
X111298011Y-89827552D02*
X110950701Y-89480242D01*
X102870000Y-100330000D02*
X106252888Y-100330000D01*
X106252888Y-100330000D02*
X111298011Y-95284878D01*
X111298011Y-95284878D02*
X111298011Y-89827552D01*
X112233022Y-95622702D02*
X112233022Y-78858861D01*
X101600000Y-104140000D02*
X103715722Y-104140000D01*
X100330000Y-102870000D02*
X101600000Y-104140000D01*
X112233022Y-78858861D02*
X111446561Y-78072400D01*
X103715722Y-104140000D02*
X112233022Y-95622702D01*
X104561444Y-102870000D02*
X111933011Y-95498434D01*
X111933011Y-79250051D02*
X110936988Y-78254028D01*
X111933011Y-95498434D02*
X111933011Y-79250051D01*
X110936988Y-78254028D02*
X110936988Y-77885397D01*
X102870000Y-102870000D02*
X104561444Y-102870000D01*
X110936988Y-77885397D02*
X111411990Y-77410395D01*
X111411990Y-77410395D02*
X111411990Y-76200000D01*
X112533033Y-95746967D02*
X112533033Y-78510336D01*
X102870000Y-105410000D02*
X112533033Y-95746967D01*
X112533033Y-78510336D02*
X111887000Y-77864303D01*
X111887000Y-76073000D02*
X112780001Y-75179999D01*
X111887000Y-77864303D02*
X111887000Y-76073000D01*
X112780001Y-75179999D02*
X113030000Y-74930000D01*
X104917802Y-109220000D02*
X109027813Y-113330011D01*
X121920000Y-69342000D02*
X121920000Y-68580000D01*
X118234268Y-113330011D02*
X120544966Y-111019313D01*
X121077011Y-70184989D02*
X121920000Y-69342000D01*
X121433011Y-103708510D02*
X121433010Y-85685462D01*
X120544966Y-104596555D02*
X121433011Y-103708510D01*
X101600000Y-109220000D02*
X104917802Y-109220000D01*
X109027813Y-113330011D02*
X118234268Y-113330011D01*
X121433010Y-85685462D02*
X121077011Y-85329463D01*
X100330000Y-107950000D02*
X101600000Y-109220000D01*
X120544966Y-111019313D02*
X120544966Y-104596555D01*
X121077011Y-85329463D02*
X121077011Y-70184989D01*
X113411000Y-94996000D02*
X112881990Y-94466990D01*
X113919000Y-69088000D02*
X115062000Y-67945000D01*
X113919000Y-74803000D02*
X113919000Y-69088000D01*
X112881990Y-94466990D02*
X112881990Y-75840010D01*
X112881990Y-75840010D02*
X113919000Y-74803000D01*
X115062000Y-67945000D02*
X115697000Y-67945000D01*
X121035001Y-69464999D02*
X121285000Y-69215000D01*
X121158000Y-103594597D02*
X121158000Y-85799376D01*
X120222993Y-104765249D02*
X120222994Y-104529603D01*
X120222994Y-104529603D02*
X121158000Y-103594597D01*
X120244940Y-104926885D02*
X120222990Y-104904934D01*
X120244939Y-104933415D02*
X120244940Y-104926885D01*
X118110000Y-113030000D02*
X120244955Y-110895045D01*
X109152081Y-113030000D02*
X118110000Y-113030000D01*
X102870000Y-107950000D02*
X104072081Y-107950000D01*
X104072081Y-107950000D02*
X109152081Y-113030000D01*
X120777000Y-85418376D02*
X120777000Y-69723000D01*
X120222990Y-104904934D02*
X120222993Y-104765249D01*
X120244958Y-104933434D02*
X120244939Y-104933415D01*
X120777000Y-69723000D02*
X121035001Y-69464999D01*
X120244955Y-110895045D02*
X120244958Y-104933434D01*
X121158000Y-85799376D02*
X120777000Y-85418376D01*
X115697000Y-68707000D02*
X114808000Y-68707000D01*
X114808000Y-68707000D02*
X114300000Y-69215000D01*
X114300000Y-69215000D02*
X114300000Y-74930000D01*
X114300000Y-74930000D02*
X113284000Y-75946000D01*
X113284000Y-75946000D02*
X113284000Y-91186000D01*
X113284000Y-91186000D02*
X114046000Y-91948000D01*
X114046000Y-95377000D02*
X113411000Y-96012000D01*
X114046000Y-91948000D02*
X114046000Y-95377000D01*
X120844977Y-111143581D02*
X120844977Y-104685468D01*
X106928511Y-111654988D02*
X108903545Y-113630022D01*
X120844977Y-104685468D02*
X121708021Y-103822422D01*
X118358536Y-113630022D02*
X120844977Y-111143581D01*
X121708020Y-85571548D02*
X121377022Y-85240550D01*
X108903545Y-113630022D02*
X118358536Y-113630022D01*
X121377022Y-85240550D02*
X121377022Y-73567978D01*
X121708021Y-103822422D02*
X121708020Y-85571548D01*
X122305001Y-72639999D02*
X122555000Y-72390000D01*
X121377022Y-73567978D02*
X122305001Y-72639999D01*
X100330000Y-110490000D02*
X101494988Y-111654988D01*
X101494988Y-111654988D02*
X106928511Y-111654988D01*
X101405001Y-111954999D02*
X106804243Y-111954999D01*
X118482804Y-113930033D02*
X121144988Y-111267849D01*
X121983031Y-103936334D02*
X121983030Y-85457634D01*
X100330000Y-113030000D02*
X101405001Y-111954999D01*
X121144988Y-111267849D02*
X121144988Y-104774379D01*
X106804243Y-111954999D02*
X108779277Y-113930033D01*
X108779277Y-113930033D02*
X118482804Y-113930033D01*
X121144988Y-104774379D02*
X121983031Y-103936334D01*
X121983030Y-85457634D02*
X121677033Y-85151637D01*
X121677033Y-85151637D02*
X121677033Y-75807967D01*
X121677033Y-75807967D02*
X122940001Y-74544999D01*
X122940001Y-74544999D02*
X123190000Y-74295000D01*
X102870000Y-113030000D02*
X104070044Y-114230044D01*
X121444999Y-111392117D02*
X121444999Y-104863290D01*
X104070044Y-114230044D02*
X118607072Y-114230044D01*
X121444999Y-104863290D02*
X122258041Y-104050246D01*
X122258041Y-84788725D02*
X122573383Y-84473383D01*
X122258041Y-104050246D02*
X122258041Y-84788725D01*
X118607072Y-114230044D02*
X121444999Y-111392117D01*
X122809000Y-85756385D02*
X122708051Y-85655436D01*
X120833576Y-115719879D02*
X122809000Y-113744455D01*
X119523957Y-115719879D02*
X120833576Y-115719879D01*
X117133836Y-118110000D02*
X119523957Y-115719879D01*
X106045000Y-118110000D02*
X117133836Y-118110000D01*
X104775000Y-116840000D02*
X106045000Y-118110000D01*
X101600000Y-116840000D02*
X104775000Y-116840000D01*
X122809000Y-113744455D02*
X122809000Y-85756385D01*
X100330000Y-115570000D02*
X101600000Y-116840000D01*
X104669639Y-119380000D02*
X105339617Y-118710022D01*
X121061402Y-116269901D02*
X123359022Y-113972281D01*
X117311662Y-118710022D02*
X119751783Y-116269901D01*
X105339617Y-118710022D02*
X117311662Y-118710022D01*
X100330000Y-118110000D02*
X101600000Y-119380000D01*
X101600000Y-119380000D02*
X104669639Y-119380000D01*
X119751783Y-116269901D02*
X121061402Y-116269901D01*
X123359022Y-90979999D02*
X123534021Y-90805000D01*
X123359022Y-113972281D02*
X123359022Y-90979999D01*
X123084011Y-113858368D02*
X123084011Y-88439999D01*
X120947490Y-115994889D02*
X123084011Y-113858368D01*
X117222749Y-118410011D02*
X119637870Y-115994890D01*
X119637870Y-115994890D02*
X120947490Y-115994889D01*
X123084011Y-88439999D02*
X123259010Y-88265000D01*
X105620722Y-118110000D02*
X105920732Y-118410011D01*
X102870000Y-118110000D02*
X105620722Y-118110000D01*
X105920732Y-118410011D02*
X117222749Y-118410011D01*
X123909044Y-95932999D02*
X124084043Y-95758000D01*
X119979609Y-116819923D02*
X121289228Y-116819923D01*
X100330000Y-120650000D02*
X101600000Y-121920000D01*
X121289228Y-116819923D02*
X123909044Y-114200107D01*
X101600000Y-121920000D02*
X103191002Y-121920000D01*
X103191002Y-121920000D02*
X104140000Y-122868998D01*
X104140000Y-122868998D02*
X113930534Y-122868998D01*
X113930534Y-122868998D02*
X119979609Y-116819923D01*
X123909044Y-114200107D02*
X123909044Y-95932999D01*
X117400575Y-119010033D02*
X119865696Y-116544912D01*
X121175316Y-116544911D02*
X123634033Y-114086194D01*
X119865696Y-116544912D02*
X121175316Y-116544911D01*
X123634033Y-114086194D02*
X123634033Y-91614999D01*
X104072081Y-120650000D02*
X105712048Y-119010033D01*
X123634033Y-91614999D02*
X123809032Y-91440000D01*
X105712048Y-119010033D02*
X117400575Y-119010033D01*
X102870000Y-120650000D02*
X104072081Y-120650000D01*
X120093522Y-117094934D02*
X121411066Y-117094934D01*
X123909044Y-94916997D02*
X123909044Y-92249999D01*
X102870000Y-123190000D02*
X113998456Y-123190000D01*
X123909044Y-92249999D02*
X124084043Y-92075000D01*
X124258095Y-114247905D02*
X124258095Y-96249952D01*
X124534045Y-95974002D02*
X124534045Y-95541998D01*
X113998456Y-123190000D02*
X120093522Y-117094934D01*
X121411066Y-117094934D02*
X124258095Y-114247905D01*
X124534045Y-95541998D02*
X123909044Y-94916997D01*
X124258095Y-96249952D02*
X124534045Y-95974002D01*
X131233959Y-77927117D02*
X132129898Y-77031178D01*
X147320000Y-139065000D02*
X147320000Y-138390380D01*
X147320000Y-138390380D02*
X131254968Y-122325348D01*
X131233958Y-97356650D02*
X131233959Y-77927117D01*
X131254968Y-122325348D02*
X131254968Y-97377660D01*
X131254968Y-97377660D02*
X131233958Y-97356650D01*
X132129898Y-77031178D02*
X132129898Y-76393607D01*
X132129898Y-76393607D02*
X131879899Y-76143608D01*
X130958949Y-77813203D02*
X130961045Y-77811107D01*
X130961045Y-77811107D02*
X130961045Y-70862598D01*
X130810000Y-70711553D02*
X130810000Y-70358000D01*
X130958948Y-97470562D02*
X130958949Y-77813203D01*
X145619195Y-139430154D02*
X145619195Y-137078499D01*
X130961045Y-70862598D02*
X130810000Y-70711553D01*
X145619195Y-137078499D02*
X130961045Y-122420349D01*
X130961045Y-122420349D02*
X130961045Y-97472661D01*
X130961045Y-97472661D02*
X130958948Y-97470562D01*
X130498956Y-75710737D02*
X130498956Y-71443950D01*
X129663005Y-70607999D02*
X129413006Y-70358000D01*
X144126617Y-135974845D02*
X130661034Y-122509262D01*
X130498956Y-71443950D02*
X129663005Y-70607999D01*
X130661034Y-75872815D02*
X130498956Y-75710737D01*
X144126617Y-139083383D02*
X144126617Y-135974845D01*
X130661034Y-122509262D02*
X130661034Y-75872815D01*
X141605000Y-139065000D02*
X141605000Y-133842152D01*
X130198945Y-75799650D02*
X130198945Y-72262319D01*
X130198945Y-72262319D02*
X129675309Y-71738683D01*
X141605000Y-133842152D02*
X130361023Y-122598175D01*
X130361023Y-122598175D02*
X130361023Y-75961728D01*
X129675309Y-71738683D02*
X129425310Y-71488684D01*
X130361023Y-75961728D02*
X130198945Y-75799650D01*
X129413000Y-75791553D02*
X129413000Y-75438000D01*
X129761001Y-76139554D02*
X129413000Y-75791553D01*
X129761001Y-122776001D02*
X129761001Y-76139554D01*
X140335000Y-133350000D02*
X129761001Y-122776001D01*
X140335000Y-139065000D02*
X140335000Y-133350000D01*
X139700000Y-139700000D02*
X140589000Y-139700000D01*
X141016011Y-133642087D02*
X130061012Y-122687088D01*
X139065000Y-139065000D02*
X139700000Y-139700000D01*
X129898934Y-75888563D02*
X129898934Y-74653934D01*
X141016011Y-139272989D02*
X141016011Y-133642087D01*
X129898934Y-74653934D02*
X129413000Y-74168000D01*
X130061012Y-76050641D02*
X129898934Y-75888563D01*
X130061012Y-122687088D02*
X130061012Y-76050641D01*
X140589000Y-139700000D02*
X141016011Y-139272989D01*
X131529980Y-118914835D02*
X132191155Y-119576010D01*
X131508968Y-83756032D02*
X131508968Y-97242738D01*
X131529980Y-97263752D02*
X131529980Y-118914835D01*
X147574000Y-67691000D02*
X131508968Y-83756032D01*
X165100000Y-65786000D02*
X163195000Y-67691000D01*
X165100000Y-64040990D02*
X165100000Y-65786000D01*
X131508968Y-97242738D02*
X131529980Y-97263752D01*
X163195000Y-67691000D02*
X147574000Y-67691000D01*
X132588000Y-83843772D02*
X147627782Y-68803990D01*
X164449623Y-68803990D02*
X164699622Y-69053989D01*
X132588000Y-97155000D02*
X132588000Y-83843772D01*
X147627782Y-68803990D02*
X164449623Y-68803990D01*
G36*
X82845345Y-94903484D02*
G01*
X82849920Y-94926485D01*
X82852218Y-94949816D01*
X82859024Y-94972251D01*
X82863599Y-94995253D01*
X82872573Y-95016919D01*
X82879379Y-95039354D01*
X82890432Y-95060033D01*
X82899406Y-95081698D01*
X82912431Y-95101192D01*
X82923486Y-95121874D01*
X82938365Y-95140004D01*
X82951389Y-95159496D01*
X82967966Y-95176073D01*
X82982844Y-95194202D01*
X83000973Y-95209080D01*
X83017550Y-95225657D01*
X83037042Y-95238681D01*
X83055172Y-95253560D01*
X83075855Y-95264615D01*
X83095348Y-95277640D01*
X83117009Y-95286612D01*
X83137691Y-95297667D01*
X83160130Y-95304474D01*
X83181793Y-95313447D01*
X83204792Y-95318022D01*
X83227229Y-95324828D01*
X83250563Y-95327126D01*
X83273562Y-95331701D01*
X83297013Y-95331701D01*
X83320345Y-95333999D01*
X83343677Y-95331701D01*
X83367128Y-95331701D01*
X83390128Y-95327126D01*
X83413460Y-95324828D01*
X83435895Y-95318022D01*
X83458897Y-95313447D01*
X83480563Y-95304473D01*
X83502998Y-95297667D01*
X83523677Y-95286614D01*
X83545342Y-95277640D01*
X83564836Y-95264615D01*
X83585518Y-95253560D01*
X83603648Y-95238681D01*
X83623140Y-95225657D01*
X83639717Y-95209080D01*
X83657846Y-95194202D01*
X83672724Y-95176073D01*
X83689301Y-95159496D01*
X83702325Y-95140004D01*
X83717204Y-95121874D01*
X83728259Y-95101191D01*
X83741284Y-95081698D01*
X83750256Y-95060037D01*
X83761311Y-95039355D01*
X83768118Y-95016916D01*
X83777091Y-94995253D01*
X83781666Y-94972254D01*
X83788472Y-94949817D01*
X83790770Y-94926484D01*
X83795345Y-94903484D01*
X83795345Y-94803406D01*
X83883501Y-94715251D01*
X84991620Y-95823371D01*
X85006499Y-95841501D01*
X85078827Y-95900859D01*
X85161346Y-95944966D01*
X85223722Y-95963888D01*
X85250883Y-95972127D01*
X85343999Y-95981298D01*
X85367331Y-95979000D01*
X86844668Y-95979000D01*
X86868000Y-95981298D01*
X86891332Y-95979000D01*
X86961116Y-95972127D01*
X87050654Y-95944966D01*
X87133173Y-95900859D01*
X87205501Y-95841501D01*
X87220384Y-95823366D01*
X87713533Y-95330217D01*
X88298000Y-95330217D01*
X88298000Y-95423783D01*
X88316254Y-95515552D01*
X88352061Y-95601997D01*
X88404044Y-95679795D01*
X88470205Y-95745956D01*
X88548003Y-95797939D01*
X88634448Y-95833746D01*
X88726217Y-95852000D01*
X88819783Y-95852000D01*
X88911552Y-95833746D01*
X88997997Y-95797939D01*
X89075795Y-95745956D01*
X89141956Y-95679795D01*
X89193939Y-95601997D01*
X89229746Y-95515552D01*
X89248000Y-95423783D01*
X89248000Y-95330217D01*
X89229746Y-95238448D01*
X89193939Y-95152003D01*
X89141956Y-95074205D01*
X89075795Y-95008044D01*
X88997997Y-94956061D01*
X88911552Y-94920254D01*
X88819783Y-94902000D01*
X88726217Y-94902000D01*
X88634448Y-94920254D01*
X88548003Y-94956061D01*
X88470205Y-95008044D01*
X88404044Y-95074205D01*
X88352061Y-95152003D01*
X88316254Y-95238448D01*
X88298000Y-95330217D01*
X87713533Y-95330217D01*
X88334751Y-94709000D01*
X89765668Y-94709000D01*
X89789000Y-94711298D01*
X89812332Y-94709000D01*
X89882116Y-94702127D01*
X89922093Y-94690000D01*
X93270000Y-94690000D01*
X93270000Y-100853249D01*
X93266795Y-100850044D01*
X93188997Y-100798061D01*
X93102552Y-100762254D01*
X93010783Y-100744000D01*
X92917217Y-100744000D01*
X92825448Y-100762254D01*
X92739003Y-100798061D01*
X92661205Y-100850044D01*
X92595044Y-100916205D01*
X92543061Y-100994003D01*
X92507254Y-101080448D01*
X92489000Y-101172217D01*
X92489000Y-101265783D01*
X92507254Y-101357552D01*
X92543061Y-101443997D01*
X92595044Y-101521795D01*
X92661205Y-101587956D01*
X92739003Y-101639939D01*
X92825448Y-101675746D01*
X92917217Y-101694000D01*
X93010783Y-101694000D01*
X93102552Y-101675746D01*
X93188997Y-101639939D01*
X93266795Y-101587956D01*
X93270000Y-101584751D01*
X93270000Y-107239315D01*
X86514309Y-107177900D01*
X86526939Y-107158997D01*
X86562746Y-107072552D01*
X86581000Y-106980783D01*
X86581000Y-106887217D01*
X86562746Y-106795448D01*
X86526939Y-106709003D01*
X86474956Y-106631205D01*
X86408795Y-106565044D01*
X86330997Y-106513061D01*
X86244552Y-106477254D01*
X86152783Y-106459000D01*
X86059217Y-106459000D01*
X85967448Y-106477254D01*
X85881003Y-106513061D01*
X85803205Y-106565044D01*
X85737044Y-106631205D01*
X85685061Y-106709003D01*
X85649254Y-106795448D01*
X85631000Y-106887217D01*
X85631000Y-106980783D01*
X85649254Y-107072552D01*
X85685061Y-107158997D01*
X85692701Y-107170431D01*
X79450000Y-107113679D01*
X79450000Y-104093217D01*
X79535000Y-104093217D01*
X79535000Y-104186783D01*
X79553254Y-104278552D01*
X79589061Y-104364997D01*
X79641044Y-104442795D01*
X79707205Y-104508956D01*
X79785003Y-104560939D01*
X79871448Y-104596746D01*
X79963217Y-104615000D01*
X80056783Y-104615000D01*
X80148552Y-104596746D01*
X80234997Y-104560939D01*
X80312795Y-104508956D01*
X80378956Y-104442795D01*
X80430939Y-104364997D01*
X80466746Y-104278552D01*
X80485000Y-104186783D01*
X80485000Y-104093217D01*
X80466746Y-104001448D01*
X80430939Y-103915003D01*
X80380301Y-103839217D01*
X91854000Y-103839217D01*
X91854000Y-103932783D01*
X91872254Y-104024552D01*
X91908061Y-104110997D01*
X91960044Y-104188795D01*
X92026205Y-104254956D01*
X92104003Y-104306939D01*
X92190448Y-104342746D01*
X92282217Y-104361000D01*
X92375783Y-104361000D01*
X92467552Y-104342746D01*
X92553997Y-104306939D01*
X92631795Y-104254956D01*
X92697956Y-104188795D01*
X92749939Y-104110997D01*
X92785746Y-104024552D01*
X92804000Y-103932783D01*
X92804000Y-103839217D01*
X92785746Y-103747448D01*
X92749939Y-103661003D01*
X92697956Y-103583205D01*
X92631795Y-103517044D01*
X92553997Y-103465061D01*
X92467552Y-103429254D01*
X92375783Y-103411000D01*
X92282217Y-103411000D01*
X92190448Y-103429254D01*
X92104003Y-103465061D01*
X92026205Y-103517044D01*
X91960044Y-103583205D01*
X91908061Y-103661003D01*
X91872254Y-103747448D01*
X91854000Y-103839217D01*
X80380301Y-103839217D01*
X80378956Y-103837205D01*
X80312795Y-103771044D01*
X80234997Y-103719061D01*
X80148552Y-103683254D01*
X80056783Y-103665000D01*
X79963217Y-103665000D01*
X79871448Y-103683254D01*
X79785003Y-103719061D01*
X79707205Y-103771044D01*
X79641044Y-103837205D01*
X79589061Y-103915003D01*
X79553254Y-104001448D01*
X79535000Y-104093217D01*
X79450000Y-104093217D01*
X79450000Y-102143594D01*
X84385000Y-102143594D01*
X84385000Y-102286406D01*
X84412861Y-102426475D01*
X84467513Y-102558416D01*
X84546856Y-102677161D01*
X84647839Y-102778144D01*
X84766584Y-102857487D01*
X84898525Y-102912139D01*
X85038594Y-102940000D01*
X85181406Y-102940000D01*
X85321475Y-102912139D01*
X85453416Y-102857487D01*
X85572161Y-102778144D01*
X85673144Y-102677161D01*
X85752487Y-102558416D01*
X85807139Y-102426475D01*
X85835000Y-102286406D01*
X85835000Y-102143594D01*
X86885000Y-102143594D01*
X86885000Y-102286406D01*
X86912861Y-102426475D01*
X86967513Y-102558416D01*
X87046856Y-102677161D01*
X87147839Y-102778144D01*
X87266584Y-102857487D01*
X87398525Y-102912139D01*
X87538594Y-102940000D01*
X87681406Y-102940000D01*
X87821475Y-102912139D01*
X87953416Y-102857487D01*
X88072161Y-102778144D01*
X88173144Y-102677161D01*
X88252487Y-102558416D01*
X88307139Y-102426475D01*
X88335000Y-102286406D01*
X88335000Y-102143594D01*
X88307139Y-102003525D01*
X88252487Y-101871584D01*
X88173144Y-101752839D01*
X88072161Y-101651856D01*
X87953416Y-101572513D01*
X87821475Y-101517861D01*
X87681406Y-101490000D01*
X87538594Y-101490000D01*
X87398525Y-101517861D01*
X87266584Y-101572513D01*
X87147839Y-101651856D01*
X87046856Y-101752839D01*
X86967513Y-101871584D01*
X86912861Y-102003525D01*
X86885000Y-102143594D01*
X85835000Y-102143594D01*
X85807139Y-102003525D01*
X85752487Y-101871584D01*
X85673144Y-101752839D01*
X85572161Y-101651856D01*
X85453416Y-101572513D01*
X85321475Y-101517861D01*
X85181406Y-101490000D01*
X85038594Y-101490000D01*
X84898525Y-101517861D01*
X84766584Y-101572513D01*
X84647839Y-101651856D01*
X84546856Y-101752839D01*
X84467513Y-101871584D01*
X84412861Y-102003525D01*
X84385000Y-102143594D01*
X79450000Y-102143594D01*
X79450000Y-100893594D01*
X85635000Y-100893594D01*
X85635000Y-101036406D01*
X85662861Y-101176475D01*
X85717513Y-101308416D01*
X85796856Y-101427161D01*
X85897839Y-101528144D01*
X86016584Y-101607487D01*
X86148525Y-101662139D01*
X86288594Y-101690000D01*
X86431406Y-101690000D01*
X86571475Y-101662139D01*
X86703416Y-101607487D01*
X86822161Y-101528144D01*
X86923144Y-101427161D01*
X87002487Y-101308416D01*
X87057139Y-101176475D01*
X87085000Y-101036406D01*
X87085000Y-100893594D01*
X87057139Y-100753525D01*
X87002487Y-100621584D01*
X86923144Y-100502839D01*
X86822161Y-100401856D01*
X86703416Y-100322513D01*
X86571475Y-100267861D01*
X86431406Y-100240000D01*
X86288594Y-100240000D01*
X86148525Y-100267861D01*
X86016584Y-100322513D01*
X85897839Y-100401856D01*
X85796856Y-100502839D01*
X85717513Y-100621584D01*
X85662861Y-100753525D01*
X85635000Y-100893594D01*
X79450000Y-100893594D01*
X79450000Y-100156217D01*
X80043000Y-100156217D01*
X80043000Y-100249783D01*
X80061254Y-100341552D01*
X80097061Y-100427997D01*
X80149044Y-100505795D01*
X80215205Y-100571956D01*
X80293003Y-100623939D01*
X80379448Y-100659746D01*
X80471217Y-100678000D01*
X80564783Y-100678000D01*
X80656552Y-100659746D01*
X80742997Y-100623939D01*
X80820795Y-100571956D01*
X80886956Y-100505795D01*
X80938939Y-100427997D01*
X80974746Y-100341552D01*
X80993000Y-100249783D01*
X80993000Y-100156217D01*
X80974746Y-100064448D01*
X80938939Y-99978003D01*
X80886956Y-99900205D01*
X80820795Y-99834044D01*
X80742997Y-99782061D01*
X80656552Y-99746254D01*
X80564783Y-99728000D01*
X80471217Y-99728000D01*
X80379448Y-99746254D01*
X80293003Y-99782061D01*
X80215205Y-99834044D01*
X80149044Y-99900205D01*
X80097061Y-99978003D01*
X80061254Y-100064448D01*
X80043000Y-100156217D01*
X79450000Y-100156217D01*
X79450000Y-99643594D01*
X84385000Y-99643594D01*
X84385000Y-99786406D01*
X84412861Y-99926475D01*
X84467513Y-100058416D01*
X84546856Y-100177161D01*
X84647839Y-100278144D01*
X84766584Y-100357487D01*
X84898525Y-100412139D01*
X85038594Y-100440000D01*
X85181406Y-100440000D01*
X85321475Y-100412139D01*
X85453416Y-100357487D01*
X85572161Y-100278144D01*
X85673144Y-100177161D01*
X85752487Y-100058416D01*
X85807139Y-99926475D01*
X85835000Y-99786406D01*
X85835000Y-99643594D01*
X86885000Y-99643594D01*
X86885000Y-99786406D01*
X86912861Y-99926475D01*
X86967513Y-100058416D01*
X87046856Y-100177161D01*
X87147839Y-100278144D01*
X87266584Y-100357487D01*
X87398525Y-100412139D01*
X87538594Y-100440000D01*
X87681406Y-100440000D01*
X87821475Y-100412139D01*
X87953416Y-100357487D01*
X88072161Y-100278144D01*
X88173144Y-100177161D01*
X88252487Y-100058416D01*
X88307139Y-99926475D01*
X88335000Y-99786406D01*
X88335000Y-99643594D01*
X88307139Y-99503525D01*
X88252487Y-99371584D01*
X88173144Y-99252839D01*
X88072161Y-99151856D01*
X87953416Y-99072513D01*
X87821475Y-99017861D01*
X87681406Y-98990000D01*
X87538594Y-98990000D01*
X87398525Y-99017861D01*
X87266584Y-99072513D01*
X87147839Y-99151856D01*
X87046856Y-99252839D01*
X86967513Y-99371584D01*
X86912861Y-99503525D01*
X86885000Y-99643594D01*
X85835000Y-99643594D01*
X85807139Y-99503525D01*
X85752487Y-99371584D01*
X85673144Y-99252839D01*
X85572161Y-99151856D01*
X85453416Y-99072513D01*
X85321475Y-99017861D01*
X85181406Y-98990000D01*
X85038594Y-98990000D01*
X84898525Y-99017861D01*
X84766584Y-99072513D01*
X84647839Y-99151856D01*
X84546856Y-99252839D01*
X84467513Y-99371584D01*
X84412861Y-99503525D01*
X84385000Y-99643594D01*
X79450000Y-99643594D01*
X79450000Y-97616217D01*
X91981000Y-97616217D01*
X91981000Y-97709783D01*
X91999254Y-97801552D01*
X92035061Y-97887997D01*
X92087044Y-97965795D01*
X92153205Y-98031956D01*
X92231003Y-98083939D01*
X92317448Y-98119746D01*
X92409217Y-98138000D01*
X92502783Y-98138000D01*
X92594552Y-98119746D01*
X92680997Y-98083939D01*
X92758795Y-98031956D01*
X92824956Y-97965795D01*
X92876939Y-97887997D01*
X92912746Y-97801552D01*
X92931000Y-97709783D01*
X92931000Y-97616217D01*
X92912746Y-97524448D01*
X92876939Y-97438003D01*
X92824956Y-97360205D01*
X92758795Y-97294044D01*
X92680997Y-97242061D01*
X92594552Y-97206254D01*
X92502783Y-97188000D01*
X92409217Y-97188000D01*
X92317448Y-97206254D01*
X92231003Y-97242061D01*
X92153205Y-97294044D01*
X92087044Y-97360205D01*
X92035061Y-97438003D01*
X91999254Y-97524448D01*
X91981000Y-97616217D01*
X79450000Y-97616217D01*
X79450000Y-96473217D01*
X79535000Y-96473217D01*
X79535000Y-96566783D01*
X79553254Y-96658552D01*
X79589061Y-96744997D01*
X79641044Y-96822795D01*
X79707205Y-96888956D01*
X79785003Y-96940939D01*
X79871448Y-96976746D01*
X79963217Y-96995000D01*
X80056783Y-96995000D01*
X80148552Y-96976746D01*
X80234997Y-96940939D01*
X80312795Y-96888956D01*
X80378956Y-96822795D01*
X80430939Y-96744997D01*
X80466746Y-96658552D01*
X80485000Y-96566783D01*
X80485000Y-96473217D01*
X91727000Y-96473217D01*
X91727000Y-96566783D01*
X91745254Y-96658552D01*
X91781061Y-96744997D01*
X91833044Y-96822795D01*
X91899205Y-96888956D01*
X91977003Y-96940939D01*
X92063448Y-96976746D01*
X92155217Y-96995000D01*
X92248783Y-96995000D01*
X92340552Y-96976746D01*
X92426997Y-96940939D01*
X92504795Y-96888956D01*
X92570956Y-96822795D01*
X92622939Y-96744997D01*
X92658746Y-96658552D01*
X92677000Y-96566783D01*
X92677000Y-96473217D01*
X92658746Y-96381448D01*
X92622939Y-96295003D01*
X92570956Y-96217205D01*
X92504795Y-96151044D01*
X92426997Y-96099061D01*
X92340552Y-96063254D01*
X92248783Y-96045000D01*
X92155217Y-96045000D01*
X92063448Y-96063254D01*
X91977003Y-96099061D01*
X91899205Y-96151044D01*
X91833044Y-96217205D01*
X91781061Y-96295003D01*
X91745254Y-96381448D01*
X91727000Y-96473217D01*
X80485000Y-96473217D01*
X80466746Y-96381448D01*
X80430939Y-96295003D01*
X80378956Y-96217205D01*
X80312795Y-96151044D01*
X80234997Y-96099061D01*
X80148552Y-96063254D01*
X80056783Y-96045000D01*
X79963217Y-96045000D01*
X79871448Y-96063254D01*
X79785003Y-96099061D01*
X79707205Y-96151044D01*
X79641044Y-96217205D01*
X79589061Y-96295003D01*
X79553254Y-96381448D01*
X79535000Y-96473217D01*
X79450000Y-96473217D01*
X79450000Y-94690000D01*
X82845345Y-94690000D01*
X82845345Y-94903484D01*
G37*
X82845345Y-94903484D02*
X82849920Y-94926485D01*
X82852218Y-94949816D01*
X82859024Y-94972251D01*
X82863599Y-94995253D01*
X82872573Y-95016919D01*
X82879379Y-95039354D01*
X82890432Y-95060033D01*
X82899406Y-95081698D01*
X82912431Y-95101192D01*
X82923486Y-95121874D01*
X82938365Y-95140004D01*
X82951389Y-95159496D01*
X82967966Y-95176073D01*
X82982844Y-95194202D01*
X83000973Y-95209080D01*
X83017550Y-95225657D01*
X83037042Y-95238681D01*
X83055172Y-95253560D01*
X83075855Y-95264615D01*
X83095348Y-95277640D01*
X83117009Y-95286612D01*
X83137691Y-95297667D01*
X83160130Y-95304474D01*
X83181793Y-95313447D01*
X83204792Y-95318022D01*
X83227229Y-95324828D01*
X83250563Y-95327126D01*
X83273562Y-95331701D01*
X83297013Y-95331701D01*
X83320345Y-95333999D01*
X83343677Y-95331701D01*
X83367128Y-95331701D01*
X83390128Y-95327126D01*
X83413460Y-95324828D01*
X83435895Y-95318022D01*
X83458897Y-95313447D01*
X83480563Y-95304473D01*
X83502998Y-95297667D01*
X83523677Y-95286614D01*
X83545342Y-95277640D01*
X83564836Y-95264615D01*
X83585518Y-95253560D01*
X83603648Y-95238681D01*
X83623140Y-95225657D01*
X83639717Y-95209080D01*
X83657846Y-95194202D01*
X83672724Y-95176073D01*
X83689301Y-95159496D01*
X83702325Y-95140004D01*
X83717204Y-95121874D01*
X83728259Y-95101191D01*
X83741284Y-95081698D01*
X83750256Y-95060037D01*
X83761311Y-95039355D01*
X83768118Y-95016916D01*
X83777091Y-94995253D01*
X83781666Y-94972254D01*
X83788472Y-94949817D01*
X83790770Y-94926484D01*
X83795345Y-94903484D01*
X83795345Y-94803406D01*
X83883501Y-94715251D01*
X84991620Y-95823371D01*
X85006499Y-95841501D01*
X85078827Y-95900859D01*
X85161346Y-95944966D01*
X85223722Y-95963888D01*
X85250883Y-95972127D01*
X85343999Y-95981298D01*
X85367331Y-95979000D01*
X86844668Y-95979000D01*
X86868000Y-95981298D01*
X86891332Y-95979000D01*
X86961116Y-95972127D01*
X87050654Y-95944966D01*
X87133173Y-95900859D01*
X87205501Y-95841501D01*
X87220384Y-95823366D01*
X87713533Y-95330217D01*
X88298000Y-95330217D01*
X88298000Y-95423783D01*
X88316254Y-95515552D01*
X88352061Y-95601997D01*
X88404044Y-95679795D01*
X88470205Y-95745956D01*
X88548003Y-95797939D01*
X88634448Y-95833746D01*
X88726217Y-95852000D01*
X88819783Y-95852000D01*
X88911552Y-95833746D01*
X88997997Y-95797939D01*
X89075795Y-95745956D01*
X89141956Y-95679795D01*
X89193939Y-95601997D01*
X89229746Y-95515552D01*
X89248000Y-95423783D01*
X89248000Y-95330217D01*
X89229746Y-95238448D01*
X89193939Y-95152003D01*
X89141956Y-95074205D01*
X89075795Y-95008044D01*
X88997997Y-94956061D01*
X88911552Y-94920254D01*
X88819783Y-94902000D01*
X88726217Y-94902000D01*
X88634448Y-94920254D01*
X88548003Y-94956061D01*
X88470205Y-95008044D01*
X88404044Y-95074205D01*
X88352061Y-95152003D01*
X88316254Y-95238448D01*
X88298000Y-95330217D01*
X87713533Y-95330217D01*
X88334751Y-94709000D01*
X89765668Y-94709000D01*
X89789000Y-94711298D01*
X89812332Y-94709000D01*
X89882116Y-94702127D01*
X89922093Y-94690000D01*
X93270000Y-94690000D01*
X93270000Y-100853249D01*
X93266795Y-100850044D01*
X93188997Y-100798061D01*
X93102552Y-100762254D01*
X93010783Y-100744000D01*
X92917217Y-100744000D01*
X92825448Y-100762254D01*
X92739003Y-100798061D01*
X92661205Y-100850044D01*
X92595044Y-100916205D01*
X92543061Y-100994003D01*
X92507254Y-101080448D01*
X92489000Y-101172217D01*
X92489000Y-101265783D01*
X92507254Y-101357552D01*
X92543061Y-101443997D01*
X92595044Y-101521795D01*
X92661205Y-101587956D01*
X92739003Y-101639939D01*
X92825448Y-101675746D01*
X92917217Y-101694000D01*
X93010783Y-101694000D01*
X93102552Y-101675746D01*
X93188997Y-101639939D01*
X93266795Y-101587956D01*
X93270000Y-101584751D01*
X93270000Y-107239315D01*
X86514309Y-107177900D01*
X86526939Y-107158997D01*
X86562746Y-107072552D01*
X86581000Y-106980783D01*
X86581000Y-106887217D01*
X86562746Y-106795448D01*
X86526939Y-106709003D01*
X86474956Y-106631205D01*
X86408795Y-106565044D01*
X86330997Y-106513061D01*
X86244552Y-106477254D01*
X86152783Y-106459000D01*
X86059217Y-106459000D01*
X85967448Y-106477254D01*
X85881003Y-106513061D01*
X85803205Y-106565044D01*
X85737044Y-106631205D01*
X85685061Y-106709003D01*
X85649254Y-106795448D01*
X85631000Y-106887217D01*
X85631000Y-106980783D01*
X85649254Y-107072552D01*
X85685061Y-107158997D01*
X85692701Y-107170431D01*
X79450000Y-107113679D01*
X79450000Y-104093217D01*
X79535000Y-104093217D01*
X79535000Y-104186783D01*
X79553254Y-104278552D01*
X79589061Y-104364997D01*
X79641044Y-104442795D01*
X79707205Y-104508956D01*
X79785003Y-104560939D01*
X79871448Y-104596746D01*
X79963217Y-104615000D01*
X80056783Y-104615000D01*
X80148552Y-104596746D01*
X80234997Y-104560939D01*
X80312795Y-104508956D01*
X80378956Y-104442795D01*
X80430939Y-104364997D01*
X80466746Y-104278552D01*
X80485000Y-104186783D01*
X80485000Y-104093217D01*
X80466746Y-104001448D01*
X80430939Y-103915003D01*
X80380301Y-103839217D01*
X91854000Y-103839217D01*
X91854000Y-103932783D01*
X91872254Y-104024552D01*
X91908061Y-104110997D01*
X91960044Y-104188795D01*
X92026205Y-104254956D01*
X92104003Y-104306939D01*
X92190448Y-104342746D01*
X92282217Y-104361000D01*
X92375783Y-104361000D01*
X92467552Y-104342746D01*
X92553997Y-104306939D01*
X92631795Y-104254956D01*
X92697956Y-104188795D01*
X92749939Y-104110997D01*
X92785746Y-104024552D01*
X92804000Y-103932783D01*
X92804000Y-103839217D01*
X92785746Y-103747448D01*
X92749939Y-103661003D01*
X92697956Y-103583205D01*
X92631795Y-103517044D01*
X92553997Y-103465061D01*
X92467552Y-103429254D01*
X92375783Y-103411000D01*
X92282217Y-103411000D01*
X92190448Y-103429254D01*
X92104003Y-103465061D01*
X92026205Y-103517044D01*
X91960044Y-103583205D01*
X91908061Y-103661003D01*
X91872254Y-103747448D01*
X91854000Y-103839217D01*
X80380301Y-103839217D01*
X80378956Y-103837205D01*
X80312795Y-103771044D01*
X80234997Y-103719061D01*
X80148552Y-103683254D01*
X80056783Y-103665000D01*
X79963217Y-103665000D01*
X79871448Y-103683254D01*
X79785003Y-103719061D01*
X79707205Y-103771044D01*
X79641044Y-103837205D01*
X79589061Y-103915003D01*
X79553254Y-104001448D01*
X79535000Y-104093217D01*
X79450000Y-104093217D01*
X79450000Y-102143594D01*
X84385000Y-102143594D01*
X84385000Y-102286406D01*
X84412861Y-102426475D01*
X84467513Y-102558416D01*
X84546856Y-102677161D01*
X84647839Y-102778144D01*
X84766584Y-102857487D01*
X84898525Y-102912139D01*
X85038594Y-102940000D01*
X85181406Y-102940000D01*
X85321475Y-102912139D01*
X85453416Y-102857487D01*
X85572161Y-102778144D01*
X85673144Y-102677161D01*
X85752487Y-102558416D01*
X85807139Y-102426475D01*
X85835000Y-102286406D01*
X85835000Y-102143594D01*
X86885000Y-102143594D01*
X86885000Y-102286406D01*
X86912861Y-102426475D01*
X86967513Y-102558416D01*
X87046856Y-102677161D01*
X87147839Y-102778144D01*
X87266584Y-102857487D01*
X87398525Y-102912139D01*
X87538594Y-102940000D01*
X87681406Y-102940000D01*
X87821475Y-102912139D01*
X87953416Y-102857487D01*
X88072161Y-102778144D01*
X88173144Y-102677161D01*
X88252487Y-102558416D01*
X88307139Y-102426475D01*
X88335000Y-102286406D01*
X88335000Y-102143594D01*
X88307139Y-102003525D01*
X88252487Y-101871584D01*
X88173144Y-101752839D01*
X88072161Y-101651856D01*
X87953416Y-101572513D01*
X87821475Y-101517861D01*
X87681406Y-101490000D01*
X87538594Y-101490000D01*
X87398525Y-101517861D01*
X87266584Y-101572513D01*
X87147839Y-101651856D01*
X87046856Y-101752839D01*
X86967513Y-101871584D01*
X86912861Y-102003525D01*
X86885000Y-102143594D01*
X85835000Y-102143594D01*
X85807139Y-102003525D01*
X85752487Y-101871584D01*
X85673144Y-101752839D01*
X85572161Y-101651856D01*
X85453416Y-101572513D01*
X85321475Y-101517861D01*
X85181406Y-101490000D01*
X85038594Y-101490000D01*
X84898525Y-101517861D01*
X84766584Y-101572513D01*
X84647839Y-101651856D01*
X84546856Y-101752839D01*
X84467513Y-101871584D01*
X84412861Y-102003525D01*
X84385000Y-102143594D01*
X79450000Y-102143594D01*
X79450000Y-100893594D01*
X85635000Y-100893594D01*
X85635000Y-101036406D01*
X85662861Y-101176475D01*
X85717513Y-101308416D01*
X85796856Y-101427161D01*
X85897839Y-101528144D01*
X86016584Y-101607487D01*
X86148525Y-101662139D01*
X86288594Y-101690000D01*
X86431406Y-101690000D01*
X86571475Y-101662139D01*
X86703416Y-101607487D01*
X86822161Y-101528144D01*
X86923144Y-101427161D01*
X87002487Y-101308416D01*
X87057139Y-101176475D01*
X87085000Y-101036406D01*
X87085000Y-100893594D01*
X87057139Y-100753525D01*
X87002487Y-100621584D01*
X86923144Y-100502839D01*
X86822161Y-100401856D01*
X86703416Y-100322513D01*
X86571475Y-100267861D01*
X86431406Y-100240000D01*
X86288594Y-100240000D01*
X86148525Y-100267861D01*
X86016584Y-100322513D01*
X85897839Y-100401856D01*
X85796856Y-100502839D01*
X85717513Y-100621584D01*
X85662861Y-100753525D01*
X85635000Y-100893594D01*
X79450000Y-100893594D01*
X79450000Y-100156217D01*
X80043000Y-100156217D01*
X80043000Y-100249783D01*
X80061254Y-100341552D01*
X80097061Y-100427997D01*
X80149044Y-100505795D01*
X80215205Y-100571956D01*
X80293003Y-100623939D01*
X80379448Y-100659746D01*
X80471217Y-100678000D01*
X80564783Y-100678000D01*
X80656552Y-100659746D01*
X80742997Y-100623939D01*
X80820795Y-100571956D01*
X80886956Y-100505795D01*
X80938939Y-100427997D01*
X80974746Y-100341552D01*
X80993000Y-100249783D01*
X80993000Y-100156217D01*
X80974746Y-100064448D01*
X80938939Y-99978003D01*
X80886956Y-99900205D01*
X80820795Y-99834044D01*
X80742997Y-99782061D01*
X80656552Y-99746254D01*
X80564783Y-99728000D01*
X80471217Y-99728000D01*
X80379448Y-99746254D01*
X80293003Y-99782061D01*
X80215205Y-99834044D01*
X80149044Y-99900205D01*
X80097061Y-99978003D01*
X80061254Y-100064448D01*
X80043000Y-100156217D01*
X79450000Y-100156217D01*
X79450000Y-99643594D01*
X84385000Y-99643594D01*
X84385000Y-99786406D01*
X84412861Y-99926475D01*
X84467513Y-100058416D01*
X84546856Y-100177161D01*
X84647839Y-100278144D01*
X84766584Y-100357487D01*
X84898525Y-100412139D01*
X85038594Y-100440000D01*
X85181406Y-100440000D01*
X85321475Y-100412139D01*
X85453416Y-100357487D01*
X85572161Y-100278144D01*
X85673144Y-100177161D01*
X85752487Y-100058416D01*
X85807139Y-99926475D01*
X85835000Y-99786406D01*
X85835000Y-99643594D01*
X86885000Y-99643594D01*
X86885000Y-99786406D01*
X86912861Y-99926475D01*
X86967513Y-100058416D01*
X87046856Y-100177161D01*
X87147839Y-100278144D01*
X87266584Y-100357487D01*
X87398525Y-100412139D01*
X87538594Y-100440000D01*
X87681406Y-100440000D01*
X87821475Y-100412139D01*
X87953416Y-100357487D01*
X88072161Y-100278144D01*
X88173144Y-100177161D01*
X88252487Y-100058416D01*
X88307139Y-99926475D01*
X88335000Y-99786406D01*
X88335000Y-99643594D01*
X88307139Y-99503525D01*
X88252487Y-99371584D01*
X88173144Y-99252839D01*
X88072161Y-99151856D01*
X87953416Y-99072513D01*
X87821475Y-99017861D01*
X87681406Y-98990000D01*
X87538594Y-98990000D01*
X87398525Y-99017861D01*
X87266584Y-99072513D01*
X87147839Y-99151856D01*
X87046856Y-99252839D01*
X86967513Y-99371584D01*
X86912861Y-99503525D01*
X86885000Y-99643594D01*
X85835000Y-99643594D01*
X85807139Y-99503525D01*
X85752487Y-99371584D01*
X85673144Y-99252839D01*
X85572161Y-99151856D01*
X85453416Y-99072513D01*
X85321475Y-99017861D01*
X85181406Y-98990000D01*
X85038594Y-98990000D01*
X84898525Y-99017861D01*
X84766584Y-99072513D01*
X84647839Y-99151856D01*
X84546856Y-99252839D01*
X84467513Y-99371584D01*
X84412861Y-99503525D01*
X84385000Y-99643594D01*
X79450000Y-99643594D01*
X79450000Y-97616217D01*
X91981000Y-97616217D01*
X91981000Y-97709783D01*
X91999254Y-97801552D01*
X92035061Y-97887997D01*
X92087044Y-97965795D01*
X92153205Y-98031956D01*
X92231003Y-98083939D01*
X92317448Y-98119746D01*
X92409217Y-98138000D01*
X92502783Y-98138000D01*
X92594552Y-98119746D01*
X92680997Y-98083939D01*
X92758795Y-98031956D01*
X92824956Y-97965795D01*
X92876939Y-97887997D01*
X92912746Y-97801552D01*
X92931000Y-97709783D01*
X92931000Y-97616217D01*
X92912746Y-97524448D01*
X92876939Y-97438003D01*
X92824956Y-97360205D01*
X92758795Y-97294044D01*
X92680997Y-97242061D01*
X92594552Y-97206254D01*
X92502783Y-97188000D01*
X92409217Y-97188000D01*
X92317448Y-97206254D01*
X92231003Y-97242061D01*
X92153205Y-97294044D01*
X92087044Y-97360205D01*
X92035061Y-97438003D01*
X91999254Y-97524448D01*
X91981000Y-97616217D01*
X79450000Y-97616217D01*
X79450000Y-96473217D01*
X79535000Y-96473217D01*
X79535000Y-96566783D01*
X79553254Y-96658552D01*
X79589061Y-96744997D01*
X79641044Y-96822795D01*
X79707205Y-96888956D01*
X79785003Y-96940939D01*
X79871448Y-96976746D01*
X79963217Y-96995000D01*
X80056783Y-96995000D01*
X80148552Y-96976746D01*
X80234997Y-96940939D01*
X80312795Y-96888956D01*
X80378956Y-96822795D01*
X80430939Y-96744997D01*
X80466746Y-96658552D01*
X80485000Y-96566783D01*
X80485000Y-96473217D01*
X91727000Y-96473217D01*
X91727000Y-96566783D01*
X91745254Y-96658552D01*
X91781061Y-96744997D01*
X91833044Y-96822795D01*
X91899205Y-96888956D01*
X91977003Y-96940939D01*
X92063448Y-96976746D01*
X92155217Y-96995000D01*
X92248783Y-96995000D01*
X92340552Y-96976746D01*
X92426997Y-96940939D01*
X92504795Y-96888956D01*
X92570956Y-96822795D01*
X92622939Y-96744997D01*
X92658746Y-96658552D01*
X92677000Y-96566783D01*
X92677000Y-96473217D01*
X92658746Y-96381448D01*
X92622939Y-96295003D01*
X92570956Y-96217205D01*
X92504795Y-96151044D01*
X92426997Y-96099061D01*
X92340552Y-96063254D01*
X92248783Y-96045000D01*
X92155217Y-96045000D01*
X92063448Y-96063254D01*
X91977003Y-96099061D01*
X91899205Y-96151044D01*
X91833044Y-96217205D01*
X91781061Y-96295003D01*
X91745254Y-96381448D01*
X91727000Y-96473217D01*
X80485000Y-96473217D01*
X80466746Y-96381448D01*
X80430939Y-96295003D01*
X80378956Y-96217205D01*
X80312795Y-96151044D01*
X80234997Y-96099061D01*
X80148552Y-96063254D01*
X80056783Y-96045000D01*
X79963217Y-96045000D01*
X79871448Y-96063254D01*
X79785003Y-96099061D01*
X79707205Y-96151044D01*
X79641044Y-96217205D01*
X79589061Y-96295003D01*
X79553254Y-96381448D01*
X79535000Y-96473217D01*
X79450000Y-96473217D01*
X79450000Y-94690000D01*
X82845345Y-94690000D01*
X82845345Y-94903484D01*
G36*
X86671250Y-95029000D02*
G01*
X85540751Y-95029000D01*
X85201751Y-94690000D01*
X87010250Y-94690000D01*
X86671250Y-95029000D01*
G37*
X86671250Y-95029000D02*
X85540751Y-95029000D01*
X85201751Y-94690000D01*
X87010250Y-94690000D01*
X86671250Y-95029000D01*
G36*
X83218000Y-69515783D02*
G01*
X83222575Y-69538784D01*
X83224873Y-69562115D01*
X83231679Y-69584550D01*
X83236254Y-69607552D01*
X83245228Y-69629218D01*
X83252034Y-69651653D01*
X83263087Y-69672332D01*
X83272061Y-69693997D01*
X83285086Y-69713491D01*
X83296141Y-69734173D01*
X83311020Y-69752303D01*
X83324044Y-69771795D01*
X83340621Y-69788372D01*
X83355499Y-69806501D01*
X83373628Y-69821379D01*
X83390205Y-69837956D01*
X83409697Y-69850980D01*
X83427827Y-69865859D01*
X83448510Y-69876914D01*
X83468003Y-69889939D01*
X83489664Y-69898911D01*
X83510346Y-69909966D01*
X83532785Y-69916773D01*
X83554448Y-69925746D01*
X83577447Y-69930321D01*
X83599884Y-69937127D01*
X83623218Y-69939425D01*
X83646217Y-69944000D01*
X83669668Y-69944000D01*
X83693000Y-69946298D01*
X83716332Y-69944000D01*
X83739783Y-69944000D01*
X83762783Y-69939425D01*
X83786115Y-69937127D01*
X83808550Y-69930321D01*
X83809072Y-69930217D01*
X88298000Y-69930217D01*
X88298000Y-70023783D01*
X88316254Y-70115552D01*
X88352061Y-70201997D01*
X88404044Y-70279795D01*
X88470205Y-70345956D01*
X88548003Y-70397939D01*
X88634448Y-70433746D01*
X88726217Y-70452000D01*
X88819783Y-70452000D01*
X88911552Y-70433746D01*
X88997997Y-70397939D01*
X89075795Y-70345956D01*
X89141956Y-70279795D01*
X89193939Y-70201997D01*
X89229746Y-70115552D01*
X89248000Y-70023783D01*
X89248000Y-69930217D01*
X89229746Y-69838448D01*
X89193939Y-69752003D01*
X89141956Y-69674205D01*
X89075795Y-69608044D01*
X88997997Y-69556061D01*
X88911552Y-69520254D01*
X88819783Y-69502000D01*
X88726217Y-69502000D01*
X88634448Y-69520254D01*
X88548003Y-69556061D01*
X88470205Y-69608044D01*
X88404044Y-69674205D01*
X88352061Y-69752003D01*
X88316254Y-69838448D01*
X88298000Y-69930217D01*
X83809072Y-69930217D01*
X83831552Y-69925746D01*
X83853218Y-69916772D01*
X83875653Y-69909966D01*
X83896332Y-69898913D01*
X83917997Y-69889939D01*
X83937491Y-69876914D01*
X83958173Y-69865859D01*
X83976303Y-69850980D01*
X83995795Y-69837956D01*
X84012372Y-69821379D01*
X84030501Y-69806501D01*
X84045379Y-69788372D01*
X84061956Y-69771795D01*
X84074980Y-69752303D01*
X84089859Y-69734173D01*
X84100914Y-69713490D01*
X84113939Y-69693997D01*
X84122911Y-69672336D01*
X84133966Y-69651654D01*
X84140773Y-69629215D01*
X84149746Y-69607552D01*
X84154321Y-69584553D01*
X84161127Y-69562116D01*
X84163425Y-69538783D01*
X84168000Y-69515783D01*
X84168000Y-69290000D01*
X93270000Y-69290000D01*
X93270000Y-69963647D01*
X93269254Y-69965448D01*
X93251000Y-70057217D01*
X93251000Y-70150783D01*
X93269254Y-70242552D01*
X93270000Y-70244353D01*
X93270000Y-75326249D01*
X93266795Y-75323044D01*
X93188997Y-75271061D01*
X93102552Y-75235254D01*
X93010783Y-75217000D01*
X92917217Y-75217000D01*
X92825448Y-75235254D01*
X92739003Y-75271061D01*
X92661205Y-75323044D01*
X92595044Y-75389205D01*
X92543061Y-75467003D01*
X92507254Y-75553448D01*
X92489000Y-75645217D01*
X92489000Y-75738783D01*
X92507254Y-75830552D01*
X92543061Y-75916997D01*
X92595044Y-75994795D01*
X92661205Y-76060956D01*
X92739003Y-76112939D01*
X92825448Y-76148746D01*
X92917217Y-76167000D01*
X93010783Y-76167000D01*
X93102552Y-76148746D01*
X93188997Y-76112939D01*
X93266795Y-76060956D01*
X93270000Y-76057751D01*
X93270000Y-81840000D01*
X86521956Y-81840000D01*
X86537805Y-81829410D01*
X86603966Y-81763249D01*
X86655949Y-81685451D01*
X86691756Y-81599006D01*
X86710010Y-81507237D01*
X86710010Y-81413671D01*
X86691756Y-81321902D01*
X86655949Y-81235457D01*
X86603966Y-81157659D01*
X86537805Y-81091498D01*
X86460007Y-81039515D01*
X86373562Y-81003708D01*
X86281793Y-80985454D01*
X86188227Y-80985454D01*
X86096458Y-81003708D01*
X86010013Y-81039515D01*
X85932215Y-81091498D01*
X85866054Y-81157659D01*
X85814071Y-81235457D01*
X85778264Y-81321902D01*
X85760010Y-81413671D01*
X85760010Y-81507237D01*
X85778264Y-81599006D01*
X85814071Y-81685451D01*
X85866054Y-81763249D01*
X85932215Y-81829410D01*
X85948064Y-81840000D01*
X79450000Y-81840000D01*
X79450000Y-78312217D01*
X91854000Y-78312217D01*
X91854000Y-78405783D01*
X91872254Y-78497552D01*
X91908061Y-78583997D01*
X91960044Y-78661795D01*
X92026205Y-78727956D01*
X92104003Y-78779939D01*
X92190448Y-78815746D01*
X92282217Y-78834000D01*
X92375783Y-78834000D01*
X92467552Y-78815746D01*
X92553997Y-78779939D01*
X92631795Y-78727956D01*
X92697956Y-78661795D01*
X92749939Y-78583997D01*
X92785746Y-78497552D01*
X92804000Y-78405783D01*
X92804000Y-78312217D01*
X92785746Y-78220448D01*
X92749939Y-78134003D01*
X92697956Y-78056205D01*
X92631795Y-77990044D01*
X92553997Y-77938061D01*
X92467552Y-77902254D01*
X92375783Y-77884000D01*
X92282217Y-77884000D01*
X92190448Y-77902254D01*
X92104003Y-77938061D01*
X92026205Y-77990044D01*
X91960044Y-78056205D01*
X91908061Y-78134003D01*
X91872254Y-78220448D01*
X91854000Y-78312217D01*
X79450000Y-78312217D01*
X79450000Y-76743594D01*
X84385000Y-76743594D01*
X84385000Y-76886406D01*
X84412861Y-77026475D01*
X84467513Y-77158416D01*
X84546856Y-77277161D01*
X84647839Y-77378144D01*
X84766584Y-77457487D01*
X84898525Y-77512139D01*
X85038594Y-77540000D01*
X85181406Y-77540000D01*
X85321475Y-77512139D01*
X85453416Y-77457487D01*
X85572161Y-77378144D01*
X85673144Y-77277161D01*
X85752487Y-77158416D01*
X85807139Y-77026475D01*
X85835000Y-76886406D01*
X85835000Y-76743594D01*
X86885000Y-76743594D01*
X86885000Y-76886406D01*
X86912861Y-77026475D01*
X86967513Y-77158416D01*
X87046856Y-77277161D01*
X87147839Y-77378144D01*
X87266584Y-77457487D01*
X87398525Y-77512139D01*
X87538594Y-77540000D01*
X87681406Y-77540000D01*
X87821475Y-77512139D01*
X87953416Y-77457487D01*
X88072161Y-77378144D01*
X88173144Y-77277161D01*
X88252487Y-77158416D01*
X88307139Y-77026475D01*
X88335000Y-76886406D01*
X88335000Y-76743594D01*
X88307139Y-76603525D01*
X88252487Y-76471584D01*
X88173144Y-76352839D01*
X88072161Y-76251856D01*
X87953416Y-76172513D01*
X87821475Y-76117861D01*
X87681406Y-76090000D01*
X87538594Y-76090000D01*
X87398525Y-76117861D01*
X87266584Y-76172513D01*
X87147839Y-76251856D01*
X87046856Y-76352839D01*
X86967513Y-76471584D01*
X86912861Y-76603525D01*
X86885000Y-76743594D01*
X85835000Y-76743594D01*
X85807139Y-76603525D01*
X85752487Y-76471584D01*
X85673144Y-76352839D01*
X85572161Y-76251856D01*
X85453416Y-76172513D01*
X85321475Y-76117861D01*
X85181406Y-76090000D01*
X85038594Y-76090000D01*
X84898525Y-76117861D01*
X84766584Y-76172513D01*
X84647839Y-76251856D01*
X84546856Y-76352839D01*
X84467513Y-76471584D01*
X84412861Y-76603525D01*
X84385000Y-76743594D01*
X79450000Y-76743594D01*
X79450000Y-75899217D01*
X80043000Y-75899217D01*
X80043000Y-75992783D01*
X80061254Y-76084552D01*
X80097061Y-76170997D01*
X80149044Y-76248795D01*
X80215205Y-76314956D01*
X80293003Y-76366939D01*
X80379448Y-76402746D01*
X80471217Y-76421000D01*
X80564783Y-76421000D01*
X80656552Y-76402746D01*
X80742997Y-76366939D01*
X80820795Y-76314956D01*
X80886956Y-76248795D01*
X80938939Y-76170997D01*
X80974746Y-76084552D01*
X80993000Y-75992783D01*
X80993000Y-75899217D01*
X80974746Y-75807448D01*
X80938939Y-75721003D01*
X80886956Y-75643205D01*
X80820795Y-75577044D01*
X80742997Y-75525061D01*
X80667030Y-75493594D01*
X85635000Y-75493594D01*
X85635000Y-75636406D01*
X85662861Y-75776475D01*
X85717513Y-75908416D01*
X85796856Y-76027161D01*
X85897839Y-76128144D01*
X86016584Y-76207487D01*
X86148525Y-76262139D01*
X86288594Y-76290000D01*
X86431406Y-76290000D01*
X86571475Y-76262139D01*
X86703416Y-76207487D01*
X86822161Y-76128144D01*
X86923144Y-76027161D01*
X87002487Y-75908416D01*
X87057139Y-75776475D01*
X87085000Y-75636406D01*
X87085000Y-75493594D01*
X87057139Y-75353525D01*
X87002487Y-75221584D01*
X86923144Y-75102839D01*
X86822161Y-75001856D01*
X86703416Y-74922513D01*
X86571475Y-74867861D01*
X86431406Y-74840000D01*
X86288594Y-74840000D01*
X86148525Y-74867861D01*
X86016584Y-74922513D01*
X85897839Y-75001856D01*
X85796856Y-75102839D01*
X85717513Y-75221584D01*
X85662861Y-75353525D01*
X85635000Y-75493594D01*
X80667030Y-75493594D01*
X80656552Y-75489254D01*
X80564783Y-75471000D01*
X80471217Y-75471000D01*
X80379448Y-75489254D01*
X80293003Y-75525061D01*
X80215205Y-75577044D01*
X80149044Y-75643205D01*
X80097061Y-75721003D01*
X80061254Y-75807448D01*
X80043000Y-75899217D01*
X79450000Y-75899217D01*
X79450000Y-74243594D01*
X84385000Y-74243594D01*
X84385000Y-74386406D01*
X84412861Y-74526475D01*
X84467513Y-74658416D01*
X84546856Y-74777161D01*
X84647839Y-74878144D01*
X84766584Y-74957487D01*
X84898525Y-75012139D01*
X85038594Y-75040000D01*
X85181406Y-75040000D01*
X85321475Y-75012139D01*
X85453416Y-74957487D01*
X85572161Y-74878144D01*
X85673144Y-74777161D01*
X85752487Y-74658416D01*
X85807139Y-74526475D01*
X85835000Y-74386406D01*
X85835000Y-74243594D01*
X86885000Y-74243594D01*
X86885000Y-74386406D01*
X86912861Y-74526475D01*
X86967513Y-74658416D01*
X87046856Y-74777161D01*
X87147839Y-74878144D01*
X87266584Y-74957487D01*
X87398525Y-75012139D01*
X87538594Y-75040000D01*
X87681406Y-75040000D01*
X87821475Y-75012139D01*
X87953416Y-74957487D01*
X88072161Y-74878144D01*
X88173144Y-74777161D01*
X88252487Y-74658416D01*
X88307139Y-74526475D01*
X88335000Y-74386406D01*
X88335000Y-74243594D01*
X88307139Y-74103525D01*
X88252487Y-73971584D01*
X88173144Y-73852839D01*
X88072161Y-73751856D01*
X87953416Y-73672513D01*
X87821475Y-73617861D01*
X87681406Y-73590000D01*
X87538594Y-73590000D01*
X87398525Y-73617861D01*
X87266584Y-73672513D01*
X87147839Y-73751856D01*
X87046856Y-73852839D01*
X86967513Y-73971584D01*
X86912861Y-74103525D01*
X86885000Y-74243594D01*
X85835000Y-74243594D01*
X85807139Y-74103525D01*
X85752487Y-73971584D01*
X85673144Y-73852839D01*
X85572161Y-73751856D01*
X85453416Y-73672513D01*
X85321475Y-73617861D01*
X85181406Y-73590000D01*
X85038594Y-73590000D01*
X84898525Y-73617861D01*
X84766584Y-73672513D01*
X84647839Y-73751856D01*
X84546856Y-73852839D01*
X84467513Y-73971584D01*
X84412861Y-74103525D01*
X84385000Y-74243594D01*
X79450000Y-74243594D01*
X79450000Y-71327217D01*
X91600000Y-71327217D01*
X91600000Y-71420783D01*
X91618254Y-71512552D01*
X91654061Y-71598997D01*
X91706044Y-71676795D01*
X91772205Y-71742956D01*
X91850003Y-71794939D01*
X91936448Y-71830746D01*
X92028217Y-71849000D01*
X92093618Y-71849000D01*
X92026205Y-71894044D01*
X91960044Y-71960205D01*
X91908061Y-72038003D01*
X91872254Y-72124448D01*
X91854000Y-72216217D01*
X91854000Y-72309783D01*
X91872254Y-72401552D01*
X91908061Y-72487997D01*
X91960044Y-72565795D01*
X92026205Y-72631956D01*
X92104003Y-72683939D01*
X92190448Y-72719746D01*
X92282217Y-72738000D01*
X92375783Y-72738000D01*
X92467552Y-72719746D01*
X92553997Y-72683939D01*
X92631795Y-72631956D01*
X92697956Y-72565795D01*
X92749939Y-72487997D01*
X92785746Y-72401552D01*
X92804000Y-72309783D01*
X92804000Y-72216217D01*
X92785746Y-72124448D01*
X92749939Y-72038003D01*
X92697956Y-71960205D01*
X92631795Y-71894044D01*
X92553997Y-71842061D01*
X92467552Y-71806254D01*
X92375783Y-71788000D01*
X92310382Y-71788000D01*
X92377795Y-71742956D01*
X92443956Y-71676795D01*
X92495939Y-71598997D01*
X92531746Y-71512552D01*
X92550000Y-71420783D01*
X92550000Y-71327217D01*
X92531746Y-71235448D01*
X92495939Y-71149003D01*
X92443956Y-71071205D01*
X92377795Y-71005044D01*
X92299997Y-70953061D01*
X92213552Y-70917254D01*
X92121783Y-70899000D01*
X92028217Y-70899000D01*
X91936448Y-70917254D01*
X91850003Y-70953061D01*
X91772205Y-71005044D01*
X91706044Y-71071205D01*
X91654061Y-71149003D01*
X91618254Y-71235448D01*
X91600000Y-71327217D01*
X79450000Y-71327217D01*
X79450000Y-69290000D01*
X83218000Y-69290000D01*
X83218000Y-69515783D01*
G37*
X83218000Y-69515783D02*
X83222575Y-69538784D01*
X83224873Y-69562115D01*
X83231679Y-69584550D01*
X83236254Y-69607552D01*
X83245228Y-69629218D01*
X83252034Y-69651653D01*
X83263087Y-69672332D01*
X83272061Y-69693997D01*
X83285086Y-69713491D01*
X83296141Y-69734173D01*
X83311020Y-69752303D01*
X83324044Y-69771795D01*
X83340621Y-69788372D01*
X83355499Y-69806501D01*
X83373628Y-69821379D01*
X83390205Y-69837956D01*
X83409697Y-69850980D01*
X83427827Y-69865859D01*
X83448510Y-69876914D01*
X83468003Y-69889939D01*
X83489664Y-69898911D01*
X83510346Y-69909966D01*
X83532785Y-69916773D01*
X83554448Y-69925746D01*
X83577447Y-69930321D01*
X83599884Y-69937127D01*
X83623218Y-69939425D01*
X83646217Y-69944000D01*
X83669668Y-69944000D01*
X83693000Y-69946298D01*
X83716332Y-69944000D01*
X83739783Y-69944000D01*
X83762783Y-69939425D01*
X83786115Y-69937127D01*
X83808550Y-69930321D01*
X83809072Y-69930217D01*
X88298000Y-69930217D01*
X88298000Y-70023783D01*
X88316254Y-70115552D01*
X88352061Y-70201997D01*
X88404044Y-70279795D01*
X88470205Y-70345956D01*
X88548003Y-70397939D01*
X88634448Y-70433746D01*
X88726217Y-70452000D01*
X88819783Y-70452000D01*
X88911552Y-70433746D01*
X88997997Y-70397939D01*
X89075795Y-70345956D01*
X89141956Y-70279795D01*
X89193939Y-70201997D01*
X89229746Y-70115552D01*
X89248000Y-70023783D01*
X89248000Y-69930217D01*
X89229746Y-69838448D01*
X89193939Y-69752003D01*
X89141956Y-69674205D01*
X89075795Y-69608044D01*
X88997997Y-69556061D01*
X88911552Y-69520254D01*
X88819783Y-69502000D01*
X88726217Y-69502000D01*
X88634448Y-69520254D01*
X88548003Y-69556061D01*
X88470205Y-69608044D01*
X88404044Y-69674205D01*
X88352061Y-69752003D01*
X88316254Y-69838448D01*
X88298000Y-69930217D01*
X83809072Y-69930217D01*
X83831552Y-69925746D01*
X83853218Y-69916772D01*
X83875653Y-69909966D01*
X83896332Y-69898913D01*
X83917997Y-69889939D01*
X83937491Y-69876914D01*
X83958173Y-69865859D01*
X83976303Y-69850980D01*
X83995795Y-69837956D01*
X84012372Y-69821379D01*
X84030501Y-69806501D01*
X84045379Y-69788372D01*
X84061956Y-69771795D01*
X84074980Y-69752303D01*
X84089859Y-69734173D01*
X84100914Y-69713490D01*
X84113939Y-69693997D01*
X84122911Y-69672336D01*
X84133966Y-69651654D01*
X84140773Y-69629215D01*
X84149746Y-69607552D01*
X84154321Y-69584553D01*
X84161127Y-69562116D01*
X84163425Y-69538783D01*
X84168000Y-69515783D01*
X84168000Y-69290000D01*
X93270000Y-69290000D01*
X93270000Y-69963647D01*
X93269254Y-69965448D01*
X93251000Y-70057217D01*
X93251000Y-70150783D01*
X93269254Y-70242552D01*
X93270000Y-70244353D01*
X93270000Y-75326249D01*
X93266795Y-75323044D01*
X93188997Y-75271061D01*
X93102552Y-75235254D01*
X93010783Y-75217000D01*
X92917217Y-75217000D01*
X92825448Y-75235254D01*
X92739003Y-75271061D01*
X92661205Y-75323044D01*
X92595044Y-75389205D01*
X92543061Y-75467003D01*
X92507254Y-75553448D01*
X92489000Y-75645217D01*
X92489000Y-75738783D01*
X92507254Y-75830552D01*
X92543061Y-75916997D01*
X92595044Y-75994795D01*
X92661205Y-76060956D01*
X92739003Y-76112939D01*
X92825448Y-76148746D01*
X92917217Y-76167000D01*
X93010783Y-76167000D01*
X93102552Y-76148746D01*
X93188997Y-76112939D01*
X93266795Y-76060956D01*
X93270000Y-76057751D01*
X93270000Y-81840000D01*
X86521956Y-81840000D01*
X86537805Y-81829410D01*
X86603966Y-81763249D01*
X86655949Y-81685451D01*
X86691756Y-81599006D01*
X86710010Y-81507237D01*
X86710010Y-81413671D01*
X86691756Y-81321902D01*
X86655949Y-81235457D01*
X86603966Y-81157659D01*
X86537805Y-81091498D01*
X86460007Y-81039515D01*
X86373562Y-81003708D01*
X86281793Y-80985454D01*
X86188227Y-80985454D01*
X86096458Y-81003708D01*
X86010013Y-81039515D01*
X85932215Y-81091498D01*
X85866054Y-81157659D01*
X85814071Y-81235457D01*
X85778264Y-81321902D01*
X85760010Y-81413671D01*
X85760010Y-81507237D01*
X85778264Y-81599006D01*
X85814071Y-81685451D01*
X85866054Y-81763249D01*
X85932215Y-81829410D01*
X85948064Y-81840000D01*
X79450000Y-81840000D01*
X79450000Y-78312217D01*
X91854000Y-78312217D01*
X91854000Y-78405783D01*
X91872254Y-78497552D01*
X91908061Y-78583997D01*
X91960044Y-78661795D01*
X92026205Y-78727956D01*
X92104003Y-78779939D01*
X92190448Y-78815746D01*
X92282217Y-78834000D01*
X92375783Y-78834000D01*
X92467552Y-78815746D01*
X92553997Y-78779939D01*
X92631795Y-78727956D01*
X92697956Y-78661795D01*
X92749939Y-78583997D01*
X92785746Y-78497552D01*
X92804000Y-78405783D01*
X92804000Y-78312217D01*
X92785746Y-78220448D01*
X92749939Y-78134003D01*
X92697956Y-78056205D01*
X92631795Y-77990044D01*
X92553997Y-77938061D01*
X92467552Y-77902254D01*
X92375783Y-77884000D01*
X92282217Y-77884000D01*
X92190448Y-77902254D01*
X92104003Y-77938061D01*
X92026205Y-77990044D01*
X91960044Y-78056205D01*
X91908061Y-78134003D01*
X91872254Y-78220448D01*
X91854000Y-78312217D01*
X79450000Y-78312217D01*
X79450000Y-76743594D01*
X84385000Y-76743594D01*
X84385000Y-76886406D01*
X84412861Y-77026475D01*
X84467513Y-77158416D01*
X84546856Y-77277161D01*
X84647839Y-77378144D01*
X84766584Y-77457487D01*
X84898525Y-77512139D01*
X85038594Y-77540000D01*
X85181406Y-77540000D01*
X85321475Y-77512139D01*
X85453416Y-77457487D01*
X85572161Y-77378144D01*
X85673144Y-77277161D01*
X85752487Y-77158416D01*
X85807139Y-77026475D01*
X85835000Y-76886406D01*
X85835000Y-76743594D01*
X86885000Y-76743594D01*
X86885000Y-76886406D01*
X86912861Y-77026475D01*
X86967513Y-77158416D01*
X87046856Y-77277161D01*
X87147839Y-77378144D01*
X87266584Y-77457487D01*
X87398525Y-77512139D01*
X87538594Y-77540000D01*
X87681406Y-77540000D01*
X87821475Y-77512139D01*
X87953416Y-77457487D01*
X88072161Y-77378144D01*
X88173144Y-77277161D01*
X88252487Y-77158416D01*
X88307139Y-77026475D01*
X88335000Y-76886406D01*
X88335000Y-76743594D01*
X88307139Y-76603525D01*
X88252487Y-76471584D01*
X88173144Y-76352839D01*
X88072161Y-76251856D01*
X87953416Y-76172513D01*
X87821475Y-76117861D01*
X87681406Y-76090000D01*
X87538594Y-76090000D01*
X87398525Y-76117861D01*
X87266584Y-76172513D01*
X87147839Y-76251856D01*
X87046856Y-76352839D01*
X86967513Y-76471584D01*
X86912861Y-76603525D01*
X86885000Y-76743594D01*
X85835000Y-76743594D01*
X85807139Y-76603525D01*
X85752487Y-76471584D01*
X85673144Y-76352839D01*
X85572161Y-76251856D01*
X85453416Y-76172513D01*
X85321475Y-76117861D01*
X85181406Y-76090000D01*
X85038594Y-76090000D01*
X84898525Y-76117861D01*
X84766584Y-76172513D01*
X84647839Y-76251856D01*
X84546856Y-76352839D01*
X84467513Y-76471584D01*
X84412861Y-76603525D01*
X84385000Y-76743594D01*
X79450000Y-76743594D01*
X79450000Y-75899217D01*
X80043000Y-75899217D01*
X80043000Y-75992783D01*
X80061254Y-76084552D01*
X80097061Y-76170997D01*
X80149044Y-76248795D01*
X80215205Y-76314956D01*
X80293003Y-76366939D01*
X80379448Y-76402746D01*
X80471217Y-76421000D01*
X80564783Y-76421000D01*
X80656552Y-76402746D01*
X80742997Y-76366939D01*
X80820795Y-76314956D01*
X80886956Y-76248795D01*
X80938939Y-76170997D01*
X80974746Y-76084552D01*
X80993000Y-75992783D01*
X80993000Y-75899217D01*
X80974746Y-75807448D01*
X80938939Y-75721003D01*
X80886956Y-75643205D01*
X80820795Y-75577044D01*
X80742997Y-75525061D01*
X80667030Y-75493594D01*
X85635000Y-75493594D01*
X85635000Y-75636406D01*
X85662861Y-75776475D01*
X85717513Y-75908416D01*
X85796856Y-76027161D01*
X85897839Y-76128144D01*
X86016584Y-76207487D01*
X86148525Y-76262139D01*
X86288594Y-76290000D01*
X86431406Y-76290000D01*
X86571475Y-76262139D01*
X86703416Y-76207487D01*
X86822161Y-76128144D01*
X86923144Y-76027161D01*
X87002487Y-75908416D01*
X87057139Y-75776475D01*
X87085000Y-75636406D01*
X87085000Y-75493594D01*
X87057139Y-75353525D01*
X87002487Y-75221584D01*
X86923144Y-75102839D01*
X86822161Y-75001856D01*
X86703416Y-74922513D01*
X86571475Y-74867861D01*
X86431406Y-74840000D01*
X86288594Y-74840000D01*
X86148525Y-74867861D01*
X86016584Y-74922513D01*
X85897839Y-75001856D01*
X85796856Y-75102839D01*
X85717513Y-75221584D01*
X85662861Y-75353525D01*
X85635000Y-75493594D01*
X80667030Y-75493594D01*
X80656552Y-75489254D01*
X80564783Y-75471000D01*
X80471217Y-75471000D01*
X80379448Y-75489254D01*
X80293003Y-75525061D01*
X80215205Y-75577044D01*
X80149044Y-75643205D01*
X80097061Y-75721003D01*
X80061254Y-75807448D01*
X80043000Y-75899217D01*
X79450000Y-75899217D01*
X79450000Y-74243594D01*
X84385000Y-74243594D01*
X84385000Y-74386406D01*
X84412861Y-74526475D01*
X84467513Y-74658416D01*
X84546856Y-74777161D01*
X84647839Y-74878144D01*
X84766584Y-74957487D01*
X84898525Y-75012139D01*
X85038594Y-75040000D01*
X85181406Y-75040000D01*
X85321475Y-75012139D01*
X85453416Y-74957487D01*
X85572161Y-74878144D01*
X85673144Y-74777161D01*
X85752487Y-74658416D01*
X85807139Y-74526475D01*
X85835000Y-74386406D01*
X85835000Y-74243594D01*
X86885000Y-74243594D01*
X86885000Y-74386406D01*
X86912861Y-74526475D01*
X86967513Y-74658416D01*
X87046856Y-74777161D01*
X87147839Y-74878144D01*
X87266584Y-74957487D01*
X87398525Y-75012139D01*
X87538594Y-75040000D01*
X87681406Y-75040000D01*
X87821475Y-75012139D01*
X87953416Y-74957487D01*
X88072161Y-74878144D01*
X88173144Y-74777161D01*
X88252487Y-74658416D01*
X88307139Y-74526475D01*
X88335000Y-74386406D01*
X88335000Y-74243594D01*
X88307139Y-74103525D01*
X88252487Y-73971584D01*
X88173144Y-73852839D01*
X88072161Y-73751856D01*
X87953416Y-73672513D01*
X87821475Y-73617861D01*
X87681406Y-73590000D01*
X87538594Y-73590000D01*
X87398525Y-73617861D01*
X87266584Y-73672513D01*
X87147839Y-73751856D01*
X87046856Y-73852839D01*
X86967513Y-73971584D01*
X86912861Y-74103525D01*
X86885000Y-74243594D01*
X85835000Y-74243594D01*
X85807139Y-74103525D01*
X85752487Y-73971584D01*
X85673144Y-73852839D01*
X85572161Y-73751856D01*
X85453416Y-73672513D01*
X85321475Y-73617861D01*
X85181406Y-73590000D01*
X85038594Y-73590000D01*
X84898525Y-73617861D01*
X84766584Y-73672513D01*
X84647839Y-73751856D01*
X84546856Y-73852839D01*
X84467513Y-73971584D01*
X84412861Y-74103525D01*
X84385000Y-74243594D01*
X79450000Y-74243594D01*
X79450000Y-71327217D01*
X91600000Y-71327217D01*
X91600000Y-71420783D01*
X91618254Y-71512552D01*
X91654061Y-71598997D01*
X91706044Y-71676795D01*
X91772205Y-71742956D01*
X91850003Y-71794939D01*
X91936448Y-71830746D01*
X92028217Y-71849000D01*
X92093618Y-71849000D01*
X92026205Y-71894044D01*
X91960044Y-71960205D01*
X91908061Y-72038003D01*
X91872254Y-72124448D01*
X91854000Y-72216217D01*
X91854000Y-72309783D01*
X91872254Y-72401552D01*
X91908061Y-72487997D01*
X91960044Y-72565795D01*
X92026205Y-72631956D01*
X92104003Y-72683939D01*
X92190448Y-72719746D01*
X92282217Y-72738000D01*
X92375783Y-72738000D01*
X92467552Y-72719746D01*
X92553997Y-72683939D01*
X92631795Y-72631956D01*
X92697956Y-72565795D01*
X92749939Y-72487997D01*
X92785746Y-72401552D01*
X92804000Y-72309783D01*
X92804000Y-72216217D01*
X92785746Y-72124448D01*
X92749939Y-72038003D01*
X92697956Y-71960205D01*
X92631795Y-71894044D01*
X92553997Y-71842061D01*
X92467552Y-71806254D01*
X92375783Y-71788000D01*
X92310382Y-71788000D01*
X92377795Y-71742956D01*
X92443956Y-71676795D01*
X92495939Y-71598997D01*
X92531746Y-71512552D01*
X92550000Y-71420783D01*
X92550000Y-71327217D01*
X92531746Y-71235448D01*
X92495939Y-71149003D01*
X92443956Y-71071205D01*
X92377795Y-71005044D01*
X92299997Y-70953061D01*
X92213552Y-70917254D01*
X92121783Y-70899000D01*
X92028217Y-70899000D01*
X91936448Y-70917254D01*
X91850003Y-70953061D01*
X91772205Y-71005044D01*
X91706044Y-71071205D01*
X91654061Y-71149003D01*
X91618254Y-71235448D01*
X91600000Y-71327217D01*
X79450000Y-71327217D01*
X79450000Y-69290000D01*
X83218000Y-69290000D01*
X83218000Y-69515783D01*
G36*
X93270000Y-87688121D02*
G01*
X93257939Y-87659003D01*
X93205956Y-87581205D01*
X93139795Y-87515044D01*
X93061997Y-87463061D01*
X92975552Y-87427254D01*
X92883783Y-87409000D01*
X92790217Y-87409000D01*
X92698448Y-87427254D01*
X92612003Y-87463061D01*
X92534205Y-87515044D01*
X92468044Y-87581205D01*
X92416061Y-87659003D01*
X92380254Y-87745448D01*
X92362000Y-87837217D01*
X92362000Y-87930783D01*
X92380254Y-88022552D01*
X92416061Y-88108997D01*
X92468044Y-88186795D01*
X92534205Y-88252956D01*
X92612003Y-88304939D01*
X92698448Y-88340746D01*
X92790217Y-88359000D01*
X92883783Y-88359000D01*
X92975552Y-88340746D01*
X93061997Y-88304939D01*
X93139795Y-88252956D01*
X93205956Y-88186795D01*
X93257939Y-88108997D01*
X93270000Y-88079879D01*
X93270000Y-95175000D01*
X92150000Y-95175000D01*
X92150000Y-81355000D01*
X93270000Y-81355000D01*
X93270000Y-87688121D01*
G37*
X93270000Y-87688121D02*
X93257939Y-87659003D01*
X93205956Y-87581205D01*
X93139795Y-87515044D01*
X93061997Y-87463061D01*
X92975552Y-87427254D01*
X92883783Y-87409000D01*
X92790217Y-87409000D01*
X92698448Y-87427254D01*
X92612003Y-87463061D01*
X92534205Y-87515044D01*
X92468044Y-87581205D01*
X92416061Y-87659003D01*
X92380254Y-87745448D01*
X92362000Y-87837217D01*
X92362000Y-87930783D01*
X92380254Y-88022552D01*
X92416061Y-88108997D01*
X92468044Y-88186795D01*
X92534205Y-88252956D01*
X92612003Y-88304939D01*
X92698448Y-88340746D01*
X92790217Y-88359000D01*
X92883783Y-88359000D01*
X92975552Y-88340746D01*
X93061997Y-88304939D01*
X93139795Y-88252956D01*
X93205956Y-88186795D01*
X93257939Y-88108997D01*
X93270000Y-88079879D01*
X93270000Y-95175000D01*
X92150000Y-95175000D01*
X92150000Y-81355000D01*
X93270000Y-81355000D01*
X93270000Y-87688121D01*
G36*
X95428254Y-63742448D02*
G01*
X95410000Y-63834217D01*
X95410000Y-63927783D01*
X95428254Y-64019552D01*
X95464061Y-64105997D01*
X95516044Y-64183795D01*
X95582205Y-64249956D01*
X95660003Y-64301939D01*
X95746448Y-64337746D01*
X95838217Y-64356000D01*
X95931783Y-64356000D01*
X96023552Y-64337746D01*
X96109997Y-64301939D01*
X96187795Y-64249956D01*
X96253956Y-64183795D01*
X96305939Y-64105997D01*
X96341746Y-64019552D01*
X96360000Y-63927783D01*
X96360000Y-63834217D01*
X96341746Y-63742448D01*
X96324992Y-63702000D01*
X134545000Y-63702000D01*
X134545000Y-64770000D01*
X134545166Y-64774989D01*
X134666833Y-66600000D01*
X133425000Y-66600000D01*
X133425000Y-64770000D01*
X133423559Y-64755368D01*
X133419291Y-64741299D01*
X133412360Y-64728332D01*
X133403033Y-64716967D01*
X133391668Y-64707640D01*
X133378701Y-64700709D01*
X133364632Y-64696441D01*
X133350000Y-64695000D01*
X93345000Y-64695000D01*
X93330368Y-64696441D01*
X93316299Y-64700709D01*
X93303332Y-64707640D01*
X93291967Y-64716967D01*
X93282640Y-64728332D01*
X93275709Y-64741299D01*
X93271441Y-64755368D01*
X93270000Y-64770000D01*
X93270000Y-69775000D01*
X92150000Y-69775000D01*
X92150000Y-63702000D01*
X95445008Y-63702000D01*
X95428254Y-63742448D01*
G37*
X95428254Y-63742448D02*
X95410000Y-63834217D01*
X95410000Y-63927783D01*
X95428254Y-64019552D01*
X95464061Y-64105997D01*
X95516044Y-64183795D01*
X95582205Y-64249956D01*
X95660003Y-64301939D01*
X95746448Y-64337746D01*
X95838217Y-64356000D01*
X95931783Y-64356000D01*
X96023552Y-64337746D01*
X96109997Y-64301939D01*
X96187795Y-64249956D01*
X96253956Y-64183795D01*
X96305939Y-64105997D01*
X96341746Y-64019552D01*
X96360000Y-63927783D01*
X96360000Y-63834217D01*
X96341746Y-63742448D01*
X96324992Y-63702000D01*
X134545000Y-63702000D01*
X134545000Y-64770000D01*
X134545166Y-64774989D01*
X134666833Y-66600000D01*
X133425000Y-66600000D01*
X133425000Y-64770000D01*
X133423559Y-64755368D01*
X133419291Y-64741299D01*
X133412360Y-64728332D01*
X133403033Y-64716967D01*
X133391668Y-64707640D01*
X133378701Y-64700709D01*
X133364632Y-64696441D01*
X133350000Y-64695000D01*
X93345000Y-64695000D01*
X93330368Y-64696441D01*
X93316299Y-64700709D01*
X93303332Y-64707640D01*
X93291967Y-64716967D01*
X93282640Y-64728332D01*
X93275709Y-64741299D01*
X93271441Y-64755368D01*
X93270000Y-64770000D01*
X93270000Y-69775000D01*
X92150000Y-69775000D01*
X92150000Y-63702000D01*
X95445008Y-63702000D01*
X95428254Y-63742448D01*
M02*
